#VRML V2.0 utf8
# 3D model generated by easyeda2kicad.py (https://github.com/uPesy/easyeda2kicad.py)

Shape{
    appearance Appearance {
        material  Material 	{
            diffuseColor 0.8 0.8 0.8
            specularColor 1.0 1.0 1.0
            ambientIntensity 1.0
            transparency 0.0
            shininess 0.5
        }
    }
    geometry IndexedFaceSet {
        ccw TRUE
        solid FALSE
        coord DEF co Coordinate {
            point [
                -0.9449 0.315 0.5906, -0.9449 0.315 0.6496, -0.9449 0.7874 0.5906, -0.9449 0.7112 0.6496, -0.9449 0.7594 0.6331, -0.9449 0.7447 0.6421, -0.9449 0.7283 0.6477, -0.9449 0.7718 0.6211, -0.9449 0.7813 0.6067, -0.9296 0.3129 0.5906, -0.9296 0.3129 0.6496, -0.9154 0.307 0.5906, -0.9154 0.307 0.6496, -0.9031 0.2977 0.5906, -0.9031 0.2977 0.6496, -0.8937 0.2854 0.5906, -0.8937 0.2854 0.6496, -0.8878 0.2712 0.5906, -0.8878 0.2712 0.6496, -0.8858 0.2559 0.5906, -0.8858 0.2559 0.6496, -0.8878 0.2406 0.5906, -0.8878 0.2406 0.6496, -0.8937 0.2264 0.5906, -0.8937 0.2264 0.6496, -0.9031 0.2141 0.5906, -0.9031 0.2141 0.6496, -0.9154 0.2048 0.5906, -0.9154 0.2048 0.6496, -0.9296 0.1989 0.5906, -0.9296 0.1989 0.6496, -0.9449 0.1969 0.5906, -0.9449 0.1969 0.6496, -0.8661 0.1969 0.6496, -0.8661 0.1969 0.5906, -0.8661 -0.1969 0.6496, -0.8661 -0.1969 0.5906, -0.9449 -0.1969 0.6496, -0.9449 -0.1969 0.5906, -0.9296 -0.1989 0.5906, -0.9296 -0.1989 0.6496, -0.9154 -0.2048 0.5906, -0.9154 -0.2048 0.6496, -0.9031 -0.2141 0.5906, -0.9031 -0.2141 0.6496, -0.8937 -0.2264 0.5906, -0.8937 -0.2264 0.6496, -0.8878 -0.2406 0.5906, -0.8878 -0.2406 0.6496, -0.8858 -0.2559 0.5906, -0.8858 -0.2559 0.6496, -0.8878 -0.2712 0.5906, -0.8878 -0.2712 0.6496, -0.8937 -0.2854 0.5906, -0.8937 -0.2854 0.6496, -0.9031 -0.2977 0.5906, -0.9031 -0.2977 0.6496, -0.9154 -0.307 0.5906, -0.9154 -0.307 0.6496, -0.9296 -0.3129 0.5906, -0.9296 -0.3129 0.6496, -0.9449 -0.315 0.5906, -0.9449 -0.315 0.6496, -0.9449 -0.7874 0.6496, -0.9449 -0.7874 0.5906, -0.7087 -0.7874 0.6496, -0.7087 -0.7874 0.5906, -0.7087 -0.7087 0.6496, -0.7087 -0.7087 0.5906, 0.7087 -0.7087 0.6496, 0.7087 -0.7087 0.5906, 0.7087 -0.7874 0.6496, 0.7087 -0.7874 0.5906, 0.9449 -0.7874 0.6496, 0.9449 -0.7874 0.5906, 0.9449 -0.315 0.6496, 0.9449 -0.315 0.5906, 0.9296 -0.3129 0.5906, 0.9296 -0.3129 0.6496, 0.9154 -0.307 0.5906, 0.9154 -0.307 0.6496, 0.9031 -0.2977 0.5906, 0.9031 -0.2977 0.6496, 0.8937 -0.2854 0.5906, 0.8937 -0.2854 0.6496, 0.8878 -0.2712 0.5906, 0.8878 -0.2712 0.6496, 0.8858 -0.2559 0.5906, 0.8858 -0.2559 0.6496, 0.8878 -0.2406 0.5906, 0.8878 -0.2406 0.6496, 0.8937 -0.2264 0.5906, 0.8937 -0.2264 0.6496, 0.9031 -0.2141 0.5906, 0.9031 -0.2141 0.6496, 0.9154 -0.2048 0.5906, 0.9154 -0.2048 0.6496, 0.9296 -0.1989 0.5906, 0.9296 -0.1989 0.6496, 0.9449 -0.1969 0.5906, 0.9449 -0.1969 0.6496, 0.8661 -0.1969 0.6496, 0.8661 -0.1969 0.5906, 0.8661 0.1969 0.6496, 0.8661 0.1969 0.5906, 0.9449 0.1969 0.6496, 0.9449 0.1969 0.5906, 0.9296 0.1989 0.5906, 0.9296 0.1989 0.6496, 0.9154 0.2048 0.5906, 0.9154 0.2048 0.6496, 0.9031 0.2141 0.5906, 0.9031 0.2141 0.6496, 0.8937 0.2264 0.5906, 0.8937 0.2264 0.6496, 0.8878 0.2406 0.5906, 0.8878 0.2406 0.6496, 0.8858 0.2559 0.5906, 0.8858 0.2559 0.6496, 0.8878 0.2712 0.5906, 0.8878 0.2712 0.6496, 0.8937 0.2854 0.5906, 0.8937 0.2854 0.6496, 0.9031 0.2977 0.5906, 0.9031 0.2977 0.6496, 0.9154 0.307 0.5906, 0.9154 0.307 0.6496, 0.9296 0.3129 0.5906, 0.9296 0.3129 0.6496, 0.9449 0.315 0.5906, 0.9449 0.315 0.6496, 0.9449 0.7112 0.6496, 0.9449 0.7874 0.5906, 0.9449 0.7813 0.6067, 0.9449 0.7718 0.6211, 0.9449 0.7594 0.6331, 0.9449 0.7447 0.6421, 0.9449 0.7283 0.6477, 0.7087 0.7087 0.5906, 0.7087 0.7087 0.6496, 0.7087 0.7112 0.6496, 0.7087 0.7594 0.6331, 0.7087 0.7718 0.6211, 0.7087 0.7813 0.6067, 0.7087 0.7874 0.5906, 0.7087 0.7283 0.6477, 0.7087 0.7447 0.6421, 0.5906 0.7087 0.6496, 0.5906 0.7087 0.5906, 0.5906 0.7874 0.5906, 0.5906 0.7813 0.6067, 0.5906 0.7718 0.6211, 0.5906 0.7594 0.6331, 0.5906 0.7447 0.6421, 0.5906 0.7283 0.6477, 0.5906 0.7112 0.6496, -0.5906 0.7087 0.5906, -0.5906 0.7087 0.6496, -0.5906 0.7112 0.6496, -0.5906 0.7594 0.6331, -0.5906 0.7718 0.6211, -0.5906 0.7813 0.6067, -0.5906 0.7874 0.5906, -0.5906 0.7283 0.6477, -0.5906 0.7447 0.6421, -0.7087 0.7087 0.6496, -0.7087 0.7087 0.5906, -0.7087 0.7874 0.5906, -0.7087 0.7813 0.6067, -0.7087 0.7718 0.6211, -0.7087 0.7594 0.6331, -0.7087 0.7447 0.6421, -0.7087 0.7283 0.6477, -0.7087 0.7112 0.6496, -0.9449 0.1969 0.5315, -0.9449 0.1969 0.5709, -0.8661 0.1969 0.5315, -0.9439 0.1969 0.5832, -0.941 0.1969 0.5952, -0.9363 0.1969 0.6066, -0.9298 0.1969 0.6171, -0.9218 0.1969 0.6265, -0.9124 0.1969 0.6346, -0.9019 0.1969 0.641, -0.8905 0.1969 0.6458, -0.8785 0.1969 0.6486, -0.9449 -0.1181 0.4528, -0.9449 0.1181 0.4528, -0.8661 -0.1181 0.4528, -0.8661 0.1181 0.4528, -0.9449 -0.1969 0.5709, -0.9449 -0.1969 0.5315, -0.8661 -0.1969 0.5315, -0.8785 -0.1969 0.6486, -0.9363 -0.1969 0.6066, -0.941 -0.1969 0.5952, -0.9439 -0.1969 0.5832, -0.8905 -0.1969 0.6458, -0.9019 -0.1969 0.641, -0.9124 -0.1969 0.6346, -0.9218 -0.1969 0.6265, -0.9298 -0.1969 0.6171, -0.9449 0.1304 0.4537, -0.9449 0.1959 0.5192, -0.9449 -0.1304 0.4537, -0.9449 -0.1424 0.4566, -0.9449 0.1644 0.4678, -0.9449 0.1539 0.4613, -0.9449 0.1424 0.4566, -0.9449 0.193 0.5072, -0.9449 0.1883 0.4957, -0.9449 0.1738 0.4758, -0.9449 0.1818 0.4852, -0.9449 -0.1539 0.4613, -0.9449 -0.1644 0.4678, -0.9449 -0.1738 0.4758, -0.9449 -0.1818 0.4852, -0.9449 -0.1883 0.4957, -0.9449 -0.1959 0.5192, -0.9449 -0.193 0.5072, -0.8661 -0.1959 0.5192, -0.8661 -0.193 0.5072, -0.8661 -0.1883 0.4957, -0.8661 -0.1738 0.4758, -0.8661 -0.1644 0.4678, -0.8661 -0.1539 0.4613, -0.8661 -0.1424 0.4566, -0.8661 -0.1304 0.4537, -0.8661 -0.1818 0.4852, -0.8661 0.193 0.5072, -0.8661 0.1424 0.4566, -0.8661 0.1883 0.4957, -0.8661 0.1539 0.4613, -0.8661 0.1644 0.4678, -0.8661 0.1738 0.4758, -0.8661 0.1818 0.4852, -0.8661 0.1304 0.4537, -0.8661 0.1959 0.5192, 0.9449 -0.1969 0.5315, 0.9449 -0.1969 0.5709, 0.8661 -0.1969 0.5315, 0.9439 -0.1969 0.5832, 0.941 -0.1969 0.5952, 0.9363 -0.1969 0.6066, 0.9298 -0.1969 0.6171, 0.9218 -0.1969 0.6265, 0.9124 -0.1969 0.6346, 0.9019 -0.1969 0.641, 0.8905 -0.1969 0.6458, 0.8785 -0.1969 0.6486, 0.9449 0.1181 0.4528, 0.9449 -0.1181 0.4528, 0.8661 0.1181 0.4528, 0.8661 -0.1181 0.4528, 0.9218 0.1969 0.6265, 0.9298 0.1969 0.6171, 0.8661 0.1969 0.5315, 0.9363 0.1969 0.6066, 0.941 0.1969 0.5952, 0.9439 0.1969 0.5832, 0.9449 0.1969 0.5709, 0.9449 0.1969 0.5315, 0.8905 0.1969 0.6458, 0.8785 0.1969 0.6486, 0.9019 0.1969 0.641, 0.9124 0.1969 0.6346, 0.9449 -0.1959 0.5192, 0.9449 0.1304 0.4537, 0.9449 0.1424 0.4566, 0.9449 -0.193 0.5072, 0.9449 -0.1883 0.4957, 0.9449 -0.1304 0.4537, 0.9449 -0.1644 0.4678, 0.9449 -0.1738 0.4758, 0.9449 -0.1818 0.4852, 0.9449 -0.1539 0.4613, 0.9449 -0.1424 0.4566, 0.9449 0.1539 0.4613, 0.9449 0.1644 0.4678, 0.9449 0.1738 0.4758, 0.9449 0.1818 0.4852, 0.9449 0.1883 0.4957, 0.9449 0.1959 0.5192, 0.9449 0.193 0.5072, 0.8661 0.1959 0.5192, 0.8661 0.193 0.5072, 0.8661 0.1883 0.4957, 0.8661 0.1738 0.4758, 0.8661 0.1644 0.4678, 0.8661 0.1539 0.4613, 0.8661 0.1424 0.4566, 0.8661 0.1818 0.4852, 0.8661 0.1304 0.4537, 0.8661 -0.1959 0.5192, 0.8661 -0.1304 0.4537, 0.8661 -0.1424 0.4566, 0.8661 -0.1818 0.4852, 0.8661 -0.1883 0.4957, 0.8661 -0.1738 0.4758, 0.8661 -0.1644 0.4678, 0.8661 -0.1539 0.4613, 0.8661 -0.193 0.5072, -0.7087 -0.7087 0.1575, -0.7087 -0.7874 0.1575, -0.7087 -0.7874 0.5709, -0.7087 -0.7859 0.5862, -0.7087 -0.7814 0.601, -0.7087 -0.7741 0.6146, -0.7087 -0.7643 0.6265, -0.7087 -0.7524 0.6363, -0.7087 -0.7388 0.6436, -0.7087 -0.724 0.6481, -0.9055 -0.7874 0.1575, -0.9055 -0.7087 0.1575, -0.9055 -0.7874 0.0197, -0.9055 -0.7087 0.0197, -0.5906 -0.7874 0.0197, -0.5906 -0.7087 0.0197, -0.5906 -0.7874 0.5709, -0.5906 -0.7087 0.6496, -0.5906 -0.724 0.6481, -0.5906 -0.7388 0.6436, -0.5906 -0.7524 0.6363, -0.5906 -0.7741 0.6146, -0.5906 -0.7814 0.601, -0.5906 -0.7859 0.5862, -0.5906 -0.7643 0.6265, 0.7087 -0.7874 0.1575, 0.9055 -0.7874 0.1575, 0.7087 -0.7087 0.1575, 0.9055 -0.7087 0.1575, 0.7087 -0.7874 0.5709, 0.7087 -0.724 0.6481, 0.7087 -0.7388 0.6436, 0.7087 -0.7524 0.6363, 0.7087 -0.7741 0.6146, 0.7087 -0.7814 0.601, 0.7087 -0.7859 0.5862, 0.7087 -0.7643 0.6265, 0.5906 -0.7087 0.0197, 0.5906 -0.7874 0.0197, 0.5906 -0.7087 0.6496, 0.5906 -0.7874 0.5709, 0.5906 -0.7859 0.5862, 0.5906 -0.7814 0.601, 0.5906 -0.7741 0.6146, 0.5906 -0.7643 0.6265, 0.5906 -0.7524 0.6363, 0.5906 -0.7388 0.6436, 0.5906 -0.724 0.6481, 0.9055 -0.7874 0.0197, 0.9055 -0.7087 0.0197, -0.9055 0.7874 0.1575, -0.9055 0.7874 0.0197, -0.9055 0.7087 0.1575, -0.9055 0.7087 0.0197, -0.7087 0.7874 0.1575, -0.7087 0.7087 0.1575, -0.7087 0.7874 0.5709, -0.7087 0.7859 0.5862, -0.7087 0.7814 0.601, -0.7087 0.7388 0.6436, -0.7087 0.7524 0.6363, -0.7087 0.724 0.6481, -0.7087 0.7643 0.6265, -0.7087 0.7741 0.6146, -0.5906 0.7087 0.0197, -0.5906 0.7874 0.0197, -0.5906 0.7874 0.5709, -0.5906 0.7859 0.5862, -0.5906 0.724 0.6481, -0.5906 0.7643 0.6265, -0.5906 0.7524 0.6363, -0.5906 0.7741 0.6146, -0.5906 0.7814 0.601, -0.5906 0.7388 0.6436, 0.5906 0.7874 0.0197, 0.9055 0.7874 0.0197, 0.5906 0.7087 0.0197, 0.9055 0.7087 0.0197, 0.5906 0.7874 0.5709, 0.5906 0.7859 0.5862, 0.5906 0.7814 0.601, 0.5906 0.7524 0.6363, 0.5906 0.7643 0.6265, 0.5906 0.7388 0.6436, 0.5906 0.724 0.6481, 0.5906 0.7741 0.6146, 0.7087 0.7087 0.1575, 0.7087 0.7874 0.1575, 0.7087 0.7874 0.5709, 0.7087 0.7859 0.5862, 0.7087 0.7814 0.601, 0.7087 0.724 0.6481, 0.7087 0.7741 0.6146, 0.7087 0.7643 0.6265, 0.7087 0.7524 0.6363, 0.7087 0.7388 0.6436, 0.9055 0.7874 0.1575, 0.9055 0.7087 0.1575, 1.2205 0.1969 0.0, 1.2205 0.4331 0.0, 1.2205 0.1969 0.0787, 1.2205 0.4331 0.0787, 0.8268 0.1969 0.0, 0.8268 0.1969 0.0787, 0.8268 0.4331 0.0, 0.8268 0.4331 0.0787, 1.2205 -0.4724 0.0, 1.2205 -0.2362 0.0, 1.2205 -0.4724 0.0787, 1.2205 -0.2362 0.0787, 0.8268 -0.4724 0.0, 0.8268 -0.4724 0.0787, 0.8268 -0.2362 0.0, 0.8268 -0.2362 0.0787, -0.8268 -0.4724 0.0, -0.8268 -0.2362 0.0, -0.8268 -0.4724 0.0787, -0.8268 -0.2362 0.0787, -1.2205 -0.4724 0.0, -1.2205 -0.4724 0.0787, -1.2205 -0.2362 0.0, -1.2205 -0.2362 0.0787, -1.2205 0.4331 0.0, -1.2205 0.1969 0.0, -1.2205 0.4331 0.0787, -1.2205 0.1969 0.0787, -0.8268 0.4331 0.0, -0.8268 0.4331 0.0787, -0.8268 0.1969 0.0, -0.8268 0.1969 0.0787
            ]
        }
        coordIndex [
            0,1,2,-1,2,1,3,-1,4,3,5,-1,5,3,6,-1,4,7,3,-1,3,7,8,-1,3,8,2,-1,1,0,9,-1,1,9,10,-1,10,9,11,-1,10,11,12,-1,12,11,13,-1,12,13,14,-1,14,13,15,-1,14,15,16,-1,16,15,17,-1,16,17,18,-1,18,17,19,-1,18,19,20,-1,20,19,21,-1,20,21,22,-1,22,21,23,-1,22,23,24,-1,24,23,25,-1,24,25,26,-1,26,25,27,-1,26,27,28,-1,28,27,29,-1,28,29,30,-1,30,29,31,-1,30,31,32,-1,33,32,34,-1,34,32,31,-1,35,33,36,-1,36,33,34,-1,37,35,38,-1,38,35,36,-1,37,38,39,-1,37,39,40,-1,40,39,41,-1,40,41,42,-1,42,41,43,-1,42,43,44,-1,44,43,45,-1,44,45,46,-1,46,45,47,-1,46,47,48,-1,48,47,49,-1,48,49,50,-1,50,49,51,-1,50,51,52,-1,52,51,53,-1,52,53,54,-1,54,53,55,-1,54,55,56,-1,56,55,57,-1,56,57,58,-1,58,57,59,-1,58,59,60,-1,60,59,61,-1,60,61,62,-1,63,62,64,-1,64,62,61,-1,65,63,66,-1,66,63,64,-1,67,65,68,-1,68,65,66,-1,69,67,70,-1,70,67,68,-1,71,69,72,-1,72,69,70,-1,73,71,74,-1,74,71,72,-1,75,73,76,-1,76,73,74,-1,75,76,77,-1,75,77,78,-1,78,77,79,-1,78,79,80,-1,80,79,81,-1,80,81,82,-1,82,81,83,-1,82,83,84,-1,84,83,85,-1,84,85,86,-1,86,85,87,-1,86,87,88,-1,88,87,89,-1,88,89,90,-1,90,89,91,-1,90,91,92,-1,92,91,93,-1,92,93,94,-1,94,93,95,-1,94,95,96,-1,96,95,97,-1,96,97,98,-1,98,97,99,-1,98,99,100,-1,101,100,102,-1,102,100,99,-1,103,101,104,-1,104,101,102,-1,105,103,106,-1,106,103,104,-1,105,106,107,-1,105,107,108,-1,108,107,109,-1,108,109,110,-1,110,109,111,-1,110,111,112,-1,112,111,113,-1,112,113,114,-1,114,113,115,-1,114,115,116,-1,116,115,117,-1,116,117,118,-1,118,117,119,-1,118,119,120,-1,120,119,121,-1,120,121,122,-1,122,121,123,-1,122,123,124,-1,124,123,125,-1,124,125,126,-1,126,125,127,-1,126,127,128,-1,128,127,129,-1,128,129,130,-1,131,130,129,-1,129,132,131,-1,131,132,133,-1,131,133,134,-1,134,135,131,-1,131,135,136,-1,131,136,137,-1,138,139,140,-1,141,142,138,-1,138,142,143,-1,138,143,144,-1,140,145,138,-1,138,145,146,-1,138,146,141,-1,147,139,148,-1,148,139,138,-1,148,149,150,-1,150,151,148,-1,148,151,152,-1,148,152,153,-1,153,154,148,-1,148,154,155,-1,148,155,147,-1,156,157,158,-1,159,160,156,-1,156,160,161,-1,156,161,162,-1,158,163,156,-1,156,163,164,-1,156,164,159,-1,165,157,166,-1,166,157,156,-1,166,167,168,-1,168,169,166,-1,166,169,170,-1,166,170,171,-1,171,172,166,-1,166,172,173,-1,166,173,165,-1,131,140,130,-1,130,140,139,-1,130,139,128,-1,101,103,147,-1,30,32,33,-1,173,3,165,-1,165,3,1,-1,101,92,94,-1,94,96,101,-1,101,96,98,-1,101,98,100,-1,22,24,33,-1,71,73,69,-1,69,73,157,-1,105,108,103,-1,103,108,110,-1,103,110,112,-1,112,114,103,-1,103,114,116,-1,103,116,147,-1,147,116,118,-1,147,118,120,-1,73,75,78,-1,86,88,101,-1,101,88,90,-1,101,90,92,-1,20,157,18,-1,18,157,16,-1,48,50,69,-1,120,122,147,-1,147,122,124,-1,147,124,139,-1,139,124,126,-1,139,126,128,-1,78,80,73,-1,73,80,82,-1,73,82,84,-1,84,86,73,-1,73,86,101,-1,73,101,157,-1,157,101,147,-1,157,147,158,-1,158,147,155,-1,22,33,20,-1,1,10,165,-1,165,10,12,-1,165,12,157,-1,157,12,14,-1,157,14,16,-1,24,26,33,-1,33,26,28,-1,33,28,30,-1,35,37,40,-1,63,65,62,-1,62,65,67,-1,62,67,60,-1,60,67,58,-1,40,42,35,-1,35,42,44,-1,35,44,46,-1,20,33,157,-1,157,33,35,-1,157,35,69,-1,69,35,46,-1,69,46,48,-1,50,52,69,-1,69,52,54,-1,69,54,67,-1,67,54,56,-1,67,56,58,-1,144,132,138,-1,138,132,129,-1,74,72,76,-1,76,72,70,-1,39,38,36,-1,148,121,119,-1,117,115,104,-1,104,115,113,-1,104,113,111,-1,111,109,104,-1,104,109,107,-1,104,107,106,-1,129,127,138,-1,138,127,125,-1,138,125,148,-1,148,125,123,-1,148,123,121,-1,66,64,68,-1,68,64,61,-1,68,61,59,-1,2,167,0,-1,0,167,166,-1,0,166,9,-1,51,49,70,-1,70,49,47,-1,45,43,36,-1,36,43,41,-1,36,41,39,-1,59,57,68,-1,68,57,55,-1,68,55,70,-1,70,55,53,-1,70,53,51,-1,104,102,34,-1,34,102,36,-1,162,149,156,-1,156,149,148,-1,95,102,97,-1,97,102,99,-1,95,93,102,-1,102,93,91,-1,102,91,89,-1,21,19,156,-1,156,19,17,-1,87,85,70,-1,70,85,83,-1,70,83,81,-1,31,29,34,-1,34,29,27,-1,119,117,148,-1,148,117,104,-1,148,104,156,-1,156,104,34,-1,156,34,21,-1,89,87,102,-1,102,87,70,-1,102,70,36,-1,36,70,47,-1,36,47,45,-1,81,79,70,-1,70,79,77,-1,70,77,76,-1,27,25,34,-1,34,25,23,-1,34,23,21,-1,17,15,156,-1,156,15,13,-1,156,13,166,-1,166,13,11,-1,166,11,9,-1,132,144,143,-1,132,143,133,-1,133,143,142,-1,133,142,134,-1,134,142,141,-1,134,141,135,-1,135,141,146,-1,135,146,136,-1,136,146,145,-1,136,145,137,-1,137,145,140,-1,137,140,131,-1,167,2,8,-1,167,8,168,-1,168,8,7,-1,168,7,169,-1,169,7,4,-1,169,4,170,-1,170,4,5,-1,170,5,171,-1,171,5,6,-1,171,6,172,-1,172,6,3,-1,172,3,173,-1,149,162,161,-1,149,161,150,-1,150,161,160,-1,150,160,151,-1,151,160,159,-1,151,159,152,-1,152,159,164,-1,152,164,153,-1,153,164,163,-1,153,163,154,-1,154,163,158,-1,154,158,155,-1,174,175,176,-1,176,175,177,-1,177,178,176,-1,176,178,179,-1,176,179,180,-1,180,181,176,-1,176,181,182,-1,176,182,183,-1,183,184,176,-1,176,184,185,-1,176,185,33,-1,186,187,188,-1,188,187,189,-1,190,191,192,-1,192,35,193,-1,194,195,192,-1,192,195,196,-1,192,196,190,-1,193,197,192,-1,192,197,198,-1,192,198,199,-1,199,200,192,-1,192,200,201,-1,192,201,194,-1,190,175,191,-1,191,175,174,-1,202,187,203,-1,203,187,174,-1,204,205,191,-1,174,187,191,-1,191,187,186,-1,191,186,204,-1,206,207,203,-1,203,207,208,-1,203,208,202,-1,203,209,206,-1,206,209,210,-1,206,210,211,-1,211,210,212,-1,205,213,191,-1,191,213,214,-1,191,214,215,-1,215,216,191,-1,191,216,217,-1,191,217,218,-1,218,217,219,-1,33,35,176,-1,176,35,192,-1,220,221,222,-1,223,224,192,-1,192,224,225,-1,192,225,226,-1,189,176,188,-1,188,176,192,-1,188,192,227,-1,227,192,226,-1,220,222,192,-1,192,222,228,-1,192,228,223,-1,229,230,231,-1,231,230,232,-1,232,233,231,-1,231,233,234,-1,231,234,235,-1,189,236,176,-1,176,236,230,-1,176,230,237,-1,237,230,229,-1,35,33,185,-1,35,185,193,-1,193,185,184,-1,193,184,197,-1,197,184,183,-1,197,183,198,-1,198,183,182,-1,198,182,199,-1,199,182,181,-1,199,181,200,-1,200,181,180,-1,200,180,201,-1,201,180,179,-1,201,179,194,-1,194,179,178,-1,194,178,195,-1,195,178,177,-1,195,177,196,-1,196,177,175,-1,196,175,190,-1,186,188,227,-1,186,227,204,-1,204,227,226,-1,204,226,205,-1,205,226,225,-1,205,225,213,-1,213,225,224,-1,213,224,214,-1,214,224,223,-1,214,223,215,-1,215,223,228,-1,215,228,216,-1,216,228,222,-1,216,222,217,-1,217,222,221,-1,217,221,219,-1,219,221,220,-1,219,220,218,-1,218,220,192,-1,218,192,191,-1,174,176,237,-1,174,237,203,-1,203,237,229,-1,203,229,209,-1,209,229,231,-1,209,231,210,-1,210,231,235,-1,210,235,212,-1,212,235,234,-1,212,234,211,-1,211,234,233,-1,211,233,206,-1,206,233,232,-1,206,232,207,-1,207,232,230,-1,207,230,208,-1,208,230,236,-1,208,236,202,-1,202,236,189,-1,202,189,187,-1,238,239,240,-1,240,239,241,-1,241,242,240,-1,240,242,243,-1,240,243,244,-1,244,245,240,-1,240,245,246,-1,240,246,247,-1,247,248,240,-1,240,248,249,-1,240,249,101,-1,250,251,252,-1,252,251,253,-1,254,255,256,-1,256,255,257,-1,256,257,258,-1,258,259,256,-1,256,259,260,-1,256,260,261,-1,262,256,263,-1,263,256,103,-1,262,264,256,-1,256,264,265,-1,256,265,254,-1,260,239,261,-1,261,239,238,-1,251,238,266,-1,267,268,261,-1,266,269,251,-1,251,269,270,-1,251,270,271,-1,238,251,261,-1,261,251,250,-1,261,250,267,-1,272,270,273,-1,273,270,274,-1,272,275,270,-1,270,275,276,-1,270,276,271,-1,268,277,261,-1,261,277,278,-1,261,278,279,-1,279,280,261,-1,261,280,281,-1,261,281,282,-1,282,281,283,-1,101,103,240,-1,240,103,256,-1,284,285,286,-1,287,288,256,-1,256,288,289,-1,256,289,290,-1,284,286,256,-1,256,286,291,-1,256,291,287,-1,290,292,256,-1,256,292,252,-1,256,252,240,-1,240,252,253,-1,240,253,293,-1,293,253,294,-1,293,294,295,-1,296,297,298,-1,298,297,299,-1,295,300,293,-1,293,300,299,-1,293,299,301,-1,301,299,297,-1,239,260,259,-1,239,259,241,-1,241,259,258,-1,241,258,242,-1,242,258,257,-1,242,257,243,-1,243,257,255,-1,243,255,244,-1,244,255,254,-1,244,254,245,-1,245,254,265,-1,245,265,246,-1,246,265,264,-1,246,264,247,-1,247,264,262,-1,247,262,248,-1,248,262,263,-1,248,263,249,-1,249,263,103,-1,249,103,101,-1,250,252,292,-1,250,292,267,-1,267,292,290,-1,267,290,268,-1,268,290,289,-1,268,289,277,-1,277,289,288,-1,277,288,278,-1,278,288,287,-1,278,287,279,-1,279,287,291,-1,279,291,280,-1,280,291,286,-1,280,286,281,-1,281,286,285,-1,281,285,283,-1,283,285,284,-1,283,284,282,-1,282,284,256,-1,282,256,261,-1,238,240,293,-1,238,293,266,-1,266,293,301,-1,266,301,269,-1,269,301,297,-1,269,297,270,-1,270,297,296,-1,270,296,274,-1,274,296,298,-1,274,298,273,-1,273,298,299,-1,273,299,272,-1,272,299,300,-1,272,300,275,-1,275,300,295,-1,275,295,276,-1,276,295,294,-1,276,294,271,-1,271,294,253,-1,271,253,251,-1,302,303,67,-1,67,303,304,-1,67,304,305,-1,305,306,67,-1,67,306,307,-1,67,307,308,-1,308,309,67,-1,67,309,310,-1,67,310,311,-1,312,303,313,-1,313,303,302,-1,314,312,315,-1,315,312,313,-1,316,314,317,-1,317,314,315,-1,316,317,318,-1,318,317,319,-1,320,321,322,-1,323,324,319,-1,319,324,325,-1,319,325,318,-1,320,322,319,-1,319,322,326,-1,319,326,323,-1,312,314,303,-1,303,314,316,-1,303,316,304,-1,304,316,318,-1,67,319,302,-1,302,319,317,-1,302,317,313,-1,313,317,315,-1,319,67,311,-1,319,311,320,-1,320,311,310,-1,320,310,321,-1,321,310,309,-1,321,309,322,-1,322,309,308,-1,322,308,326,-1,326,308,307,-1,326,307,323,-1,323,307,306,-1,323,306,324,-1,324,306,305,-1,324,305,325,-1,325,305,304,-1,325,304,318,-1,327,328,329,-1,329,328,330,-1,327,329,331,-1,331,329,69,-1,332,333,334,-1,335,336,69,-1,69,336,337,-1,69,337,331,-1,332,334,69,-1,69,334,338,-1,69,338,335,-1,339,340,341,-1,341,340,342,-1,341,342,343,-1,343,344,341,-1,341,344,345,-1,341,345,346,-1,346,347,341,-1,341,347,348,-1,341,348,349,-1,350,340,351,-1,351,340,339,-1,328,350,330,-1,330,350,351,-1,331,342,327,-1,327,342,340,-1,327,340,328,-1,328,340,350,-1,330,351,329,-1,329,351,339,-1,329,339,69,-1,69,339,341,-1,69,341,349,-1,69,349,332,-1,332,349,348,-1,332,348,333,-1,333,348,347,-1,333,347,334,-1,334,347,346,-1,334,346,338,-1,338,346,345,-1,338,345,335,-1,335,345,344,-1,335,344,336,-1,336,344,343,-1,336,343,337,-1,337,343,342,-1,337,342,331,-1,352,353,354,-1,354,353,355,-1,356,352,357,-1,357,352,354,-1,356,357,358,-1,358,357,165,-1,358,165,359,-1,359,165,360,-1,361,362,363,-1,363,362,364,-1,363,364,165,-1,165,364,365,-1,165,365,360,-1,157,366,367,-1,367,368,157,-1,157,368,369,-1,157,369,370,-1,371,372,373,-1,373,372,374,-1,374,372,369,-1,369,372,375,-1,369,375,370,-1,353,367,355,-1,355,367,366,-1,358,368,356,-1,356,368,367,-1,356,367,352,-1,352,367,353,-1,354,355,357,-1,357,355,366,-1,357,366,165,-1,165,366,157,-1,165,157,370,-1,165,370,363,-1,363,370,375,-1,363,375,361,-1,361,375,372,-1,361,372,362,-1,362,372,371,-1,362,371,364,-1,364,371,373,-1,364,373,365,-1,365,373,374,-1,365,374,360,-1,360,374,369,-1,360,369,359,-1,359,369,368,-1,359,368,358,-1,376,377,378,-1,378,377,379,-1,376,378,380,-1,380,378,147,-1,380,147,381,-1,381,147,382,-1,383,384,385,-1,385,384,386,-1,386,384,147,-1,147,384,387,-1,147,387,382,-1,388,389,139,-1,139,389,390,-1,390,391,139,-1,139,391,392,-1,139,392,393,-1,393,392,394,-1,394,395,393,-1,393,395,396,-1,393,396,397,-1,398,389,399,-1,399,389,388,-1,377,398,379,-1,379,398,399,-1,398,377,389,-1,389,377,376,-1,389,376,390,-1,390,376,380,-1,139,147,388,-1,388,147,378,-1,388,378,399,-1,399,378,379,-1,390,380,381,-1,390,381,391,-1,391,381,382,-1,391,382,392,-1,392,382,387,-1,392,387,394,-1,394,387,384,-1,394,384,395,-1,395,384,383,-1,395,383,396,-1,396,383,385,-1,396,385,397,-1,397,385,386,-1,397,386,393,-1,393,386,147,-1,393,147,139,-1,400,401,402,-1,402,401,403,-1,404,400,405,-1,405,400,402,-1,406,404,407,-1,407,404,405,-1,401,406,403,-1,403,406,407,-1,404,406,400,-1,400,406,401,-1,407,405,403,-1,403,405,402,-1,408,409,410,-1,410,409,411,-1,412,408,413,-1,413,408,410,-1,414,412,415,-1,415,412,413,-1,409,414,411,-1,411,414,415,-1,412,414,408,-1,408,414,409,-1,415,413,411,-1,411,413,410,-1,416,417,418,-1,418,417,419,-1,420,416,421,-1,421,416,418,-1,422,420,423,-1,423,420,421,-1,417,422,419,-1,419,422,423,-1,420,422,416,-1,416,422,417,-1,423,421,419,-1,419,421,418,-1,424,425,426,-1,426,425,427,-1,428,424,429,-1,429,424,426,-1,430,428,431,-1,431,428,429,-1,425,430,427,-1,427,430,431,-1,428,430,424,-1,424,430,425,-1,431,429,427,-1,427,429,426,-1,
        ]
    }
}
Shape{
    appearance Appearance {
        material  Material 	{
            diffuseColor 0.7411764705882353 0.596078431372549 0.24705882352941178
            specularColor 0.3686274509803922 0.2980392156862745 0.12156862745098039
            ambientIntensity 0.5997
            transparency 0.0
            shininess 0.5
        }
    }
    geometry IndexedFaceSet {
        ccw TRUE
        solid FALSE
        coord DEF co Coordinate {
            point [
                0.6365 0.4574 0.6693, 0.6365 -0.4574 0.6693, 0.6365 0.4574 0.6496, 0.6365 -0.4574 0.6496, -0.6365 0.4574 0.6693, -0.6365 0.4574 0.6496, -0.6365 -0.4574 0.6693, -0.6365 -0.4574 0.6496, 0.1986 -0.1969 0.6693, 0.1986 0.0 0.6693, -0.1986 0.0 0.6693, -0.1986 -0.1969 0.6693, -0.3168 -0.1969 0.6693, -0.3168 0.1969 0.6693, 0.3168 0.1969 0.6693, 0.3168 -0.1969 0.6693
            ]
        }
        coordIndex [
            0,1,2,-1,2,1,3,-1,4,0,5,-1,5,0,2,-1,6,4,7,-1,7,4,5,-1,1,6,3,-1,3,6,7,-1,8,6,1,-1,9,10,8,-1,8,10,11,-1,8,11,6,-1,6,11,12,-1,6,12,4,-1,4,12,13,-1,4,13,0,-1,0,13,14,-1,0,14,1,-1,1,14,15,-1,1,15,8,-1,7,5,3,-1,3,5,2,-1,
        ]
    }
}
Shape{
    appearance Appearance {
        material  Material 	{
            diffuseColor 0.3254901960784314 0.3254901960784314 0.4117647058823529
            specularColor 0.1607843137254902 0.1607843137254902 0.20392156862745098
            ambientIntensity 0.3353
            transparency 0.0
            shininess 0.5
        }
    }
    geometry IndexedFaceSet {
        ccw TRUE
        solid FALSE
        coord DEF co Coordinate {
            point [
                -0.3168 -0.1969 0.6614, -0.3168 0.1969 0.6614, -0.3168 -0.1969 0.6693, -0.3168 0.1969 0.6693, 0.3168 0.1969 0.6614, 0.3168 0.1969 0.6693, 0.3168 -0.1969 0.6614, 0.3168 -0.1969 0.6693, 0.1986 -0.1969 0.6614, 0.1986 -0.1969 0.6693, 0.1986 0.0 0.6614, 0.1986 0.0 0.6693, -0.1986 0.0 0.6614, -0.1986 0.0 0.6693, -0.1986 -0.1969 0.6614, -0.1986 -0.1969 0.6693, 0.5118 -0.7874 0.2362, 0.5906 -0.7874 0.0, 0.5118 -0.7874 0.4724, 0.5906 -0.7874 0.5906, 0.5118 -0.7874 0.5906, -0.5118 -0.7874 0.2362, -0.5906 -0.7874 0.0, -0.1535 -0.7874 0.0, -0.5906 -0.7874 0.5906, -0.5118 -0.7874 0.4724, -0.5118 -0.7874 0.5906, -0.1149 -0.7874 0.0, -0.041 -0.7874 0.0, 0.0167 -0.7874 0.0, 0.9449 -0.7874 0.5906, 0.9449 -0.1969 0.5906, 0.8661 -0.1969 0.5906, 0.5906 0.7874 0.5906, -0.5906 0.7874 0.5906, 0.5906 0.7087 0.5906, -0.5906 0.7087 0.5906, -0.7087 0.7874 0.5906, -0.9449 0.7874 0.5906, -0.7087 0.7087 0.5906, -0.9449 0.1969 0.5906, -0.8661 0.1969 0.5906, 0.9449 0.7874 0.5906, 0.7087 0.7874 0.5906, 0.9449 0.1969 0.5906, 0.7087 0.7087 0.5906, 0.8661 0.1969 0.5906, 0.7087 -0.7087 0.5906, 0.7087 -0.7874 0.5906, 0.5118 -0.7262 0.5906, 0.5906 -0.7087 0.5906, -0.9449 -0.7874 0.5906, -0.7087 -0.7874 0.5906, -0.9449 -0.1969 0.5906, -0.7087 -0.7087 0.5906, -0.8661 -0.1969 0.5906, -0.5906 -0.7087 0.5906, -0.5118 -0.7262 0.5906, 0.5118 -0.9449 0.2362, 0.5118 -0.9449 0.4724, 0.5118 -0.9889 0.0394, 0.5118 -0.9449 0.0394, 0.5118 -1.0236 0.2362, 0.5118 -1.0236 0.5512, 0.5118 -0.9449 0.5512, -0.5118 -1.0236 0.5512, -0.5118 -0.9449 0.5512, -0.5118 -1.0236 0.2362, -0.5118 -0.9449 0.2362, -0.5118 -0.9449 0.4724, -0.5118 -0.9449 0.0394, -0.5118 -0.9889 0.0394, -0.1693 0.0001 0.0, -0.1535 0.0001 0.0, -0.1773 -0.022 0.0, -0.1535 -0.0224 0.0, -0.1888 -0.022 0.0, -0.9449 -0.0224 0.0, -0.1581 0.0568 0.0, -0.9449 0.0573 0.0, -0.1535 0.0573 0.0, -0.1368 0.0001 0.0, -0.1293 -0.022 0.0, -0.1149 -0.0224 0.0, -0.1178 -0.022 0.0, -0.1149 0.0573 0.0, -0.1475 0.0568 0.0, -0.1535 0.0568 0.0, 0.0167 0.2257 0.0, 0.0167 0.3959 0.0, 0.0306 0.3977 0.0, 0.7087 0.7087 0.0, 0.7087 0.691 0.0, 0.5906 0.7087 0.0, 0.6175 0.691 0.0, 0.6175 0.5512 0.0, 0.0591 0.4095 0.0, 0.0835 0.4283 0.0, 0.1023 0.4528 0.0, 0.1141 0.4812 0.0, 0.0306 0.6259 0.0, 0.0167 0.7874 0.0, 0.0591 0.6141 0.0, 0.5906 0.7874 0.0, 0.0835 0.5953 0.0, 0.1181 0.5118 0.0, 0.1141 0.5424 0.0, 0.1023 0.5709 0.0, -0.041 0.2257 0.0, -0.0306 0.3977 0.0, 0.0 0.3937 0.0, -0.1141 0.4812 0.0, -0.1023 0.4528 0.0, -0.1149 0.2257 0.0, -0.0835 0.4283 0.0, -0.0591 0.4095 0.0, -0.041 0.402 0.0, -0.1149 0.4874 0.0, -0.1535 0.2257 0.0, -0.1181 0.5118 0.0, -0.1149 0.7874 0.0, -0.0835 0.5953 0.0, -0.1023 0.5709 0.0, -0.041 0.7874 0.0, -0.041 0.6216 0.0, -0.0591 0.6141 0.0, -0.1141 0.5424 0.0, -0.1149 0.5362 0.0, -0.1535 0.7874 0.0, 0.0167 0.6277 0.0, 0.0 0.6299 0.0, -0.0306 0.6259 0.0, -0.9449 -0.5512 0.0, -0.9449 -0.4724 0.0, -0.6175 -0.5512 0.0, -0.8268 -0.4724 0.0, -0.8268 -0.2362 0.0, -0.5906 -0.7087 0.0, -0.7087 -0.7087 0.0, -0.7087 -0.691 0.0, -0.1535 -0.2083 0.0, -0.1535 -0.7087 0.0, -0.9449 -0.2362 0.0, -0.9449 -0.2083 0.0, -0.6175 -0.691 0.0, 0.7087 -0.691 0.0, 0.7087 -0.7087 0.0, 0.6175 -0.691 0.0, 0.5906 -0.7087 0.0, 0.9449 -0.2083 0.0, 0.9449 -0.2362 0.0, 0.8268 -0.2362 0.0, 0.0591 -0.6141 0.0, 0.0306 -0.6259 0.0, 0.0167 -0.7087 0.0, 0.0167 -0.6277 0.0, 0.0835 -0.5953 0.0, 0.1023 -0.5709 0.0, 0.1141 -0.5424 0.0, 0.6175 -0.5512 0.0, 0.1181 -0.5118 0.0, 0.1141 -0.4812 0.0, 0.1023 -0.4528 0.0, 0.0835 -0.4283 0.0, 0.9449 -0.4724 0.0, 0.9449 -0.5512 0.0, 0.8268 -0.4724 0.0, 0.0167 -0.2083 0.0, 0.0591 -0.4095 0.0, 0.0487 0.0573 0.0, 0.0429 0.0577 0.0, 0.9449 0.1969 0.0, 0.9449 0.0573 0.0, 0.8268 0.1969 0.0, 0.8268 0.2257 0.0, 0.8268 0.4331 0.0, 0.9449 0.4331 0.0, 0.9449 0.5512 0.0, -0.5906 0.7087 0.0, -0.5906 0.7874 0.0, -0.8268 0.1969 0.0, -0.8268 0.2257 0.0, -0.8268 0.4331 0.0, -0.9449 0.4331 0.0, -0.9449 0.5512 0.0, -0.6175 0.5512 0.0, -0.6175 0.691 0.0, -0.7087 0.691 0.0, -0.7087 0.7087 0.0, -0.041 -0.7087 0.0, -0.0306 -0.6259 0.0, 0.0 -0.6299 0.0, -0.1023 -0.5709 0.0, -0.0835 -0.5953 0.0, -0.1149 -0.7087 0.0, -0.0591 -0.6141 0.0, -0.041 -0.6216 0.0, -0.1149 -0.2083 0.0, -0.1149 -0.4874 0.0, -0.1181 -0.5118 0.0, -0.1149 -0.5362 0.0, -0.1141 -0.5424 0.0, -0.0835 -0.4283 0.0, -0.1023 -0.4528 0.0, -0.1141 -0.4812 0.0, 0.0306 -0.3977 0.0, 0.0167 -0.3959 0.0, 0.0 -0.3937 0.0, -0.0306 -0.3977 0.0, -0.041 -0.2083 0.0, -0.041 -0.402 0.0, -0.0591 -0.4095 0.0, 0.0243 -0.0179 0.0, 0.0167 -0.0224 0.0, 0.0243 -0.0092 0.0, 0.0167 0.0573 0.0, 0.0359 0.0573 0.0, 0.0334 0.0571 0.0, 0.0243 0.0546 0.0, 0.0243 0.0441 0.0, 0.0332 0.0479 0.0, 0.0257 -0.01 0.0, 0.0428 0.0491 0.0, 0.0505 0.0482 0.0, 0.0564 0.0461 0.0, 0.0619 0.0425 0.0, 0.0666 0.0372 0.0, 0.0723 0.0166 0.0, 0.0716 0.0081 0.0, 0.0694 0.0013 0.0, 0.0519 -0.0134 0.0, 0.0445 -0.0143 0.0, 0.0576 -0.0113 0.0, 0.0625 -0.0081 0.0, 0.0662 -0.0042 0.0, 0.0341 -0.0131 0.0, 0.0699 0.0311 0.0, 0.072 0.0227 0.0, 0.1194 0.0568 0.0, 0.1194 -0.0133 0.0, 0.0896 -0.0133 0.0, 0.0697 -0.0152 0.0, 0.0756 -0.009 0.0, 0.0896 -0.022 0.0, 0.0506 -0.0224 0.0, 0.13 -0.022 0.0, 0.0557 -0.0219 0.0, 0.0633 -0.0193 0.0, 0.0818 0.0271 0.0, 0.0788 0.036 0.0, 0.0741 0.0434 0.0, 0.067 0.0502 0.0, 0.0596 0.0545 0.0, 0.0798 -0.0015 0.0, 0.0822 0.0068 0.0, 0.0829 0.0159 0.0, 0.0327 -0.0213 0.0, 0.0407 -0.0224 0.0, 0.0438 -0.0229 0.0, 0.046 -0.0229 0.0, 0.0508 0.0571 0.0, 0.13 0.0568 0.0, 0.9449 -0.0224 0.0, -0.041 -0.0224 0.0, -0.0016 0.0481 0.0, -0.0016 0.0222 0.0, -0.0314 0.0481 0.0, -0.0294 0.0222 0.0, -0.041 0.0573 0.0, -0.0333 -0.0133 0.0, -0.0333 -0.022 0.0, 0.009 -0.022 0.0, -0.0016 0.0136 0.0, -0.0016 -0.0133 0.0, -0.0294 0.0136 0.0, -0.0314 0.0568 0.0, 0.009 0.0568 0.0, -0.1081 -0.0004 0.0, -0.1036 -0.0074 0.0, -0.0971 -0.0136 0.0, -0.0889 -0.0184 0.0, -0.0709 0.0568 0.0, -0.0822 0.0556 0.0, -0.0915 0.0523 0.0, -0.1 0.0466 0.0, -0.1001 0.0465 0.0, -0.1057 0.0403 0.0, -0.1093 0.0336 0.0, -0.0798 -0.0211 0.0, -0.0701 -0.022 0.0, -0.0486 -0.022 0.0, -0.0486 0.0568 0.0, -0.1114 0.0258 0.0, -0.112 0.0184 0.0, -0.1109 0.0079 0.0, -0.9449 0.1969 0.0, 0.7087 0.691 0.1969, 0.7087 0.7087 0.1969, 0.9449 0.7874 0.1969, 0.7087 0.7874 0.1969, 0.9449 -0.7874 0.1969, 0.7087 -0.7874 0.1969, 0.7087 -0.691 0.1969, 0.7087 -0.7087 0.1969, -0.9449 -0.7874 0.1969, -0.7087 -0.7874 0.1969, -0.9449 -0.2362 0.0787, -0.9449 0.7874 0.1969, -0.9449 0.5512 0.1969, -0.9449 -0.4724 0.0787, -0.9449 -0.5512 0.1969, -0.9449 0.4331 0.0787, -0.9449 0.1969 0.0787, -0.9449 -0.1969 0.3937, -0.9449 0.1969 0.3937, -0.7087 0.7874 0.1969, 0.9449 0.1969 0.0787, 0.9449 -0.5512 0.1969, 0.9449 0.4331 0.0787, 0.9449 0.5512 0.1969, 0.9449 -0.1969 0.3937, 0.9449 -0.2362 0.0787, 0.9449 -0.4724 0.0787, 0.9449 0.1969 0.3937, -0.8661 0.1969 0.3937, -0.8661 -0.1969 0.3937, 0.8661 0.1969 0.3937, 0.8661 -0.1969 0.3937, 0.6175 -0.5512 0.1969, 0.6175 -0.691 0.1969, 0.6175 0.691 0.1969, 0.6175 0.5512 0.1969, -0.7087 -0.7087 0.1969, -0.7087 -0.691 0.1969, -0.6175 -0.691 0.1969, -0.6175 -0.5512 0.1969, -0.6175 0.5512 0.1969, -0.6175 0.691 0.1969, -0.7087 0.691 0.1969, -0.7087 0.7087 0.1969
            ]
        }
        coordIndex [
            0,1,2,-1,2,1,3,-1,1,4,3,-1,3,4,5,-1,4,6,5,-1,5,6,7,-1,6,8,7,-1,7,8,9,-1,8,10,9,-1,9,10,11,-1,10,12,11,-1,11,12,13,-1,12,14,13,-1,13,14,15,-1,14,0,15,-1,15,0,2,-1,8,6,10,-1,10,6,4,-1,10,4,12,-1,12,4,1,-1,12,1,14,-1,14,1,0,-1,16,17,18,-1,18,17,19,-1,18,19,20,-1,21,22,23,-1,22,21,24,-1,24,21,25,-1,24,25,26,-1,23,27,21,-1,21,27,28,-1,21,28,16,-1,16,28,29,-1,16,29,17,-1,30,31,32,-1,33,34,35,-1,35,34,36,-1,37,38,39,-1,39,38,40,-1,39,40,36,-1,36,40,41,-1,42,43,44,-1,44,43,45,-1,44,45,46,-1,46,45,35,-1,46,35,32,-1,32,35,36,-1,32,36,30,-1,30,36,47,-1,30,47,48,-1,20,19,49,-1,49,19,50,-1,51,52,53,-1,53,52,54,-1,53,54,55,-1,24,26,56,-1,56,26,57,-1,54,56,55,-1,55,56,57,-1,55,57,41,-1,41,57,49,-1,41,49,36,-1,36,49,50,-1,36,50,47,-1,16,18,58,-1,58,18,59,-1,60,61,62,-1,62,61,58,-1,62,58,63,-1,63,58,59,-1,63,59,64,-1,65,63,66,-1,66,63,64,-1,67,65,66,-1,21,68,25,-1,25,68,69,-1,70,71,68,-1,68,71,67,-1,68,67,69,-1,69,67,66,-1,72,73,74,-1,74,73,75,-1,74,75,76,-1,76,75,77,-1,76,77,78,-1,78,77,79,-1,78,79,80,-1,73,81,75,-1,75,81,82,-1,75,82,83,-1,83,82,84,-1,83,84,85,-1,85,84,86,-1,85,86,80,-1,80,86,87,-1,80,87,78,-1,88,89,90,-1,91,92,93,-1,93,92,94,-1,93,94,88,-1,88,94,95,-1,90,96,88,-1,88,96,97,-1,88,97,93,-1,93,97,98,-1,93,98,99,-1,100,101,102,-1,102,101,103,-1,102,103,104,-1,99,105,93,-1,93,105,106,-1,93,106,103,-1,103,106,107,-1,103,107,104,-1,108,109,88,-1,88,109,110,-1,88,110,89,-1,111,112,113,-1,112,114,113,-1,113,114,115,-1,113,115,108,-1,108,115,116,-1,108,116,109,-1,111,113,117,-1,117,113,118,-1,117,118,119,-1,120,121,122,-1,123,124,120,-1,120,124,125,-1,120,125,121,-1,122,126,120,-1,120,126,127,-1,120,127,128,-1,100,129,101,-1,101,129,130,-1,101,130,123,-1,123,130,131,-1,123,131,124,-1,132,133,134,-1,134,133,135,-1,134,135,136,-1,137,138,139,-1,140,141,137,-1,142,143,136,-1,136,143,140,-1,136,140,134,-1,134,140,137,-1,134,137,144,-1,144,137,139,-1,145,146,147,-1,147,146,148,-1,149,150,151,-1,152,148,153,-1,153,148,154,-1,153,154,155,-1,152,156,148,-1,148,156,157,-1,148,157,147,-1,147,157,158,-1,147,158,159,-1,159,158,160,-1,160,161,159,-1,159,161,162,-1,159,162,163,-1,164,165,166,-1,166,165,159,-1,166,159,167,-1,167,159,163,-1,167,163,168,-1,169,170,88,-1,171,172,173,-1,173,172,169,-1,173,169,174,-1,174,169,88,-1,174,88,175,-1,175,88,95,-1,175,95,176,-1,176,95,177,-1,178,179,128,-1,180,181,118,-1,118,181,182,-1,183,184,182,-1,182,184,185,-1,182,185,118,-1,118,185,186,-1,187,188,186,-1,186,188,178,-1,186,178,118,-1,118,178,128,-1,118,128,119,-1,119,128,127,-1,189,190,154,-1,154,190,191,-1,154,191,155,-1,192,193,194,-1,194,193,195,-1,194,195,189,-1,189,195,196,-1,189,196,190,-1,197,198,140,-1,140,198,199,-1,140,199,141,-1,141,199,200,-1,141,200,194,-1,194,200,201,-1,194,201,192,-1,202,203,197,-1,197,203,204,-1,197,204,198,-1,168,205,167,-1,167,205,206,-1,167,206,207,-1,207,208,209,-1,209,208,210,-1,209,210,197,-1,197,210,211,-1,197,211,202,-1,212,213,214,-1,214,213,215,-1,215,216,217,-1,217,218,215,-1,215,218,219,-1,215,219,214,-1,214,219,220,-1,214,220,221,-1,221,220,222,-1,221,222,223,-1,223,224,221,-1,221,224,225,-1,221,225,226,-1,227,228,221,-1,221,228,229,-1,230,231,232,-1,232,231,233,-1,229,234,221,-1,221,234,233,-1,221,233,235,-1,235,233,231,-1,226,236,221,-1,221,236,237,-1,221,237,227,-1,238,239,240,-1,241,242,243,-1,244,243,245,-1,243,242,240,-1,244,246,243,-1,243,246,247,-1,243,247,241,-1,248,249,238,-1,249,250,238,-1,238,250,251,-1,238,251,252,-1,242,253,240,-1,240,253,254,-1,240,254,238,-1,238,254,255,-1,238,255,248,-1,212,256,213,-1,213,256,257,-1,213,257,167,-1,257,258,167,-1,167,258,259,-1,167,259,244,-1,252,260,238,-1,238,260,169,-1,238,169,261,-1,261,169,172,-1,261,172,245,-1,245,172,262,-1,245,262,244,-1,244,262,149,-1,244,149,167,-1,167,149,151,-1,167,151,166,-1,22,137,23,-1,23,137,141,-1,23,141,27,-1,27,141,194,-1,27,194,28,-1,28,194,189,-1,28,189,29,-1,29,189,154,-1,29,154,17,-1,17,154,148,-1,143,77,140,-1,140,77,75,-1,140,75,197,-1,197,75,83,-1,197,83,209,-1,209,83,263,-1,264,265,266,-1,266,265,267,-1,268,269,263,-1,263,269,270,-1,263,270,271,-1,272,273,274,-1,274,273,269,-1,267,274,266,-1,266,274,269,-1,266,269,275,-1,275,269,268,-1,275,268,215,-1,207,209,167,-1,167,209,263,-1,167,263,213,-1,213,263,271,-1,213,271,215,-1,215,271,276,-1,215,276,275,-1,277,278,83,-1,83,278,279,-1,83,279,280,-1,281,85,268,-1,281,282,85,-1,85,282,283,-1,85,283,284,-1,284,285,85,-1,85,285,286,-1,85,286,287,-1,280,288,83,-1,83,288,289,-1,83,289,263,-1,263,289,290,-1,263,290,268,-1,268,290,291,-1,268,291,281,-1,287,292,85,-1,85,292,293,-1,85,293,83,-1,83,293,294,-1,83,294,277,-1,170,216,88,-1,88,216,215,-1,88,215,108,-1,108,215,268,-1,108,268,113,-1,113,268,85,-1,113,85,118,-1,118,85,80,-1,118,80,180,-1,180,80,79,-1,180,79,295,-1,123,34,101,-1,101,34,33,-1,101,33,103,-1,123,120,34,-1,34,120,128,-1,34,128,179,-1,296,92,297,-1,297,92,91,-1,42,298,43,-1,43,298,299,-1,300,30,301,-1,301,30,48,-1,145,302,146,-1,146,302,303,-1,51,304,52,-1,52,304,305,-1,143,142,306,-1,38,307,308,-1,133,132,309,-1,309,132,310,-1,184,183,308,-1,308,183,311,-1,311,312,308,-1,308,312,306,-1,308,306,38,-1,312,295,79,-1,304,51,310,-1,310,51,53,-1,310,53,309,-1,309,53,313,-1,309,313,306,-1,306,313,314,-1,306,314,38,-1,38,314,40,-1,312,79,306,-1,306,79,77,-1,306,77,143,-1,307,38,315,-1,315,38,37,-1,172,171,316,-1,317,165,164,-1,176,177,318,-1,318,177,319,-1,30,300,31,-1,31,300,317,-1,31,317,320,-1,321,150,149,-1,164,322,317,-1,317,322,321,-1,317,321,320,-1,320,321,149,-1,320,149,262,-1,262,172,320,-1,320,172,316,-1,320,316,323,-1,323,316,318,-1,323,318,44,-1,44,318,319,-1,44,319,42,-1,42,319,298,-1,71,70,60,-1,60,70,61,-1,62,63,67,-1,67,63,65,-1,314,324,40,-1,40,324,41,-1,324,325,41,-1,41,325,55,-1,325,313,55,-1,55,313,53,-1,325,324,313,-1,313,324,314,-1,326,323,46,-1,46,323,44,-1,320,327,31,-1,31,327,32,-1,327,326,32,-1,32,326,46,-1,327,320,326,-1,326,320,323,-1,317,328,165,-1,165,328,159,-1,328,329,159,-1,159,329,147,-1,329,302,147,-1,147,302,145,-1,329,328,302,-1,302,328,317,-1,302,317,303,-1,303,317,300,-1,303,300,301,-1,296,330,92,-1,92,330,94,-1,330,331,94,-1,94,331,95,-1,331,319,95,-1,95,319,177,-1,331,330,319,-1,319,330,296,-1,319,296,298,-1,298,296,297,-1,298,297,299,-1,332,333,138,-1,138,333,139,-1,333,334,139,-1,139,334,144,-1,334,335,144,-1,144,335,134,-1,335,310,134,-1,134,310,132,-1,335,334,310,-1,310,334,333,-1,310,333,304,-1,304,333,332,-1,304,332,305,-1,308,336,184,-1,184,336,185,-1,336,337,185,-1,185,337,186,-1,337,338,186,-1,186,338,187,-1,188,187,339,-1,339,187,338,-1,337,336,338,-1,338,336,308,-1,338,308,339,-1,339,308,307,-1,339,307,315,-1,54,52,332,-1,332,52,305,-1,56,137,24,-1,24,137,22,-1,56,54,137,-1,137,54,332,-1,137,332,138,-1,47,303,48,-1,48,303,301,-1,148,50,17,-1,17,50,19,-1,47,50,303,-1,303,50,148,-1,303,148,146,-1,68,58,70,-1,70,58,61,-1,16,58,21,-1,21,58,68,-1,39,339,37,-1,37,339,315,-1,178,36,179,-1,179,36,34,-1,39,36,339,-1,339,36,178,-1,339,178,188,-1,35,93,33,-1,33,93,103,-1,45,43,297,-1,297,43,299,-1,35,45,93,-1,93,45,297,-1,93,297,91,-1,
        ]
    }
}
Shape{
    appearance Appearance {
        material  Material 	{
            diffuseColor 0.8 0.8 0.8
            specularColor 1.0 1.0 1.0
            ambientIntensity 1.0
            transparency 0.0
            shininess 0.5
        }
    }
    geometry IndexedFaceSet {
        ccw TRUE
        solid FALSE
        coord DEF co Coordinate {
            point [
                0.8268 0.4331 0.0787, 0.8268 0.4331 0.0, 0.9449 0.4331 0.0787, 0.9449 0.4331 0.0, 0.8268 0.2257 0.0, 0.8268 0.1969 0.0787, 0.8268 0.1969 0.0, 0.9449 0.1969 0.0, 0.9449 0.1969 0.0787, 0.8268 -0.2362 0.0787, 0.8268 -0.2362 0.0, 0.9449 -0.2362 0.0787, 0.9449 -0.2362 0.0, 0.8268 -0.4724 0.0787, 0.8268 -0.4724 0.0, 0.9449 -0.4724 0.0, 0.9449 -0.4724 0.0787, -0.8268 0.1969 0.0, -0.8268 0.1969 0.0787, -0.8268 0.2257 0.0, -0.8268 0.4331 0.0787, -0.8268 0.4331 0.0, -0.9449 0.4331 0.0, -0.9449 0.4331 0.0787, -0.9449 0.1969 0.0787, -0.9449 0.1969 0.0, -0.8268 -0.4724 0.0787, -0.8268 -0.2362 0.0787, -0.8268 -0.4724 0.0, -0.8268 -0.2362 0.0, -0.9449 -0.2362 0.0, -0.9449 -0.2362 0.0787, -0.9449 -0.4724 0.0787, -0.9449 -0.4724 0.0
            ]
        }
        coordIndex [
            0,1,2,-1,2,1,3,-1,1,0,4,-1,4,0,5,-1,4,5,6,-1,6,5,7,-1,7,5,8,-1,0,2,5,-1,5,2,8,-1,9,10,11,-1,11,10,12,-1,9,13,10,-1,10,13,14,-1,14,13,15,-1,15,13,16,-1,9,11,13,-1,13,11,16,-1,17,18,19,-1,19,18,20,-1,19,20,21,-1,21,20,22,-1,22,20,23,-1,18,17,24,-1,24,17,25,-1,18,24,20,-1,20,24,23,-1,26,27,28,-1,28,27,29,-1,29,27,30,-1,30,27,31,-1,26,28,32,-1,32,28,33,-1,26,32,27,-1,27,32,31,-1,
        ]
    }
}
Shape{
    appearance Appearance {
        material  Material 	{
            diffuseColor 0.3254901960784314 0.3254901960784314 0.4117647058823529
            specularColor 0.1607843137254902 0.1607843137254902 0.20392156862745098
            ambientIntensity 0.3353
            transparency 0.0
            shininess 0.5
        }
    }
    geometry IndexedFaceSet {
        ccw TRUE
        solid FALSE
        coord DEF co Coordinate {
            point [
                0.1173 0.4981 -0.1181, 0.1181 0.5118 0.0, 0.1141 0.4812 0.0, 0.1023 0.4528 0.0, 0.111 0.4714 -0.1181, 0.1134 0.4814 -0.1181, 0.0835 0.4283 0.0, 0.0987 0.4469 -0.1181, 0.1018 0.453 -0.1181, 0.0591 0.4095 0.0, 0.0811 0.4259 -0.1181, 0.0832 0.4285 -0.1181, 0.0 0.3937 0.0, 0.0069 0.3939 -0.1181, 0.0167 0.3959 0.0, 0.0305 0.3981 -0.1181, 0.0306 0.3977 0.0, 0.0339 0.3987 -0.1181, 0.0591 0.4095 -0.1181, -0.0306 0.3977 0.0, -0.0205 0.3955 -0.1181, 0.0 0.3943 -0.1181, -0.0835 0.4283 0.0, -0.0705 0.4171 -0.1181, -0.0591 0.4095 0.0, -0.0587 0.4102 -0.1181, -0.041 0.402 0.0, -0.0468 0.4034 -0.1181, -0.0304 0.3984 -0.1181, -0.1023 0.4528 0.0, -0.0905 0.4359 -0.1181, -0.083 0.4288 -0.1181, -0.1141 0.4812 0.0, -0.1055 0.4588 -0.1181, -0.1018 0.4531 -0.1181, -0.1023 0.5709 0.0, -0.1055 0.5648 -0.1181, -0.1141 0.5424 0.0, -0.1138 0.5423 -0.1181, -0.1149 0.5362 0.0, -0.1149 0.539 -0.1181, -0.1181 0.5118 0.0, -0.1181 0.5118 -0.1181, -0.1149 0.4874 0.0, -0.1149 0.4846 -0.1181, -0.1138 0.4814 -0.1181, -0.0835 0.5953 0.0, -0.0905 0.5877 -0.1181, -0.1018 0.5705 -0.1181, -0.0591 0.6141 0.0, -0.0705 0.6066 -0.1181, -0.083 0.5948 -0.1181, 0.0 0.6299 0.0, -0.0205 0.6281 -0.1181, -0.0306 0.6259 0.0, -0.0304 0.6252 -0.1181, -0.041 0.6216 0.0, -0.0468 0.6203 -0.1181, -0.0587 0.6134 -0.1181, 0.0591 0.6141 0.0, 0.0339 0.625 -0.1181, 0.0306 0.6259 0.0, 0.0305 0.6256 -0.1181, 0.0167 0.6277 0.0, 0.0069 0.6297 -0.1181, 0.0 0.6293 -0.1181, 0.0835 0.5953 0.0, 0.0811 0.5977 -0.1181, 0.0591 0.6141 -0.1181, 0.1023 0.5709 0.0, 0.0987 0.5767 -0.1181, 0.0832 0.5951 -0.1181, 0.1141 0.5424 0.0, 0.111 0.5522 -0.1181, 0.1018 0.5706 -0.1181, 0.1173 0.5118 -0.1181, 0.1173 0.5255 -0.1181, 0.1134 0.5422 -0.1181, -0.0352 0.5295 -0.1968, -0.0302 0.5371 -0.1968, -0.0302 0.4865 -0.1968, -0.0235 0.4802 -0.1968, -0.0235 0.5434 -0.1968, -0.0156 0.548 -0.1968, -0.0068 0.5506 -0.1968, 0.0023 0.5511 -0.1968, 0.0113 0.5495 -0.1968, 0.0197 0.5459 -0.1968, 0.0023 0.4725 -0.1968, 0.0113 0.4741 -0.1968, 0.0197 0.4777 -0.1968, -0.0068 0.473 -0.1968, -0.0156 0.4757 -0.1968, -0.0352 0.4941 -0.1968, -0.0383 0.5027 -0.1968, 0.0329 0.4902 -0.1968, 0.0329 0.5334 -0.1968, 0.037 0.5253 -0.1968, 0.027 0.5404 -0.1968, 0.027 0.4832 -0.1968, -0.0394 0.5118 -0.1968, -0.0383 0.5209 -0.1968, 0.0391 0.5164 -0.1968, 0.0391 0.5072 -0.1968, 0.037 0.4983 -0.1968, 0.1173 -0.5255 -0.1181, 0.1181 -0.5118 0.0, 0.1141 -0.5424 0.0, 0.1023 -0.5709 0.0, 0.111 -0.5522 -0.1181, 0.1134 -0.5422 -0.1181, 0.0835 -0.5953 0.0, 0.0987 -0.5767 -0.1181, 0.1018 -0.5706 -0.1181, 0.0591 -0.6141 0.0, 0.0811 -0.5977 -0.1181, 0.0832 -0.5951 -0.1181, 0.0 -0.6299 0.0, 0.0069 -0.6297 -0.1181, 0.0167 -0.6277 0.0, 0.0305 -0.6256 -0.1181, 0.0306 -0.6259 0.0, 0.0339 -0.625 -0.1181, 0.0591 -0.6141 -0.1181, -0.0306 -0.6259 0.0, -0.0205 -0.6281 -0.1181, 0.0 -0.6293 -0.1181, -0.0835 -0.5953 0.0, -0.0705 -0.6065 -0.1181, -0.0591 -0.6141 0.0, -0.0587 -0.6134 -0.1181, -0.041 -0.6216 0.0, -0.0468 -0.6203 -0.1181, -0.0304 -0.6252 -0.1181, -0.1023 -0.5709 0.0, -0.0905 -0.5877 -0.1181, -0.083 -0.5948 -0.1181, -0.1141 -0.5424 0.0, -0.1055 -0.5648 -0.1181, -0.1018 -0.5705 -0.1181, -0.1023 -0.4528 0.0, -0.1055 -0.4588 -0.1181, -0.1141 -0.4812 0.0, -0.1138 -0.4814 -0.1181, -0.1149 -0.4874 0.0, -0.1149 -0.4846 -0.1181, -0.1181 -0.5118 0.0, -0.1181 -0.5118 -0.1181, -0.1149 -0.5362 0.0, -0.1149 -0.539 -0.1181, -0.1138 -0.5423 -0.1181, -0.0835 -0.4283 0.0, -0.0905 -0.4359 -0.1181, -0.1018 -0.4531 -0.1181, -0.0591 -0.4095 0.0, -0.0705 -0.4171 -0.1181, -0.083 -0.4288 -0.1181, 0.0 -0.3937 0.0, -0.0205 -0.3955 -0.1181, -0.0306 -0.3977 0.0, -0.0304 -0.3984 -0.1181, -0.041 -0.402 0.0, -0.0468 -0.4034 -0.1181, -0.0587 -0.4102 -0.1181, 0.0591 -0.4095 0.0, 0.0339 -0.3987 -0.1181, 0.0306 -0.3977 0.0, 0.0305 -0.3981 -0.1181, 0.0167 -0.3959 0.0, 0.0069 -0.3939 -0.1181, 0.0 -0.3943 -0.1181, 0.0835 -0.4283 0.0, 0.0811 -0.4259 -0.1181, 0.0591 -0.4095 -0.1181, 0.1023 -0.4528 0.0, 0.0987 -0.4469 -0.1181, 0.0832 -0.4285 -0.1181, 0.1141 -0.4812 0.0, 0.111 -0.4714 -0.1181, 0.1018 -0.453 -0.1181, 0.1173 -0.5118 -0.1181, 0.1173 -0.4981 -0.1181, 0.1134 -0.4814 -0.1181, -0.0352 -0.4941 -0.1968, -0.0302 -0.4865 -0.1968, -0.0302 -0.5371 -0.1968, -0.0235 -0.5434 -0.1968, -0.0235 -0.4802 -0.1968, -0.0156 -0.4757 -0.1968, -0.0068 -0.473 -0.1968, 0.0023 -0.4725 -0.1968, 0.0113 -0.4741 -0.1968, 0.0197 -0.4777 -0.1968, 0.0023 -0.5511 -0.1968, 0.0113 -0.5495 -0.1968, 0.0197 -0.5459 -0.1968, -0.0068 -0.5506 -0.1968, -0.0156 -0.548 -0.1968, -0.0352 -0.5295 -0.1968, -0.0383 -0.5209 -0.1968, 0.0329 -0.5334 -0.1968, 0.0329 -0.4902 -0.1968, 0.037 -0.4983 -0.1968, 0.027 -0.4832 -0.1968, 0.027 -0.5404 -0.1968, -0.0394 -0.5118 -0.1968, -0.0383 -0.5027 -0.1968, 0.0391 -0.5072 -0.1968, 0.0391 -0.5164 -0.1968, 0.037 -0.5253 -0.1968, -0.0457 -0.4058 -0.1385, -0.02 -0.3981 -0.1385, 0.0067 -0.3966 -0.1385, 0.1085 -0.4723 -0.1385, 0.1146 -0.4984 -0.1385, 0.1085 -0.5513 -0.1385, 0.0964 -0.5752 -0.1385, -0.02 -0.6255 -0.1385, -0.0457 -0.6178 -0.1385, -0.0884 -0.586 -0.1385, 0.0299 -0.4601 -0.1942, 0.0171 -0.4546 -0.1942, 0.0226 -0.4364 -0.1863, -0.0581 -0.498 -0.1942, -0.0534 -0.485 -0.1942, -0.0458 -0.4734 -0.1942, -0.0357 -0.4639 -0.1942, 0.0055 -0.4169 -0.1738, 0.0046 -0.4332 -0.1863, 0.0035 -0.4522 -0.1942, -0.0187 -0.4059 -0.1575, -0.0165 -0.4182 -0.1738, -0.0137 -0.4343 -0.1863, -0.0104 -0.453 -0.1942, -0.1047 -0.5366 -0.1575, -0.1076 -0.5118 -0.1575, -0.095 -0.5118 -0.1738, -0.0426 -0.413 -0.1575, -0.0376 -0.4245 -0.1738, -0.0312 -0.4395 -0.1863, -0.0237 -0.4569 -0.1942, -0.1154 -0.5118 -0.1385, -0.1123 -0.5384 -0.1385, -0.1031 -0.5636 -0.1385, -0.0597 -0.5118 -0.1942, -0.0581 -0.5256 -0.1942, -0.0766 -0.53 -0.1863, -0.0704 -0.5471 -0.1863, -0.0849 -0.5545 -0.1738, -0.0728 -0.5729 -0.1738, -0.0824 -0.5809 -0.1575, -0.0642 -0.5981 -0.1575, -0.0689 -0.6044 -0.1385, -0.0458 -0.5502 -0.1942, -0.0357 -0.5597 -0.1942, -0.047 -0.575 -0.1863, -0.0312 -0.5841 -0.1863, -0.0376 -0.5991 -0.1738, -0.0165 -0.6054 -0.1738, -0.0187 -0.6177 -0.1575, 0.0063 -0.6192 -0.1575, 0.0067 -0.627 -0.1385, 0.0331 -0.6224 -0.1385, -0.0237 -0.5667 -0.1942, -0.0104 -0.5707 -0.1942, -0.0137 -0.5894 -0.1863, 0.0046 -0.5904 -0.1863, 0.0055 -0.6067 -0.1738, 0.0273 -0.6029 -0.1738, 0.0308 -0.6149 -0.1575, 0.0538 -0.605 -0.1575, 0.0577 -0.6118 -0.1385, 0.0792 -0.5958 -0.1385, 0.0299 -0.5636 -0.1942, 0.041 -0.5553 -0.1942, 0.054 -0.5691 -0.1863, 0.0658 -0.5551 -0.1863, 0.0794 -0.564 -0.1738, 0.0893 -0.5443 -0.1738, 0.1011 -0.5486 -0.1575, 0.1068 -0.5243 -0.1575, 0.1146 -0.5252 -0.1385, 0.0561 -0.5322 -0.1942, 0.0593 -0.5187 -0.1942, 0.0782 -0.521 -0.1863, 0.0782 -0.5027 -0.1863, 0.0944 -0.5008 -0.1738, 0.0893 -0.4793 -0.1738, 0.1011 -0.475 -0.1575, 0.0899 -0.4527 -0.1575, 0.0964 -0.4484 -0.1385, 0.0792 -0.4279 -0.1385, 0.0593 -0.5049 -0.1942, 0.0561 -0.4914 -0.1942, 0.074 -0.4849 -0.1863, 0.0658 -0.4685 -0.1863, 0.0794 -0.4596 -0.1738, 0.0652 -0.4427 -0.1738, 0.0738 -0.4336 -0.1575, 0.0538 -0.4187 -0.1575, 0.0577 -0.4118 -0.1385, 0.0331 -0.4012 -0.1385, -0.0961 -0.5601 -0.1575, -0.0925 -0.5337 -0.1738, -0.0787 -0.5118 -0.1863, -0.0426 -0.6106 -0.1575, -0.0568 -0.5881 -0.1738, -0.0603 -0.5624 -0.1863, -0.0534 -0.5386 -0.1942, 0.0738 -0.59 -0.1575, 0.0475 -0.5941 -0.1738, 0.0226 -0.5872 -0.1863, 0.0035 -0.5715 -0.1942, 0.0899 -0.5709 -0.1575, 0.0652 -0.5809 -0.1738, 0.0394 -0.58 -0.1863, 0.0171 -0.5691 -0.1942, 0.1068 -0.4993 -0.1575, 0.0944 -0.5228 -0.1738, 0.074 -0.5387 -0.1863, 0.0499 -0.5446 -0.1942, 0.0308 -0.4088 -0.1575, 0.0475 -0.4295 -0.1738, 0.054 -0.4545 -0.1863, 0.0499 -0.479 -0.1942, 0.0063 -0.4044 -0.1575, 0.0273 -0.4208 -0.1738, 0.0394 -0.4436 -0.1863, 0.041 -0.4684 -0.1942, -0.047 -0.4487 -0.1863, -0.0568 -0.4356 -0.1738, -0.0642 -0.4255 -0.1575, -0.0689 -0.4192 -0.1385, -0.0884 -0.4376 -0.1385, -0.0603 -0.4612 -0.1863, -0.0728 -0.4507 -0.1738, -0.0824 -0.4427 -0.1575, -0.1031 -0.46 -0.1385, -0.0704 -0.4765 -0.1863, -0.0849 -0.4692 -0.1738, -0.0961 -0.4635 -0.1575, -0.1123 -0.4852 -0.1385, -0.0766 -0.4937 -0.1863, -0.0925 -0.4899 -0.1738, -0.1047 -0.487 -0.1575, -0.0457 0.6178 -0.1385, -0.02 0.6255 -0.1385, 0.0067 0.627 -0.1385, 0.1085 0.5513 -0.1385, 0.1146 0.5252 -0.1385, 0.1085 0.4723 -0.1385, 0.0964 0.4484 -0.1385, -0.02 0.3981 -0.1385, -0.0457 0.4058 -0.1385, -0.0884 0.4376 -0.1385, 0.0299 0.5636 -0.1942, 0.0171 0.5691 -0.1942, 0.0226 0.5872 -0.1863, -0.0581 0.5256 -0.1942, -0.0534 0.5386 -0.1942, -0.0458 0.5502 -0.1942, -0.0357 0.5597 -0.1942, 0.0055 0.6067 -0.1738, 0.0046 0.5904 -0.1863, 0.0035 0.5715 -0.1942, -0.0187 0.6177 -0.1575, -0.0165 0.6054 -0.1738, -0.0137 0.5894 -0.1863, -0.0104 0.5707 -0.1942, -0.1047 0.487 -0.1575, -0.1076 0.5118 -0.1575, -0.095 0.5118 -0.1738, -0.0426 0.6106 -0.1575, -0.0376 0.5991 -0.1738, -0.0312 0.5841 -0.1863, -0.0237 0.5667 -0.1942, -0.1154 0.5118 -0.1385, -0.1123 0.4852 -0.1385, -0.1031 0.46 -0.1385, -0.0597 0.5118 -0.1942, -0.0581 0.498 -0.1942, -0.0766 0.4937 -0.1863, -0.0704 0.4765 -0.1863, -0.0849 0.4692 -0.1738, -0.0728 0.4507 -0.1738, -0.0824 0.4427 -0.1575, -0.0642 0.4255 -0.1575, -0.0689 0.4192 -0.1385, -0.0458 0.4734 -0.1942, -0.0357 0.4639 -0.1942, -0.047 0.4487 -0.1863, -0.0312 0.4395 -0.1863, -0.0376 0.4245 -0.1738, -0.0165 0.4182 -0.1738, -0.0187 0.4059 -0.1575, 0.0063 0.4044 -0.1575, 0.0067 0.3966 -0.1385, 0.0331 0.4012 -0.1385, -0.0237 0.4569 -0.1942, -0.0104 0.453 -0.1942, -0.0137 0.4343 -0.1863, 0.0046 0.4332 -0.1863, 0.0055 0.4169 -0.1738, 0.0273 0.4208 -0.1738, 0.0308 0.4088 -0.1575, 0.0538 0.4187 -0.1575, 0.0577 0.4118 -0.1385, 0.0792 0.4279 -0.1385, 0.0299 0.4601 -0.1942, 0.041 0.4684 -0.1942, 0.054 0.4545 -0.1863, 0.0658 0.4685 -0.1863, 0.0794 0.4596 -0.1738, 0.0893 0.4793 -0.1738, 0.1011 0.475 -0.1575, 0.1068 0.4993 -0.1575, 0.1146 0.4984 -0.1385, 0.0561 0.4914 -0.1942, 0.0593 0.5049 -0.1942, 0.0782 0.5027 -0.1863, 0.0782 0.521 -0.1863, 0.0944 0.5228 -0.1738, 0.0893 0.5443 -0.1738, 0.1011 0.5486 -0.1575, 0.0899 0.5709 -0.1575, 0.0964 0.5752 -0.1385, 0.0792 0.5958 -0.1385, 0.0593 0.5187 -0.1942, 0.0561 0.5322 -0.1942, 0.074 0.5387 -0.1863, 0.0658 0.5551 -0.1863, 0.0794 0.564 -0.1738, 0.0652 0.5809 -0.1738, 0.0738 0.59 -0.1575, 0.0538 0.605 -0.1575, 0.0577 0.6118 -0.1385, 0.0331 0.6224 -0.1385, -0.0961 0.4635 -0.1575, -0.0925 0.4899 -0.1738, -0.0787 0.5118 -0.1863, -0.0426 0.413 -0.1575, -0.0568 0.4356 -0.1738, -0.0603 0.4612 -0.1863, -0.0534 0.485 -0.1942, 0.0738 0.4336 -0.1575, 0.0475 0.4295 -0.1738, 0.0226 0.4364 -0.1863, 0.0035 0.4522 -0.1942, 0.0899 0.4527 -0.1575, 0.0652 0.4427 -0.1738, 0.0394 0.4436 -0.1863, 0.0171 0.4546 -0.1942, 0.1068 0.5243 -0.1575, 0.0944 0.5008 -0.1738, 0.074 0.4849 -0.1863, 0.0499 0.479 -0.1942, 0.0308 0.6149 -0.1575, 0.0475 0.5941 -0.1738, 0.054 0.5691 -0.1863, 0.0499 0.5446 -0.1942, 0.0063 0.6192 -0.1575, 0.0273 0.6029 -0.1738, 0.0394 0.58 -0.1863, 0.041 0.5553 -0.1942, -0.047 0.575 -0.1863, -0.0568 0.5881 -0.1738, -0.0642 0.5981 -0.1575, -0.0689 0.6044 -0.1385, -0.0884 0.586 -0.1385, -0.0603 0.5624 -0.1863, -0.0728 0.5729 -0.1738, -0.0824 0.581 -0.1575, -0.1031 0.5636 -0.1385, -0.0704 0.5471 -0.1863, -0.0849 0.5545 -0.1738, -0.0961 0.5601 -0.1575, -0.1123 0.5384 -0.1385, -0.0766 0.53 -0.1863, -0.0925 0.5337 -0.1738, -0.1047 0.5366 -0.1575
            ]
        }
        coordIndex [
            0,1,2,-1,3,4,2,-1,2,4,5,-1,2,5,0,-1,6,7,3,-1,3,7,8,-1,3,8,4,-1,9,10,6,-1,6,10,11,-1,6,11,7,-1,12,13,14,-1,14,13,15,-1,14,15,16,-1,16,15,17,-1,16,17,9,-1,9,17,18,-1,9,18,10,-1,19,20,12,-1,12,20,21,-1,12,21,13,-1,22,23,24,-1,24,23,25,-1,24,25,26,-1,26,25,27,-1,26,27,19,-1,19,27,28,-1,19,28,20,-1,29,30,22,-1,22,30,31,-1,22,31,23,-1,32,33,29,-1,29,33,34,-1,29,34,30,-1,35,36,37,-1,37,36,38,-1,37,38,39,-1,39,38,40,-1,39,40,41,-1,41,40,42,-1,41,42,43,-1,43,42,44,-1,43,44,32,-1,32,44,45,-1,32,45,33,-1,46,47,35,-1,35,47,48,-1,35,48,36,-1,49,50,46,-1,46,50,51,-1,46,51,47,-1,52,53,54,-1,54,53,55,-1,54,55,56,-1,56,55,57,-1,56,57,49,-1,49,57,58,-1,49,58,50,-1,59,60,61,-1,61,60,62,-1,61,62,63,-1,63,62,64,-1,63,64,52,-1,52,64,65,-1,52,65,53,-1,66,67,59,-1,59,67,68,-1,59,68,60,-1,69,70,66,-1,66,70,71,-1,66,71,67,-1,72,73,69,-1,69,73,74,-1,69,74,70,-1,0,75,1,-1,1,75,76,-1,1,76,72,-1,72,76,77,-1,72,77,73,-1,78,79,80,-1,80,79,81,-1,79,82,81,-1,81,82,83,-1,81,83,84,-1,84,85,81,-1,81,85,86,-1,81,86,87,-1,88,87,89,-1,89,87,90,-1,88,91,87,-1,87,91,92,-1,87,92,81,-1,80,93,94,-1,95,96,97,-1,87,98,90,-1,90,98,96,-1,90,96,99,-1,99,96,95,-1,94,100,80,-1,80,100,101,-1,80,101,78,-1,102,103,97,-1,97,103,104,-1,97,104,95,-1,105,106,107,-1,108,109,107,-1,107,109,110,-1,107,110,105,-1,111,112,108,-1,108,112,113,-1,108,113,109,-1,114,115,111,-1,111,115,116,-1,111,116,112,-1,117,118,119,-1,119,118,120,-1,119,120,121,-1,121,120,122,-1,121,122,114,-1,114,122,123,-1,114,123,115,-1,124,125,117,-1,117,125,126,-1,117,126,118,-1,127,128,129,-1,129,128,130,-1,129,130,131,-1,131,130,132,-1,131,132,124,-1,124,132,133,-1,124,133,125,-1,134,135,127,-1,127,135,136,-1,127,136,128,-1,137,138,134,-1,134,138,139,-1,134,139,135,-1,140,141,142,-1,142,141,143,-1,142,143,144,-1,144,143,145,-1,144,145,146,-1,146,145,147,-1,146,147,148,-1,148,147,149,-1,148,149,137,-1,137,149,150,-1,137,150,138,-1,151,152,140,-1,140,152,153,-1,140,153,141,-1,154,155,151,-1,151,155,156,-1,151,156,152,-1,157,158,159,-1,159,158,160,-1,159,160,161,-1,161,160,162,-1,161,162,154,-1,154,162,163,-1,154,163,155,-1,164,165,166,-1,166,165,167,-1,166,167,168,-1,168,167,169,-1,168,169,157,-1,157,169,170,-1,157,170,158,-1,171,172,164,-1,164,172,173,-1,164,173,165,-1,174,175,171,-1,171,175,176,-1,171,176,172,-1,177,178,174,-1,174,178,179,-1,174,179,175,-1,105,180,106,-1,106,180,181,-1,106,181,177,-1,177,181,182,-1,177,182,178,-1,183,184,185,-1,185,184,186,-1,184,187,186,-1,186,187,188,-1,186,188,189,-1,189,190,186,-1,186,190,191,-1,186,191,192,-1,193,192,194,-1,194,192,195,-1,193,196,192,-1,192,196,197,-1,192,197,186,-1,185,198,199,-1,200,201,202,-1,192,203,195,-1,195,203,201,-1,195,201,204,-1,204,201,200,-1,199,205,185,-1,185,205,206,-1,185,206,183,-1,207,208,202,-1,202,208,209,-1,202,209,200,-1,163,162,210,-1,160,158,211,-1,170,169,212,-1,179,178,213,-1,182,181,214,-1,110,109,215,-1,113,112,216,-1,126,125,217,-1,133,132,218,-1,136,135,219,-1,220,221,222,-1,183,206,223,-1,184,183,224,-1,187,184,225,-1,188,187,226,-1,191,221,192,-1,192,221,220,-1,192,220,203,-1,227,222,228,-1,228,222,221,-1,228,221,229,-1,229,221,191,-1,229,191,190,-1,230,227,231,-1,231,227,228,-1,231,228,232,-1,232,228,229,-1,232,229,233,-1,233,229,190,-1,233,190,189,-1,234,235,236,-1,210,230,237,-1,237,230,231,-1,237,231,238,-1,238,231,232,-1,238,232,239,-1,239,232,233,-1,239,233,240,-1,240,233,189,-1,240,189,188,-1,241,235,242,-1,242,235,234,-1,242,234,243,-1,206,205,244,-1,244,205,245,-1,244,245,246,-1,246,245,247,-1,246,247,248,-1,248,247,249,-1,248,249,250,-1,250,249,251,-1,250,251,252,-1,252,251,218,-1,198,185,253,-1,253,185,254,-1,253,254,255,-1,255,254,256,-1,255,256,257,-1,257,256,258,-1,257,258,259,-1,259,258,260,-1,259,260,261,-1,261,260,262,-1,186,197,263,-1,263,197,264,-1,263,264,265,-1,265,264,266,-1,265,266,267,-1,267,266,268,-1,267,268,269,-1,269,268,270,-1,269,270,271,-1,271,270,272,-1,271,272,115,-1,115,272,116,-1,194,195,273,-1,273,195,274,-1,273,274,275,-1,275,274,276,-1,275,276,277,-1,277,276,278,-1,277,278,279,-1,279,278,280,-1,279,280,281,-1,281,280,214,-1,200,209,282,-1,282,209,283,-1,282,283,284,-1,284,283,285,-1,284,285,286,-1,286,285,287,-1,286,287,288,-1,288,287,289,-1,288,289,290,-1,290,289,291,-1,208,207,292,-1,292,207,293,-1,292,293,294,-1,294,293,295,-1,294,295,296,-1,296,295,297,-1,296,297,298,-1,298,297,299,-1,298,299,300,-1,300,299,301,-1,300,301,165,-1,165,301,167,-1,147,241,149,-1,149,241,242,-1,149,242,150,-1,150,242,243,-1,150,243,138,-1,138,243,139,-1,135,139,219,-1,219,139,243,-1,219,243,302,-1,302,243,234,-1,302,234,303,-1,303,234,236,-1,303,236,304,-1,128,136,252,-1,252,136,219,-1,252,219,250,-1,250,219,302,-1,250,302,248,-1,248,302,303,-1,248,303,246,-1,246,303,304,-1,246,304,244,-1,218,132,252,-1,252,132,130,-1,252,130,128,-1,125,133,217,-1,217,133,218,-1,217,218,305,-1,305,218,251,-1,305,251,306,-1,306,251,249,-1,306,249,307,-1,307,249,247,-1,307,247,308,-1,308,247,245,-1,308,245,199,-1,199,245,205,-1,199,198,308,-1,308,198,253,-1,308,253,307,-1,307,253,255,-1,307,255,306,-1,306,255,257,-1,306,257,305,-1,305,257,259,-1,305,259,217,-1,217,259,261,-1,217,261,126,-1,123,122,262,-1,262,122,120,-1,262,120,261,-1,261,120,118,-1,261,118,126,-1,185,186,254,-1,254,186,263,-1,254,263,256,-1,256,263,265,-1,256,265,258,-1,258,265,267,-1,258,267,260,-1,260,267,269,-1,260,269,262,-1,262,269,271,-1,262,271,123,-1,123,271,115,-1,112,116,216,-1,216,116,272,-1,216,272,309,-1,309,272,270,-1,309,270,310,-1,310,270,268,-1,310,268,311,-1,311,268,266,-1,311,266,312,-1,312,266,264,-1,312,264,196,-1,196,264,197,-1,109,113,215,-1,215,113,216,-1,215,216,313,-1,313,216,309,-1,313,309,314,-1,314,309,310,-1,314,310,315,-1,315,310,311,-1,315,311,316,-1,316,311,312,-1,316,312,193,-1,193,312,196,-1,105,110,281,-1,281,110,215,-1,281,215,279,-1,279,215,313,-1,279,313,277,-1,277,313,314,-1,277,314,275,-1,275,314,315,-1,275,315,273,-1,273,315,316,-1,273,316,194,-1,194,316,193,-1,214,181,281,-1,281,181,180,-1,281,180,105,-1,178,182,213,-1,213,182,214,-1,213,214,317,-1,317,214,280,-1,317,280,318,-1,318,280,278,-1,318,278,319,-1,319,278,276,-1,319,276,320,-1,320,276,274,-1,320,274,204,-1,204,274,195,-1,204,200,320,-1,320,200,282,-1,320,282,319,-1,319,282,284,-1,319,284,318,-1,318,284,286,-1,318,286,317,-1,317,286,288,-1,317,288,213,-1,213,288,290,-1,213,290,179,-1,173,172,291,-1,291,172,176,-1,291,176,290,-1,290,176,175,-1,290,175,179,-1,209,208,283,-1,283,208,292,-1,283,292,285,-1,285,292,294,-1,285,294,287,-1,287,294,296,-1,287,296,289,-1,289,296,298,-1,289,298,291,-1,291,298,300,-1,291,300,173,-1,173,300,165,-1,169,167,212,-1,212,167,301,-1,212,301,321,-1,321,301,299,-1,321,299,322,-1,322,299,297,-1,322,297,323,-1,323,297,295,-1,323,295,324,-1,324,295,293,-1,324,293,202,-1,202,293,207,-1,158,170,211,-1,211,170,212,-1,211,212,325,-1,325,212,321,-1,325,321,326,-1,326,321,322,-1,326,322,327,-1,327,322,323,-1,327,323,328,-1,328,323,324,-1,328,324,201,-1,201,324,202,-1,162,160,210,-1,210,160,211,-1,210,211,230,-1,230,211,325,-1,230,325,227,-1,227,325,326,-1,227,326,222,-1,222,326,327,-1,222,327,220,-1,220,327,328,-1,220,328,203,-1,203,328,201,-1,188,226,240,-1,240,226,329,-1,240,329,239,-1,239,329,330,-1,239,330,238,-1,238,330,331,-1,238,331,237,-1,237,331,332,-1,237,332,210,-1,210,332,155,-1,210,155,163,-1,333,152,156,-1,187,225,226,-1,226,225,334,-1,226,334,329,-1,329,334,335,-1,329,335,330,-1,330,335,336,-1,330,336,331,-1,331,336,333,-1,331,333,332,-1,332,333,156,-1,332,156,155,-1,337,141,153,-1,184,224,225,-1,225,224,338,-1,225,338,334,-1,334,338,339,-1,334,339,335,-1,335,339,340,-1,335,340,336,-1,336,340,337,-1,336,337,333,-1,333,337,153,-1,333,153,152,-1,341,145,143,-1,183,223,224,-1,224,223,342,-1,224,342,338,-1,338,342,343,-1,338,343,339,-1,339,343,344,-1,339,344,340,-1,340,344,341,-1,340,341,337,-1,337,341,143,-1,337,143,141,-1,206,244,223,-1,223,244,304,-1,223,304,342,-1,342,304,236,-1,342,236,343,-1,343,236,235,-1,343,235,344,-1,344,235,241,-1,344,241,341,-1,341,241,147,-1,341,147,145,-1,58,57,345,-1,55,53,346,-1,65,64,347,-1,74,73,348,-1,77,76,349,-1,5,4,350,-1,8,7,351,-1,21,20,352,-1,28,27,353,-1,31,30,354,-1,355,356,357,-1,78,101,358,-1,79,78,359,-1,82,79,360,-1,83,82,361,-1,86,356,87,-1,87,356,355,-1,87,355,98,-1,362,357,363,-1,363,357,356,-1,363,356,364,-1,364,356,86,-1,364,86,85,-1,365,362,366,-1,366,362,363,-1,366,363,367,-1,367,363,364,-1,367,364,368,-1,368,364,85,-1,368,85,84,-1,369,370,371,-1,345,365,372,-1,372,365,366,-1,372,366,373,-1,373,366,367,-1,373,367,374,-1,374,367,368,-1,374,368,375,-1,375,368,84,-1,375,84,83,-1,376,370,377,-1,377,370,369,-1,377,369,378,-1,101,100,379,-1,379,100,380,-1,379,380,381,-1,381,380,382,-1,381,382,383,-1,383,382,384,-1,383,384,385,-1,385,384,386,-1,385,386,387,-1,387,386,353,-1,93,80,388,-1,388,80,389,-1,388,389,390,-1,390,389,391,-1,390,391,392,-1,392,391,393,-1,392,393,394,-1,394,393,395,-1,394,395,396,-1,396,395,397,-1,81,92,398,-1,398,92,399,-1,398,399,400,-1,400,399,401,-1,400,401,402,-1,402,401,403,-1,402,403,404,-1,404,403,405,-1,404,405,406,-1,406,405,407,-1,406,407,10,-1,10,407,11,-1,89,90,408,-1,408,90,409,-1,408,409,410,-1,410,409,411,-1,410,411,412,-1,412,411,413,-1,412,413,414,-1,414,413,415,-1,414,415,416,-1,416,415,349,-1,95,104,417,-1,417,104,418,-1,417,418,419,-1,419,418,420,-1,419,420,421,-1,421,420,422,-1,421,422,423,-1,423,422,424,-1,423,424,425,-1,425,424,426,-1,103,102,427,-1,427,102,428,-1,427,428,429,-1,429,428,430,-1,429,430,431,-1,431,430,432,-1,431,432,433,-1,433,432,434,-1,433,434,435,-1,435,434,436,-1,435,436,60,-1,60,436,62,-1,42,376,44,-1,44,376,377,-1,44,377,45,-1,45,377,378,-1,45,378,33,-1,33,378,34,-1,30,34,354,-1,354,34,378,-1,354,378,437,-1,437,378,369,-1,437,369,438,-1,438,369,371,-1,438,371,439,-1,23,31,387,-1,387,31,354,-1,387,354,385,-1,385,354,437,-1,385,437,383,-1,383,437,438,-1,383,438,381,-1,381,438,439,-1,381,439,379,-1,353,27,387,-1,387,27,25,-1,387,25,23,-1,20,28,352,-1,352,28,353,-1,352,353,440,-1,440,353,386,-1,440,386,441,-1,441,386,384,-1,441,384,442,-1,442,384,382,-1,442,382,443,-1,443,382,380,-1,443,380,94,-1,94,380,100,-1,94,93,443,-1,443,93,388,-1,443,388,442,-1,442,388,390,-1,442,390,441,-1,441,390,392,-1,441,392,440,-1,440,392,394,-1,440,394,352,-1,352,394,396,-1,352,396,21,-1,18,17,397,-1,397,17,15,-1,397,15,396,-1,396,15,13,-1,396,13,21,-1,80,81,389,-1,389,81,398,-1,389,398,391,-1,391,398,400,-1,391,400,393,-1,393,400,402,-1,393,402,395,-1,395,402,404,-1,395,404,397,-1,397,404,406,-1,397,406,18,-1,18,406,10,-1,7,11,351,-1,351,11,407,-1,351,407,444,-1,444,407,405,-1,444,405,445,-1,445,405,403,-1,445,403,446,-1,446,403,401,-1,446,401,447,-1,447,401,399,-1,447,399,91,-1,91,399,92,-1,4,8,350,-1,350,8,351,-1,350,351,448,-1,448,351,444,-1,448,444,449,-1,449,444,445,-1,449,445,450,-1,450,445,446,-1,450,446,451,-1,451,446,447,-1,451,447,88,-1,88,447,91,-1,0,5,416,-1,416,5,350,-1,416,350,414,-1,414,350,448,-1,414,448,412,-1,412,448,449,-1,412,449,410,-1,410,449,450,-1,410,450,408,-1,408,450,451,-1,408,451,89,-1,89,451,88,-1,349,76,416,-1,416,76,75,-1,416,75,0,-1,73,77,348,-1,348,77,349,-1,348,349,452,-1,452,349,415,-1,452,415,453,-1,453,415,413,-1,453,413,454,-1,454,413,411,-1,454,411,455,-1,455,411,409,-1,455,409,99,-1,99,409,90,-1,99,95,455,-1,455,95,417,-1,455,417,454,-1,454,417,419,-1,454,419,453,-1,453,419,421,-1,453,421,452,-1,452,421,423,-1,452,423,348,-1,348,423,425,-1,348,425,74,-1,68,67,426,-1,426,67,71,-1,426,71,425,-1,425,71,70,-1,425,70,74,-1,104,103,418,-1,418,103,427,-1,418,427,420,-1,420,427,429,-1,420,429,422,-1,422,429,431,-1,422,431,424,-1,424,431,433,-1,424,433,426,-1,426,433,435,-1,426,435,68,-1,68,435,60,-1,64,62,347,-1,347,62,436,-1,347,436,456,-1,456,436,434,-1,456,434,457,-1,457,434,432,-1,457,432,458,-1,458,432,430,-1,458,430,459,-1,459,430,428,-1,459,428,97,-1,97,428,102,-1,53,65,346,-1,346,65,347,-1,346,347,460,-1,460,347,456,-1,460,456,461,-1,461,456,457,-1,461,457,462,-1,462,457,458,-1,462,458,463,-1,463,458,459,-1,463,459,96,-1,96,459,97,-1,57,55,345,-1,345,55,346,-1,345,346,365,-1,365,346,460,-1,365,460,362,-1,362,460,461,-1,362,461,357,-1,357,461,462,-1,357,462,355,-1,355,462,463,-1,355,463,98,-1,98,463,96,-1,83,361,375,-1,375,361,464,-1,375,464,374,-1,374,464,465,-1,374,465,373,-1,373,465,466,-1,373,466,372,-1,372,466,467,-1,372,467,345,-1,345,467,50,-1,345,50,58,-1,468,47,51,-1,82,360,361,-1,361,360,469,-1,361,469,464,-1,464,469,470,-1,464,470,465,-1,465,470,471,-1,465,471,466,-1,466,471,468,-1,466,468,467,-1,467,468,51,-1,467,51,50,-1,472,36,48,-1,79,359,360,-1,360,359,473,-1,360,473,469,-1,469,473,474,-1,469,474,470,-1,470,474,475,-1,470,475,471,-1,471,475,472,-1,471,472,468,-1,468,472,48,-1,468,48,47,-1,476,40,38,-1,78,358,359,-1,359,358,477,-1,359,477,473,-1,473,477,478,-1,473,478,474,-1,474,478,479,-1,474,479,475,-1,475,479,476,-1,475,476,472,-1,472,476,38,-1,472,38,36,-1,101,379,358,-1,358,379,439,-1,358,439,477,-1,477,439,371,-1,477,371,478,-1,478,371,370,-1,478,370,479,-1,479,370,376,-1,479,376,476,-1,476,376,42,-1,476,42,40,-1,
        ]
    }
}
Shape{
    appearance Appearance {
        material  Material 	{
            diffuseColor 0.792156862745098 0.8196078431372549 0.9333333333333333
            specularColor 0.396078431372549 0.4117647058823529 0.4666666666666667
            ambientIntensity 0.8244
            transparency 0.0
            shininess 0.5
        }
    }
    geometry IndexedFaceSet {
        ccw TRUE
        solid FALSE
        coord DEF co Coordinate {
            point [
                0.0896 -0.0133 0.0394, 0.0896 -0.022 0.0394, 0.0896 -0.0133 0.0, 0.0896 -0.022 0.0, 0.13 -0.022 0.0394, 0.13 -0.022 0.0, 0.13 0.0568 0.0394, 0.13 0.0568 0.0, 0.1194 0.0568 0.0394, 0.1194 0.0568 0.0, 0.1194 -0.0133 0.0394, 0.1194 -0.0133 0.0, 0.0243 -0.0092 0.0394, 0.0243 -0.0179 0.0394, 0.0243 -0.0092 0.0, 0.0243 -0.0179 0.0, 0.0327 -0.0213 0.0394, 0.046 -0.0229 0.0394, 0.046 -0.0229 0.0, 0.0438 -0.0229 0.0, 0.0438 -0.0229 0.0394, 0.0407 -0.0224 0.0, 0.0327 -0.0213 0.0, 0.0506 -0.0224 0.0, 0.0557 -0.0219 0.0394, 0.0557 -0.0219 0.0, 0.0633 -0.0193 0.0394, 0.0633 -0.0193 0.0, 0.0697 -0.0152 0.0394, 0.0697 -0.0152 0.0, 0.0756 -0.009 0.0394, 0.0756 -0.009 0.0, 0.0798 -0.0015 0.0394, 0.0798 -0.0015 0.0, 0.0822 0.0068 0.0394, 0.0822 0.0068 0.0, 0.0829 0.0159 0.0394, 0.0829 0.0159 0.0, 0.0429 0.0577 0.0, 0.0487 0.0573 0.0, 0.0429 0.0577 0.0394, 0.0508 0.0571 0.0394, 0.0508 0.0571 0.0, 0.0596 0.0545 0.0, 0.0596 0.0545 0.0394, 0.067 0.0502 0.0, 0.067 0.0502 0.0394, 0.0741 0.0434 0.0, 0.0741 0.0434 0.0394, 0.0788 0.036 0.0, 0.0788 0.036 0.0394, 0.0818 0.0271 0.0, 0.0818 0.0271 0.0394, 0.0359 0.0573 0.0, 0.0334 0.0571 0.0394, 0.0334 0.0571 0.0, 0.0243 0.0546 0.0394, 0.0243 0.0546 0.0, 0.0243 0.0441 0.0394, 0.0243 0.0441 0.0, 0.0428 0.0491 0.0394, 0.0428 0.0491 0.0, 0.0332 0.0479 0.0, 0.0332 0.0479 0.0394, 0.0723 0.0166 0.0394, 0.0723 0.0166 0.0, 0.072 0.0227 0.0, 0.072 0.0227 0.0394, 0.0699 0.0311 0.0, 0.0699 0.0311 0.0394, 0.0666 0.0372 0.0, 0.0666 0.0372 0.0394, 0.0619 0.0425 0.0, 0.0619 0.0425 0.0394, 0.0564 0.0461 0.0, 0.0564 0.0461 0.0394, 0.0505 0.0482 0.0, 0.0505 0.0482 0.0394, 0.0445 -0.0143 0.0394, 0.0445 -0.0143 0.0, 0.0519 -0.0134 0.0, 0.0519 -0.0134 0.0394, 0.0576 -0.0113 0.0, 0.0576 -0.0113 0.0394, 0.0625 -0.0081 0.0, 0.0625 -0.0081 0.0394, 0.0662 -0.0042 0.0, 0.0662 -0.0042 0.0394, 0.0694 0.0013 0.0, 0.0694 0.0013 0.0394, 0.0716 0.0081 0.0, 0.0716 0.0081 0.0394, 0.0257 -0.01 0.0, 0.0257 -0.01 0.0394, 0.0341 -0.0131 0.0, 0.0341 -0.0131 0.0394, -0.0333 -0.0133 0.0394, -0.0333 -0.022 0.0394, -0.0333 -0.0133 0.0, -0.0333 -0.022 0.0, 0.009 -0.022 0.0394, 0.009 -0.022 0.0, 0.009 0.0568 0.0394, 0.009 0.0568 0.0, -0.0314 0.0568 0.0394, -0.0314 0.0568 0.0, -0.0314 0.0481 0.0394, -0.0314 0.0481 0.0, -0.0016 0.0481 0.0394, -0.0016 0.0481 0.0, -0.0016 0.0222 0.0394, -0.0016 0.0222 0.0, -0.0294 0.0222 0.0394, -0.0294 0.0222 0.0, -0.0294 0.0136 0.0394, -0.0294 0.0136 0.0, -0.0016 0.0136 0.0394, -0.0016 0.0136 0.0, -0.0016 -0.0133 0.0394, -0.0016 -0.0133 0.0, -0.0701 -0.022 0.0394, -0.0486 -0.022 0.0394, -0.0701 -0.022 0.0, -0.0486 -0.022 0.0, -0.0486 0.0568 0.0394, -0.0486 0.0568 0.0, -0.0709 0.0568 0.0394, -0.0709 0.0568 0.0, -0.112 0.0184 0.0394, -0.112 0.0184 0.0, -0.1114 0.0258 0.0, -0.1114 0.0258 0.0394, -0.1093 0.0336 0.0, -0.1093 0.0336 0.0394, -0.1057 0.0403 0.0, -0.1057 0.0403 0.0394, -0.1001 0.0465 0.0, -0.1001 0.0465 0.0394, -0.1 0.0466 0.0, -0.1 0.0466 0.0394, -0.0915 0.0523 0.0, -0.0915 0.0523 0.0394, -0.0822 0.0556 0.0, -0.0822 0.0556 0.0394, -0.0798 -0.0211 0.0, -0.0798 -0.0211 0.0394, -0.0889 -0.0184 0.0, -0.0889 -0.0184 0.0394, -0.0971 -0.0136 0.0, -0.0971 -0.0136 0.0394, -0.1036 -0.0074 0.0, -0.1036 -0.0074 0.0394, -0.1081 -0.0004 0.0, -0.1081 -0.0004 0.0394, -0.1109 0.0079 0.0, -0.1109 0.0079 0.0394, -0.0962 0.0371 0.0394, -0.0924 0.0412 0.0394, -0.0866 0.0449 0.0394, -0.0801 0.0472 0.0394, -0.0708 0.0481 0.0394, -0.0592 0.0481 0.0394, -0.0592 -0.0133 0.0394, -0.0704 -0.0133 0.0394, -0.0787 -0.0125 0.0394, -0.0853 -0.0105 0.0394, -0.0907 -0.0073 0.0394, -0.0951 -0.0029 0.0394, -0.0984 0.0025 0.0394, -0.1007 0.0099 0.0394, -0.1015 0.0182 0.0394, -0.1008 0.026 0.0394, -0.0989 0.0322 0.0394, -0.0708 0.0481 0.0, -0.0592 0.0481 0.0, -0.0801 0.0472 0.0, -0.0866 0.0449 0.0, -0.0924 0.0412 0.0, -0.0962 0.0371 0.0, -0.0989 0.0322 0.0, -0.1008 0.026 0.0, -0.1015 0.0182 0.0, -0.1007 0.0099 0.0, -0.0984 0.0025 0.0, -0.0951 -0.0029 0.0, -0.0907 -0.0073 0.0, -0.0853 -0.0105 0.0, -0.0787 -0.0125 0.0, -0.0704 -0.0133 0.0, -0.0592 -0.0133 0.0
            ]
        }
        coordIndex [
            0,1,2,-1,2,1,3,-1,1,4,3,-1,3,4,5,-1,4,6,5,-1,5,6,7,-1,6,8,7,-1,7,8,9,-1,8,10,9,-1,9,10,11,-1,10,0,11,-1,11,0,2,-1,8,6,10,-1,10,6,4,-1,10,4,0,-1,0,4,1,-1,12,13,14,-1,14,13,15,-1,15,13,16,-1,17,18,19,-1,17,19,20,-1,20,19,21,-1,20,21,16,-1,16,21,22,-1,16,22,15,-1,18,17,23,-1,23,17,24,-1,23,24,25,-1,25,24,26,-1,25,26,27,-1,27,26,28,-1,27,28,29,-1,29,28,30,-1,29,30,31,-1,31,30,32,-1,31,32,33,-1,33,32,34,-1,33,34,35,-1,35,34,36,-1,35,36,37,-1,38,39,40,-1,40,39,41,-1,39,42,41,-1,41,42,43,-1,41,43,44,-1,44,43,45,-1,44,45,46,-1,46,45,47,-1,46,47,48,-1,48,47,49,-1,48,49,50,-1,50,49,51,-1,50,51,52,-1,52,51,37,-1,52,37,36,-1,38,40,53,-1,53,40,54,-1,53,54,55,-1,55,54,56,-1,55,56,57,-1,56,58,57,-1,57,58,59,-1,60,61,62,-1,60,62,63,-1,63,62,59,-1,63,59,58,-1,64,65,66,-1,64,66,67,-1,67,66,68,-1,67,68,69,-1,69,68,70,-1,69,70,71,-1,71,70,72,-1,71,72,73,-1,73,72,74,-1,73,74,75,-1,75,74,76,-1,75,76,77,-1,77,76,61,-1,77,61,60,-1,78,79,80,-1,78,80,81,-1,81,80,82,-1,81,82,83,-1,83,82,84,-1,83,84,85,-1,85,84,86,-1,85,86,87,-1,87,86,88,-1,87,88,89,-1,89,88,90,-1,89,90,91,-1,91,90,65,-1,91,65,64,-1,12,14,92,-1,12,92,93,-1,93,92,94,-1,93,94,95,-1,95,94,79,-1,95,79,78,-1,81,17,78,-1,78,17,20,-1,78,20,95,-1,95,20,16,-1,95,16,93,-1,93,16,13,-1,93,13,12,-1,58,56,63,-1,63,56,54,-1,63,54,60,-1,60,54,40,-1,60,40,77,-1,77,40,41,-1,77,41,75,-1,75,41,44,-1,75,44,73,-1,73,44,46,-1,73,46,71,-1,71,46,48,-1,71,48,69,-1,69,48,50,-1,69,50,67,-1,67,50,52,-1,67,52,64,-1,64,52,36,-1,64,36,91,-1,91,36,34,-1,91,34,89,-1,89,34,32,-1,89,32,87,-1,87,32,30,-1,87,30,85,-1,85,30,28,-1,85,28,83,-1,83,28,26,-1,83,26,81,-1,81,26,24,-1,81,24,17,-1,96,97,98,-1,98,97,99,-1,97,100,99,-1,99,100,101,-1,100,102,101,-1,101,102,103,-1,102,104,103,-1,103,104,105,-1,104,106,105,-1,105,106,107,-1,106,108,107,-1,107,108,109,-1,108,110,109,-1,109,110,111,-1,110,112,111,-1,111,112,113,-1,112,114,113,-1,113,114,115,-1,114,116,115,-1,115,116,117,-1,116,118,117,-1,117,118,119,-1,118,96,119,-1,119,96,98,-1,100,97,96,-1,96,118,100,-1,100,118,116,-1,100,116,102,-1,106,104,108,-1,108,104,102,-1,108,102,110,-1,110,102,116,-1,110,116,112,-1,112,116,114,-1,120,121,122,-1,122,121,123,-1,121,124,123,-1,123,124,125,-1,124,126,125,-1,125,126,127,-1,128,129,130,-1,128,130,131,-1,131,130,132,-1,131,132,133,-1,133,132,134,-1,133,134,135,-1,135,134,136,-1,135,136,137,-1,137,136,138,-1,137,138,139,-1,139,138,140,-1,139,140,141,-1,141,140,142,-1,141,142,143,-1,143,142,127,-1,143,127,126,-1,120,122,144,-1,120,144,145,-1,145,144,146,-1,145,146,147,-1,147,146,148,-1,147,148,149,-1,149,148,150,-1,149,150,151,-1,151,150,152,-1,151,152,153,-1,153,152,154,-1,153,154,155,-1,155,154,129,-1,155,129,128,-1,133,135,156,-1,156,135,137,-1,156,137,157,-1,157,137,139,-1,157,139,158,-1,158,139,141,-1,158,141,159,-1,159,141,143,-1,159,143,160,-1,160,143,126,-1,160,126,161,-1,161,126,124,-1,161,124,162,-1,162,124,121,-1,162,121,163,-1,163,121,120,-1,163,120,164,-1,164,120,145,-1,164,145,165,-1,165,145,147,-1,165,147,166,-1,166,147,149,-1,166,149,167,-1,167,149,151,-1,167,151,168,-1,168,151,153,-1,168,153,169,-1,169,153,155,-1,169,155,170,-1,170,155,128,-1,170,128,171,-1,171,128,131,-1,171,131,172,-1,172,131,133,-1,172,133,156,-1,160,161,173,-1,173,161,174,-1,160,173,175,-1,160,175,159,-1,159,175,176,-1,159,176,158,-1,158,176,177,-1,158,177,157,-1,157,177,178,-1,157,178,156,-1,156,178,179,-1,156,179,172,-1,172,179,180,-1,172,180,171,-1,171,180,181,-1,171,181,170,-1,170,181,182,-1,170,182,169,-1,169,182,183,-1,169,183,168,-1,168,183,184,-1,168,184,167,-1,167,184,185,-1,167,185,166,-1,166,185,186,-1,166,186,165,-1,165,186,187,-1,165,187,164,-1,164,187,188,-1,164,188,163,-1,162,163,189,-1,189,163,188,-1,161,162,174,-1,174,162,189,-1,
        ]
    }
}
Shape{
    appearance Appearance {
        material  Material 	{
            diffuseColor 0.3254901960784314 0.3254901960784314 0.4117647058823529
            specularColor 0.1607843137254902 0.1607843137254902 0.20392156862745098
            ambientIntensity 0.3353
            transparency 0.0
            shininess 0.5
        }
    }
    geometry IndexedFaceSet {
        ccw TRUE
        solid FALSE
        coord DEF co Coordinate {
            point [
                -0.0592 0.0481 0.0, -0.0592 -0.0133 0.0, -0.0708 0.0481 0.0, -0.0704 -0.0133 0.0, -0.0787 -0.0125 0.0, -0.1015 0.0182 0.0, -0.1008 0.026 0.0, -0.0989 0.0322 0.0, -0.0801 0.0472 0.0, -0.0853 -0.0105 0.0, -0.0907 -0.0073 0.0, -0.0951 -0.0029 0.0, -0.0984 0.0025 0.0, -0.1007 0.0099 0.0, -0.0962 0.0371 0.0, -0.0924 0.0412 0.0, -0.0866 0.0449 0.0
            ]
        }
        coordIndex [
            0,1,2,-1,2,1,3,-1,2,3,4,-1,5,6,2,-1,2,6,7,-1,2,7,8,-1,4,9,2,-1,2,9,10,-1,2,10,11,-1,11,12,2,-1,2,12,13,-1,2,13,5,-1,14,15,7,-1,7,15,16,-1,7,16,8,-1,
        ]
    }
}
Shape{
    appearance Appearance {
        material  Material 	{
            diffuseColor 0.792156862745098 0.8196078431372549 0.9333333333333333
            specularColor 0.396078431372549 0.4117647058823529 0.4666666666666667
            ambientIntensity 0.8244
            transparency 0.0
            shininess 0.5
        }
    }
    geometry IndexedFaceSet {
        ccw TRUE
        solid FALSE
        coord DEF co Coordinate {
            point [
                -0.1581 0.0568 0.0394, -0.1888 -0.022 0.0394, -0.1581 0.0568 0.0, -0.1888 -0.022 0.0, -0.1773 -0.022 0.0394, -0.1773 -0.022 0.0, -0.1693 0.0001 0.0394, -0.1693 0.0001 0.0, -0.1535 0.0001 0.0, -0.1368 0.0001 0.0394, -0.1368 0.0001 0.0, -0.1293 -0.022 0.0394, -0.1293 -0.022 0.0, -0.1178 -0.022 0.0394, -0.1178 -0.022 0.0, -0.1475 0.0568 0.0394, -0.1475 0.0568 0.0, -0.1535 0.0568 0.0, -0.154 0.0417 0.0394, -0.1658 0.0088 0.0394, -0.1533 0.0444 0.0394, -0.1527 0.0472 0.0394, -0.1395 0.0088 0.0394, -0.1512 0.0417 0.0394, -0.1525 0.0472 0.0394, -0.152 0.0444 0.0394, -0.1395 0.0088 0.0, -0.1658 0.0088 0.0, -0.1512 0.0417 0.0, -0.152 0.0444 0.0, -0.1525 0.0472 0.0, -0.1527 0.0472 0.0, -0.1533 0.0444 0.0, -0.154 0.0417 0.0
            ]
        }
        coordIndex [
            0,1,2,-1,2,1,3,-1,1,4,3,-1,3,4,5,-1,4,6,5,-1,5,6,7,-1,7,6,8,-1,8,6,9,-1,8,9,10,-1,9,11,10,-1,10,11,12,-1,11,13,12,-1,12,13,14,-1,13,15,14,-1,14,15,16,-1,16,15,17,-1,17,15,0,-1,17,0,2,-1,18,19,20,-1,20,19,21,-1,6,4,1,-1,19,22,9,-1,23,15,22,-1,22,15,13,-1,22,13,9,-1,9,13,11,-1,9,6,19,-1,19,6,1,-1,19,1,21,-1,21,1,0,-1,21,0,24,-1,24,0,15,-1,24,15,25,-1,25,15,23,-1,22,19,26,-1,26,19,27,-1,23,22,28,-1,28,22,26,-1,23,28,29,-1,23,29,25,-1,25,29,30,-1,25,30,24,-1,21,24,31,-1,31,24,30,-1,21,31,32,-1,21,32,20,-1,20,32,33,-1,20,33,18,-1,19,18,27,-1,27,18,33,-1,
        ]
    }
}
Shape{
    appearance Appearance {
        material  Material 	{
            diffuseColor 0.3254901960784314 0.3254901960784314 0.4117647058823529
            specularColor 0.1607843137254902 0.1607843137254902 0.20392156862745098
            ambientIntensity 0.3353
            transparency 0.0
            shininess 0.5
        }
    }
    geometry IndexedFaceSet {
        ccw TRUE
        solid FALSE
        coord DEF co Coordinate {
            point [
                -0.1395 0.0088 0.0, -0.1658 0.0088 0.0, -0.1512 0.0417 0.0, -0.154 0.0417 0.0, -0.152 0.0444 0.0, -0.1533 0.0444 0.0, -0.1525 0.0472 0.0, -0.1527 0.0472 0.0, 0.5118 -0.9449 0.4724, -0.5118 -0.9449 0.4724, 0.5118 -0.9449 0.5512, -0.5118 -0.9449 0.5512, -0.5118 -0.7262 0.5906, -0.5118 -0.7874 0.5906, -0.5118 -0.7262 0.4724, -0.5118 -0.7874 0.4724, 0.5118 -0.7262 0.4724, 0.5118 -0.7874 0.4724, 0.5118 -0.7262 0.5906, 0.5118 -0.7874 0.5906, -0.2175 -0.7636 0.4724, 0.2044 -0.9126 0.4724, 0.2044 -0.7636 0.4724, -0.2175 -0.9126 0.4724, -0.3203 -0.9126 0.4724, -0.3203 -0.7636 0.4724, 0.3072 -0.9126 0.4724, 0.3072 -0.7636 0.4724, 0.5118 -0.9889 0.0394, 0.5118 -1.0236 0.2362, -0.5118 -0.9889 0.0394, -0.5118 -1.0236 0.2362, -0.3203 -0.9126 0.4331, -0.3203 -0.7636 0.4331, -0.2175 -0.7636 0.4331, -0.2175 -0.9126 0.4331, 0.2044 -0.9126 0.4331, 0.2044 -0.7636 0.4331, 0.3072 -0.7636 0.4331, 0.3072 -0.9126 0.4331
            ]
        }
        coordIndex [
            0,1,2,-1,2,1,3,-1,2,3,4,-1,4,3,5,-1,4,5,6,-1,6,5,7,-1,8,9,10,-1,10,9,11,-1,12,13,14,-1,14,13,15,-1,16,17,18,-1,18,17,19,-1,16,18,14,-1,14,18,12,-1,20,21,22,-1,8,23,9,-1,9,23,24,-1,9,24,15,-1,15,24,25,-1,15,25,14,-1,20,23,21,-1,21,23,8,-1,21,8,26,-1,26,8,17,-1,26,17,27,-1,27,17,16,-1,27,16,22,-1,22,16,14,-1,22,14,20,-1,20,14,25,-1,28,29,30,-1,30,29,31,-1,32,33,24,-1,24,33,25,-1,33,34,25,-1,25,34,20,-1,34,35,20,-1,20,35,23,-1,35,32,23,-1,23,32,24,-1,35,34,32,-1,32,34,33,-1,36,37,21,-1,21,37,22,-1,37,38,22,-1,22,38,27,-1,38,39,27,-1,27,39,26,-1,39,36,26,-1,26,36,21,-1,39,38,36,-1,36,38,37,-1,
        ]
    }
}