%TF.GenerationSoftware,KiCad,Pcbnew,10.0.6*%
%TF.CreationDate,2026-09-19T18:34:59-04:00*%
%TF.ProjectId,LLV1,4c4c5631-2e6b-4696-9361-645f70636258,rev?*%
%TF.SameCoordinates,Original*%
%TF.FileFunction,Copper,L2,Bot*%
%TF.FilePolarity,Positive*%
%FSLAX46Y46*%
G04 Gerber Fmt 4.6, Leading zero omitted, Abs format (unit mm)*
G04 Created by KiCad (PCBNEW 10.0.6) date 2026-09-19 18:34:59*
%MOMM*%
%LPD*%
G01*
G04 APERTURE LIST*
%TA.AperFunction,ComponentPad*%
%ADD10C,1.600000*%
%TD*%
%TA.AperFunction,ComponentPad*%
%ADD11C,1.270000*%
%TD*%
%TA.AperFunction,ComponentPad*%
%ADD12R,1.270000X1.270000*%
%TD*%
%TA.AperFunction,ViaPad*%
%ADD13C,0.600000*%
%TD*%
%TA.AperFunction,Conductor*%
%ADD14C,0.300000*%
%TD*%
%TA.AperFunction,Conductor*%
%ADD15C,0.500000*%
%TD*%
G04 APERTURE END LIST*
D10*
%TO.P,SW1,*%
%TO.N,*%
X131500000Y-150400000D03*
X131500000Y-153000000D03*
%TD*%
D11*
%TO.P,U2,2,SCL_2*%
%TO.N,Net-(U1-D5)*%
X127736600Y-139242800D03*
%TO.P,U2,3,SDA_3*%
%TO.N,Net-(U1-D4)*%
X127736600Y-136702800D03*
D12*
%TO.P,U2,11,VDD_11*%
%TO.N,+3V3*%
X127736600Y-134162800D03*
D11*
%TO.P,U2,12,GND_12*%
%TO.N,GND*%
X127736600Y-141782800D03*
%TD*%
D13*
%TO.N,GND*%
X142000000Y-135000000D03*
X146500000Y-129000000D03*
X145500000Y-148500000D03*
X125500000Y-149500000D03*
X142000000Y-129500000D03*
X127000000Y-151500000D03*
%TO.N,+3V3*%
X135000000Y-130500000D03*
%TD*%
%TO.N,GND*%
D14*
X146500000Y-129000000D02*
X147000000Y-129000000D01*
%TO.N,+3V3*%
D15*
X135000000Y-130500000D02*
X129000000Y-130500000D01*
X129000000Y-130500000D02*
X127736600Y-131763400D01*
X127736600Y-131763400D02*
X127736600Y-134162800D01*
%TD*%
%TA.AperFunction,Conductor*%
%TO.N,GND*%
G36*
X149943039Y-123019685D02*
G01*
X149988794Y-123072489D01*
X150000000Y-123124000D01*
X150000000Y-153876000D01*
X149980315Y-153943039D01*
X149927511Y-153988794D01*
X149876000Y-154000000D01*
X135000000Y-154000000D01*
X133500000Y-154000000D01*
X132624328Y-154000000D01*
X132557289Y-153980315D01*
X132511534Y-153927511D01*
X132501590Y-153858353D01*
X132524010Y-153803115D01*
X132568397Y-153742019D01*
X132612287Y-153681610D01*
X132705220Y-153499219D01*
X132768477Y-153304534D01*
X132800500Y-153102352D01*
X132800500Y-152897648D01*
X132768477Y-152695466D01*
X132705220Y-152500781D01*
X132705218Y-152500778D01*
X132705218Y-152500776D01*
X132671503Y-152434607D01*
X132612287Y-152318390D01*
X132604556Y-152307749D01*
X132491971Y-152152786D01*
X132347213Y-152008028D01*
X132181614Y-151887715D01*
X132167875Y-151880715D01*
X132030040Y-151810484D01*
X131979245Y-151762511D01*
X131962450Y-151694690D01*
X131984987Y-151628555D01*
X132030039Y-151589515D01*
X132181610Y-151512287D01*
X132202770Y-151496913D01*
X132347213Y-151391971D01*
X132347215Y-151391968D01*
X132347219Y-151391966D01*
X132491966Y-151247219D01*
X132491968Y-151247215D01*
X132491971Y-151247213D01*
X132544732Y-151174590D01*
X132612287Y-151081610D01*
X132705220Y-150899219D01*
X132768477Y-150704534D01*
X132800500Y-150502352D01*
X132800500Y-150297648D01*
X132768477Y-150095466D01*
X132705220Y-149900781D01*
X132705218Y-149900778D01*
X132705218Y-149900776D01*
X132671503Y-149834607D01*
X132612287Y-149718390D01*
X132604556Y-149707749D01*
X132491971Y-149552786D01*
X132347213Y-149408028D01*
X132181613Y-149287715D01*
X132181612Y-149287714D01*
X132181610Y-149287713D01*
X132124653Y-149258691D01*
X131999223Y-149194781D01*
X131804534Y-149131522D01*
X131629995Y-149103878D01*
X131602352Y-149099500D01*
X131397648Y-149099500D01*
X131373329Y-149103351D01*
X131195465Y-149131522D01*
X131000776Y-149194781D01*
X130818386Y-149287715D01*
X130652786Y-149408028D01*
X130508028Y-149552786D01*
X130387715Y-149718386D01*
X130294781Y-149900776D01*
X130231522Y-150095465D01*
X130199500Y-150297648D01*
X130199500Y-150502351D01*
X130231522Y-150704534D01*
X130294781Y-150899223D01*
X130387715Y-151081613D01*
X130508028Y-151247213D01*
X130652786Y-151391971D01*
X130807749Y-151504556D01*
X130818390Y-151512287D01*
X130952252Y-151580493D01*
X130969958Y-151589515D01*
X131020754Y-151637490D01*
X131037549Y-151705311D01*
X131015012Y-151771446D01*
X130969958Y-151810485D01*
X130818386Y-151887715D01*
X130652786Y-152008028D01*
X130508028Y-152152786D01*
X130387715Y-152318386D01*
X130294781Y-152500776D01*
X130231522Y-152695465D01*
X130199500Y-152897648D01*
X130199500Y-153102351D01*
X130231522Y-153304534D01*
X130294781Y-153499223D01*
X130387715Y-153681613D01*
X130475990Y-153803115D01*
X130499470Y-153868922D01*
X130483644Y-153936975D01*
X130433538Y-153985670D01*
X130375672Y-154000000D01*
X124624000Y-154000000D01*
X124556961Y-153980315D01*
X124511206Y-153927511D01*
X124500000Y-153876000D01*
X124500000Y-148624000D01*
X124519685Y-148556961D01*
X124572489Y-148511206D01*
X124624000Y-148500000D01*
X141000000Y-148500000D01*
X141000000Y-123124000D01*
X141019685Y-123056961D01*
X141072489Y-123011206D01*
X141124000Y-123000000D01*
X149876000Y-123000000D01*
X149943039Y-123019685D01*
G37*
%TD.AperFunction*%
%TD*%
M02*
