%TF.GenerationSoftware,KiCad,Pcbnew,10.0.6*%
%TF.CreationDate,2026-09-19T18:34:59-04:00*%
%TF.ProjectId,LLV1,4c4c5631-2e6b-4696-9361-645f70636258,rev?*%
%TF.SameCoordinates,Original*%
%TF.FileFunction,Copper,L1,Top*%
%TF.FilePolarity,Positive*%
%FSLAX46Y46*%
G04 Gerber Fmt 4.6, Leading zero omitted, Abs format (unit mm)*
G04 Created by KiCad (PCBNEW 10.0.6) date 2026-09-19 18:34:59*
%MOMM*%
%LPD*%
G01*
G04 APERTURE LIST*
G04 Aperture macros list*
%AMRoundRect*
0 Rectangle with rounded corners*
0 $1 Rounding radius*
0 $2 $3 $4 $5 $6 $7 $8 $9 X,Y pos of 4 corners*
0 Add a 4 corners polygon primitive as box body*
4,1,4,$2,$3,$4,$5,$6,$7,$8,$9,$2,$3,0*
0 Add four circle primitives for the rounded corners*
1,1,$1+$1,$2,$3*
1,1,$1+$1,$4,$5*
1,1,$1+$1,$6,$7*
1,1,$1+$1,$8,$9*
0 Add four rect primitives between the rounded corners*
20,1,$1+$1,$2,$3,$4,$5,0*
20,1,$1+$1,$4,$5,$6,$7,0*
20,1,$1+$1,$6,$7,$8,$9,0*
20,1,$1+$1,$8,$9,$2,$3,0*%
G04 Aperture macros list end*
%ADD10C,0.100000*%
%TA.AperFunction,ComponentPad*%
%ADD11C,1.600000*%
%TD*%
%TA.AperFunction,SMDPad,CuDef*%
%ADD12R,1.500000X1.000000*%
%TD*%
%TA.AperFunction,SMDPad,CuDef*%
%ADD13RoundRect,0.500000X-0.875000X-0.500000X0.875000X-0.500000X0.875000X0.500000X-0.875000X0.500000X0*%
%TD*%
%TA.AperFunction,SMDPad,CuDef*%
%ADD14C,1.700000*%
%TD*%
%TA.AperFunction,SMDPad,CuDef*%
%ADD15RoundRect,0.275000X0.975000X0.275000X-0.975000X0.275000X-0.975000X-0.275000X0.975000X-0.275000X0*%
%TD*%
%TA.AperFunction,SMDPad,CuDef*%
%ADD16RoundRect,0.275000X-0.275000X0.975000X-0.275000X-0.975000X0.275000X-0.975000X0.275000X0.975000X0*%
%TD*%
%TA.AperFunction,SMDPad,CuDef*%
%ADD17R,3.500000X1.000000*%
%TD*%
%TA.AperFunction,SMDPad,CuDef*%
%ADD18R,3.400000X1.500000*%
%TD*%
%TA.AperFunction,ComponentPad*%
%ADD19C,1.270000*%
%TD*%
%TA.AperFunction,ComponentPad*%
%ADD20R,1.270000X1.270000*%
%TD*%
%TA.AperFunction,ViaPad*%
%ADD21C,0.600000*%
%TD*%
%TA.AperFunction,Conductor*%
%ADD22C,1.000000*%
%TD*%
%TA.AperFunction,Conductor*%
%ADD23C,0.600000*%
%TD*%
%TA.AperFunction,Conductor*%
%ADD24C,0.300000*%
%TD*%
%TA.AperFunction,Conductor*%
%ADD25C,0.500000*%
%TD*%
G04 APERTURE END LIST*
D10*
G36*
X125015648Y-131631956D02*
G01*
X125015648Y-131881847D01*
X124587277Y-131881847D01*
X124587277Y-131943305D01*
X125075000Y-131943305D01*
X125075000Y-131631956D01*
X125015648Y-131631956D01*
G37*
G36*
X124586514Y-131503301D02*
G01*
X124586514Y-131564759D01*
X124659176Y-131564759D01*
X124659176Y-131503301D01*
X124586514Y-131503301D01*
G37*
G36*
X124711933Y-131503301D02*
G01*
X124711933Y-131564759D01*
X125075000Y-131564759D01*
X125075000Y-131503301D01*
X124711933Y-131503301D01*
G37*
G36*
X124701186Y-131330835D02*
G01*
X124679281Y-131329646D01*
X124656755Y-131325232D01*
X124643788Y-131320285D01*
X124632561Y-131313283D01*
X124627669Y-131308731D01*
X124621301Y-131300589D01*
X124616550Y-131291229D01*
X124611716Y-131268350D01*
X124611946Y-131247548D01*
X124556136Y-131247548D01*
X124554804Y-131267199D01*
X124555591Y-131285521D01*
X124558235Y-131301445D01*
X124562719Y-131316222D01*
X124568749Y-131329334D01*
X124576466Y-131341399D01*
X124583552Y-131349978D01*
X124605133Y-131368187D01*
X124633235Y-131381551D01*
X124668848Y-131389620D01*
X124701186Y-131391591D01*
X124714192Y-131391591D01*
X124714192Y-131440592D01*
X124772841Y-131440592D01*
X124772841Y-131391591D01*
X125075000Y-131391591D01*
X125075000Y-131330835D01*
X124772841Y-131330835D01*
X124772841Y-131248922D01*
X124714192Y-131248922D01*
X124714192Y-131330835D01*
X124701186Y-131330835D01*
G37*
G36*
X124911326Y-131160018D02*
G01*
X124940735Y-131153957D01*
X124956117Y-131147995D01*
X124970149Y-131140441D01*
X124983135Y-131131170D01*
X124994588Y-131120555D01*
X125004653Y-131108504D01*
X125013010Y-131095417D01*
X125019635Y-131081404D01*
X125024421Y-131066721D01*
X125028258Y-131036492D01*
X125027778Y-131024355D01*
X125021674Y-130994169D01*
X125016090Y-130980796D01*
X125008884Y-130968578D01*
X124999844Y-130957235D01*
X124989200Y-130947136D01*
X124976336Y-130937867D01*
X124961823Y-130930002D01*
X124961823Y-130865064D01*
X124962130Y-130865165D01*
X124998253Y-130880942D01*
X125028044Y-130902014D01*
X125040651Y-130914445D01*
X125051717Y-130928087D01*
X125061295Y-130943039D01*
X125069242Y-130959124D01*
X125075634Y-130976639D01*
X125080267Y-130995228D01*
X125083157Y-131015352D01*
X125084128Y-131036492D01*
X125082191Y-131063709D01*
X125078449Y-131082668D01*
X125072851Y-131100840D01*
X125065368Y-131118392D01*
X125056174Y-131134929D01*
X125045283Y-131150468D01*
X125032865Y-131164770D01*
X125003927Y-131189211D01*
X124970541Y-131207326D01*
X124933882Y-131218481D01*
X124894962Y-131222269D01*
X124867733Y-131220400D01*
X124848172Y-131216673D01*
X124829366Y-131211073D01*
X124811153Y-131203579D01*
X124793959Y-131194376D01*
X124777855Y-131183542D01*
X124763019Y-131171218D01*
X124737872Y-131142879D01*
X124719434Y-131110769D01*
X124708204Y-131076154D01*
X124704422Y-131040003D01*
X124760293Y-131040003D01*
X124760618Y-131048191D01*
X124762798Y-131062825D01*
X124766967Y-131077253D01*
X124780916Y-131104461D01*
X124801261Y-131127569D01*
X124826675Y-131145138D01*
X124856158Y-131156354D01*
X124856158Y-130925056D01*
X124848613Y-130927172D01*
X124833146Y-130933051D01*
X124818864Y-130940593D01*
X124805699Y-130949774D01*
X124793978Y-130960329D01*
X124775408Y-130984726D01*
X124764075Y-131011851D01*
X124760293Y-131040003D01*
X124704422Y-131040003D01*
X124707675Y-131006894D01*
X124712204Y-130989050D01*
X124718622Y-130971712D01*
X124736775Y-130939399D01*
X124761394Y-130911258D01*
X124791713Y-130888271D01*
X124827088Y-130871166D01*
X124846448Y-130865029D01*
X124867057Y-130860551D01*
X124888615Y-130857869D01*
X124911326Y-130857035D01*
X124911326Y-131160018D01*
G37*
G36*
X125015648Y-130469360D02*
G01*
X125015648Y-130719251D01*
X124587277Y-130719251D01*
X124587277Y-130780709D01*
X125075000Y-130780709D01*
X125075000Y-130469360D01*
X125015648Y-130469360D01*
G37*
G36*
X124921536Y-130080854D02*
G01*
X124941012Y-130084488D01*
X124959719Y-130089978D01*
X124977703Y-130097305D01*
X124994670Y-130106328D01*
X125025054Y-130129042D01*
X125049731Y-130157003D01*
X125067892Y-130189034D01*
X125079032Y-130224091D01*
X125082815Y-130261357D01*
X125081194Y-130285760D01*
X125077666Y-130304453D01*
X125072270Y-130322368D01*
X125064938Y-130339768D01*
X125055877Y-130356166D01*
X125045041Y-130371667D01*
X125032660Y-130385936D01*
X125018806Y-130398909D01*
X125003633Y-130410438D01*
X124970089Y-130428638D01*
X124933375Y-130439834D01*
X124894687Y-130443623D01*
X124866458Y-130441676D01*
X124846775Y-130437926D01*
X124827870Y-130432321D01*
X124809688Y-130424878D01*
X124792537Y-130415746D01*
X124761845Y-130392854D01*
X124736965Y-130364822D01*
X124718704Y-130332883D01*
X124707534Y-130298119D01*
X124703750Y-130261357D01*
X124760323Y-130261357D01*
X124760703Y-130270426D01*
X124762975Y-130285155D01*
X124767186Y-130299272D01*
X124773451Y-130313108D01*
X124781516Y-130326036D01*
X124791456Y-130338157D01*
X124802977Y-130349065D01*
X124815927Y-130358621D01*
X124830161Y-130366695D01*
X124861287Y-130377713D01*
X124894687Y-130381463D01*
X124905752Y-130381045D01*
X124922641Y-130378749D01*
X124938748Y-130374566D01*
X124954146Y-130368530D01*
X124968451Y-130360825D01*
X124993103Y-130341061D01*
X125011360Y-130316909D01*
X125022512Y-130289948D01*
X125026273Y-130261357D01*
X125025929Y-130252529D01*
X125023727Y-130237532D01*
X125019597Y-130223178D01*
X125013455Y-130209179D01*
X125005533Y-130196114D01*
X124995796Y-130183920D01*
X124984506Y-130172957D01*
X124957907Y-130155293D01*
X124927441Y-130144271D01*
X124894687Y-130140518D01*
X124881760Y-130141068D01*
X124864627Y-130143547D01*
X124848293Y-130147901D01*
X124832739Y-130154078D01*
X124818296Y-130161906D01*
X124793519Y-130181793D01*
X124775235Y-130205935D01*
X124764085Y-130232821D01*
X124760323Y-130261357D01*
X124703750Y-130261357D01*
X124705488Y-130236157D01*
X124709100Y-130217567D01*
X124714575Y-130199772D01*
X124721991Y-130182486D01*
X124731134Y-130166209D01*
X124742079Y-130150798D01*
X124754575Y-130136620D01*
X124768592Y-130123698D01*
X124783941Y-130112218D01*
X124817972Y-130094049D01*
X124855304Y-130082852D01*
X124894687Y-130079060D01*
X124921536Y-130080854D01*
G37*
G36*
X124921536Y-129668572D02*
G01*
X124941012Y-129672206D01*
X124959719Y-129677696D01*
X124977703Y-129685023D01*
X124994670Y-129694046D01*
X125025054Y-129716760D01*
X125049731Y-129744721D01*
X125067892Y-129776753D01*
X125079032Y-129811809D01*
X125082815Y-129849075D01*
X125081194Y-129873478D01*
X125077666Y-129892171D01*
X125072270Y-129910086D01*
X125064938Y-129927486D01*
X125055877Y-129943884D01*
X125045041Y-129959385D01*
X125032660Y-129973654D01*
X125018806Y-129986627D01*
X125003633Y-129998156D01*
X124970089Y-130016356D01*
X124933375Y-130027552D01*
X124894687Y-130031341D01*
X124866458Y-130029394D01*
X124846775Y-130025644D01*
X124827870Y-130020039D01*
X124809688Y-130012596D01*
X124792537Y-130003464D01*
X124761845Y-129980572D01*
X124736965Y-129952540D01*
X124718704Y-129920601D01*
X124707534Y-129885837D01*
X124703750Y-129849075D01*
X124760323Y-129849075D01*
X124760703Y-129858144D01*
X124762975Y-129872874D01*
X124767186Y-129886990D01*
X124773451Y-129900826D01*
X124781516Y-129913754D01*
X124791456Y-129925875D01*
X124802977Y-129936783D01*
X124815927Y-129946339D01*
X124830161Y-129954413D01*
X124861287Y-129965431D01*
X124894687Y-129969181D01*
X124905752Y-129968763D01*
X124922641Y-129966467D01*
X124938748Y-129962284D01*
X124954146Y-129956248D01*
X124968451Y-129948543D01*
X124993103Y-129928779D01*
X125011360Y-129904627D01*
X125022512Y-129877666D01*
X125026273Y-129849075D01*
X125025929Y-129840247D01*
X125023727Y-129825250D01*
X125019597Y-129810896D01*
X125013455Y-129796897D01*
X125005533Y-129783833D01*
X124995796Y-129771638D01*
X124984506Y-129760675D01*
X124957907Y-129743011D01*
X124927441Y-129731989D01*
X124894687Y-129728236D01*
X124881760Y-129728786D01*
X124864627Y-129731265D01*
X124848293Y-129735619D01*
X124832739Y-129741796D01*
X124818296Y-129749624D01*
X124793519Y-129769511D01*
X124775235Y-129793653D01*
X124764085Y-129820539D01*
X124760323Y-129849075D01*
X124703750Y-129849075D01*
X124705488Y-129823875D01*
X124709100Y-129805286D01*
X124714575Y-129787490D01*
X124721991Y-129770204D01*
X124731134Y-129753927D01*
X124742079Y-129738517D01*
X124754575Y-129724338D01*
X124768592Y-129711416D01*
X124783941Y-129699936D01*
X124817972Y-129681767D01*
X124855304Y-129670570D01*
X124894687Y-129666778D01*
X124921536Y-129668572D01*
G37*
G36*
X124920812Y-129230489D02*
G01*
X124940607Y-129234158D01*
X124959600Y-129239666D01*
X124977736Y-129246953D01*
X124994830Y-129255913D01*
X125025249Y-129278339D01*
X125049845Y-129305881D01*
X125067923Y-129337482D01*
X125079031Y-129372246D01*
X125082815Y-129409499D01*
X125082814Y-129409982D01*
X125081665Y-129427689D01*
X125078485Y-129444717D01*
X125073054Y-129462109D01*
X125065801Y-129478403D01*
X125056544Y-129494122D01*
X125045899Y-129508272D01*
X125021846Y-129531010D01*
X125234734Y-129531010D01*
X125234734Y-129592467D01*
X124712879Y-129592467D01*
X124712879Y-129533116D01*
X124768078Y-129533116D01*
X124759797Y-129526857D01*
X124736333Y-129502520D01*
X124718396Y-129473234D01*
X124707420Y-129441697D01*
X124703750Y-129409499D01*
X124760323Y-129409499D01*
X124760708Y-129418689D01*
X124762998Y-129433598D01*
X124767237Y-129447919D01*
X124773526Y-129461965D01*
X124781615Y-129475108D01*
X124791523Y-129487387D01*
X124802989Y-129498446D01*
X124829802Y-129516218D01*
X124860214Y-129527263D01*
X124892611Y-129531010D01*
X124904980Y-129530483D01*
X124921905Y-129528015D01*
X124938068Y-129523651D01*
X124953582Y-129517409D01*
X124968008Y-129509493D01*
X124992904Y-129489309D01*
X125011315Y-129464860D01*
X125022514Y-129437842D01*
X125026273Y-129409499D01*
X125025945Y-129400993D01*
X125023772Y-129386213D01*
X125019672Y-129372092D01*
X125013533Y-129358282D01*
X125005604Y-129345408D01*
X124995780Y-129333319D01*
X124984377Y-129322458D01*
X124971483Y-129312909D01*
X124957301Y-129304851D01*
X124926135Y-129293822D01*
X124892611Y-129290064D01*
X124881056Y-129290509D01*
X124864020Y-129292832D01*
X124847763Y-129297034D01*
X124832312Y-129303045D01*
X124817953Y-129310713D01*
X124793352Y-129330271D01*
X124775186Y-129354137D01*
X124764082Y-129380884D01*
X124760323Y-129409499D01*
X124703750Y-129409499D01*
X124705290Y-129385549D01*
X124708733Y-129366887D01*
X124714029Y-129349064D01*
X124721247Y-129331793D01*
X124730179Y-129315562D01*
X124740915Y-129300196D01*
X124753194Y-129286080D01*
X124767029Y-129273191D01*
X124782195Y-129261752D01*
X124815986Y-129243608D01*
X124853220Y-129232405D01*
X124892611Y-129228606D01*
X124920812Y-129230489D01*
G37*
G36*
X124587277Y-128778803D02*
G01*
X124587277Y-128844626D01*
X124997636Y-128990928D01*
X124587277Y-129136496D01*
X124587277Y-129203022D01*
X125075000Y-129023076D01*
X125075000Y-128958046D01*
X124587277Y-128778803D01*
G37*
G36*
X124687233Y-128686754D02*
G01*
X125075000Y-128686754D01*
X125075000Y-128625296D01*
X124587277Y-128625296D01*
X124587277Y-128681747D01*
X124598120Y-128683755D01*
X124607507Y-128687466D01*
X124621924Y-128699198D01*
X124632078Y-128717321D01*
X124638058Y-128743840D01*
X124639087Y-128758164D01*
X124687233Y-128758164D01*
X124687233Y-128686754D01*
G37*
G36*
X124910227Y-128114401D02*
G01*
X124850876Y-128114401D01*
X124850876Y-128306071D01*
X124910227Y-128306071D01*
X124910227Y-128114401D01*
G37*
G36*
X124935720Y-127485689D02*
G01*
X124916981Y-127486657D01*
X124899991Y-127489525D01*
X124885393Y-127493951D01*
X124872178Y-127499991D01*
X124849719Y-127516533D01*
X124830880Y-127539973D01*
X124814609Y-127572591D01*
X124800188Y-127618703D01*
X124791525Y-127658674D01*
X124783620Y-127696327D01*
X124775112Y-127725616D01*
X124767982Y-127742998D01*
X124760167Y-127756446D01*
X124752874Y-127765106D01*
X124744892Y-127771489D01*
X124727294Y-127778329D01*
X124711413Y-127779697D01*
X124698663Y-127778715D01*
X124686742Y-127775748D01*
X124676389Y-127771121D01*
X124666953Y-127764688D01*
X124658723Y-127756652D01*
X124651533Y-127746849D01*
X124640489Y-127721441D01*
X124634657Y-127686987D01*
X124634111Y-127670765D01*
X124635074Y-127651335D01*
X124637906Y-127633737D01*
X124642274Y-127618668D01*
X124648194Y-127605297D01*
X124655289Y-127594045D01*
X124663687Y-127584391D01*
X124683773Y-127570108D01*
X124708545Y-127562097D01*
X124728449Y-127560428D01*
X124728449Y-127498299D01*
X124709030Y-127499267D01*
X124690746Y-127502135D01*
X124674044Y-127506713D01*
X124658504Y-127512999D01*
X124644370Y-127520813D01*
X124631441Y-127530187D01*
X124609364Y-127553404D01*
X124592352Y-127582723D01*
X124580852Y-127618427D01*
X124575659Y-127660798D01*
X124575462Y-127671467D01*
X124576427Y-127694756D01*
X124579276Y-127716665D01*
X124583818Y-127736673D01*
X124590028Y-127755197D01*
X124597605Y-127771707D01*
X124606637Y-127786664D01*
X124616743Y-127799629D01*
X124628110Y-127810992D01*
X124640368Y-127820473D01*
X124653724Y-127828299D01*
X124667934Y-127834339D01*
X124683114Y-127838643D01*
X124713490Y-127841826D01*
X124730896Y-127840855D01*
X124746817Y-127837968D01*
X124760635Y-127833485D01*
X124773252Y-127827339D01*
X124795025Y-127810317D01*
X124813585Y-127785899D01*
X124829691Y-127751712D01*
X124843656Y-127703689D01*
X124850052Y-127671619D01*
X124856752Y-127637845D01*
X124864242Y-127610634D01*
X124871382Y-127591873D01*
X124879161Y-127577081D01*
X124886692Y-127566837D01*
X124894770Y-127559116D01*
X124912026Y-127550165D01*
X124935720Y-127547147D01*
X124949858Y-127548126D01*
X124962972Y-127551072D01*
X124974299Y-127555642D01*
X124984611Y-127561970D01*
X124993632Y-127569837D01*
X125001587Y-127579393D01*
X125014263Y-127604048D01*
X125022142Y-127637437D01*
X125024166Y-127670062D01*
X125023200Y-127689274D01*
X125020344Y-127707227D01*
X125015829Y-127723324D01*
X125009655Y-127738022D01*
X125002192Y-127750759D01*
X124993295Y-127762005D01*
X124983380Y-127771370D01*
X124972221Y-127779165D01*
X124960120Y-127785202D01*
X124946912Y-127789570D01*
X124918654Y-127792978D01*
X124918654Y-127856542D01*
X124937806Y-127855575D01*
X124956034Y-127852717D01*
X124973113Y-127848086D01*
X124989174Y-127841723D01*
X125004111Y-127833721D01*
X125017926Y-127824119D01*
X125042070Y-127800240D01*
X125061216Y-127770254D01*
X125074759Y-127734276D01*
X125081910Y-127692501D01*
X125082815Y-127670062D01*
X125081842Y-127644765D01*
X125078938Y-127620856D01*
X125074368Y-127599384D01*
X125068070Y-127579414D01*
X125060503Y-127561937D01*
X125051411Y-127546011D01*
X125041371Y-127532399D01*
X125029983Y-127520358D01*
X125017790Y-127510347D01*
X125004379Y-127501934D01*
X124990097Y-127495321D01*
X124974674Y-127490374D01*
X124940516Y-127485754D01*
X124935720Y-127485689D01*
G37*
G36*
X124911326Y-127370834D02*
G01*
X124940735Y-127364773D01*
X124956117Y-127358811D01*
X124970149Y-127351258D01*
X124983135Y-127341986D01*
X124994588Y-127331371D01*
X125004653Y-127319320D01*
X125013010Y-127306234D01*
X125019635Y-127292220D01*
X125024421Y-127277538D01*
X125028258Y-127247308D01*
X125027778Y-127235171D01*
X125021674Y-127204986D01*
X125016090Y-127191612D01*
X125008884Y-127179394D01*
X124999844Y-127168052D01*
X124989200Y-127157952D01*
X124976336Y-127148684D01*
X124961823Y-127140819D01*
X124961823Y-127075881D01*
X124962130Y-127075981D01*
X124998253Y-127091759D01*
X125028044Y-127112830D01*
X125040651Y-127125261D01*
X125051717Y-127138904D01*
X125061295Y-127153855D01*
X125069242Y-127169941D01*
X125075634Y-127187456D01*
X125080267Y-127206044D01*
X125083157Y-127226169D01*
X125084128Y-127247308D01*
X125082191Y-127274525D01*
X125078449Y-127293485D01*
X125072851Y-127311657D01*
X125065368Y-127329208D01*
X125056174Y-127345746D01*
X125045283Y-127361284D01*
X125032865Y-127375587D01*
X125003927Y-127400027D01*
X124970541Y-127418142D01*
X124933882Y-127429298D01*
X124894962Y-127433086D01*
X124867733Y-127431216D01*
X124848172Y-127427489D01*
X124829366Y-127421890D01*
X124811153Y-127414395D01*
X124793959Y-127405192D01*
X124777855Y-127394359D01*
X124763019Y-127382034D01*
X124737872Y-127353695D01*
X124719434Y-127321585D01*
X124708204Y-127286970D01*
X124704422Y-127250819D01*
X124760293Y-127250819D01*
X124760618Y-127259008D01*
X124762798Y-127273642D01*
X124766967Y-127288070D01*
X124780916Y-127315278D01*
X124801261Y-127338386D01*
X124826675Y-127355954D01*
X124856158Y-127367171D01*
X124856158Y-127135873D01*
X124848613Y-127137989D01*
X124833146Y-127143867D01*
X124818864Y-127151409D01*
X124805699Y-127160591D01*
X124793978Y-127171145D01*
X124775408Y-127195543D01*
X124764075Y-127222668D01*
X124760293Y-127250819D01*
X124704422Y-127250819D01*
X124707675Y-127217710D01*
X124712204Y-127199867D01*
X124718622Y-127182528D01*
X124736775Y-127150216D01*
X124761394Y-127122075D01*
X124791713Y-127099087D01*
X124827088Y-127081982D01*
X124846448Y-127075846D01*
X124867057Y-127071368D01*
X124888615Y-127068686D01*
X124911326Y-127067851D01*
X124911326Y-127370834D01*
G37*
G36*
X124920812Y-126635164D02*
G01*
X124940607Y-126638834D01*
X124959600Y-126644342D01*
X124977736Y-126651628D01*
X124994830Y-126660588D01*
X125025249Y-126683015D01*
X125049845Y-126710556D01*
X125067923Y-126742157D01*
X125079031Y-126776922D01*
X125082815Y-126814174D01*
X125082814Y-126814657D01*
X125081665Y-126832365D01*
X125078485Y-126849393D01*
X125073054Y-126866785D01*
X125065801Y-126883079D01*
X125056544Y-126898797D01*
X125045899Y-126912947D01*
X125021846Y-126935685D01*
X125234734Y-126935685D01*
X125234734Y-126997143D01*
X124712879Y-126997143D01*
X124712879Y-126937792D01*
X124768078Y-126937792D01*
X124759797Y-126931532D01*
X124736333Y-126907195D01*
X124718396Y-126877909D01*
X124707420Y-126846372D01*
X124703750Y-126814174D01*
X124760323Y-126814174D01*
X124760708Y-126823365D01*
X124762998Y-126838274D01*
X124767237Y-126852594D01*
X124773526Y-126866640D01*
X124781615Y-126879783D01*
X124791523Y-126892063D01*
X124802989Y-126903121D01*
X124829802Y-126920893D01*
X124860214Y-126931939D01*
X124892611Y-126935685D01*
X124904980Y-126935159D01*
X124921905Y-126932691D01*
X124938068Y-126928327D01*
X124953582Y-126922085D01*
X124968008Y-126914169D01*
X124992904Y-126893985D01*
X125011315Y-126869535D01*
X125022514Y-126842517D01*
X125026273Y-126814174D01*
X125025945Y-126805669D01*
X125023772Y-126790888D01*
X125019672Y-126776767D01*
X125013533Y-126762957D01*
X125005604Y-126750083D01*
X124995780Y-126737995D01*
X124984377Y-126727134D01*
X124971483Y-126717584D01*
X124957301Y-126709526D01*
X124926135Y-126698497D01*
X124892611Y-126694740D01*
X124881056Y-126695184D01*
X124864020Y-126697508D01*
X124847763Y-126701709D01*
X124832312Y-126707721D01*
X124817953Y-126715389D01*
X124793352Y-126734946D01*
X124775186Y-126758812D01*
X124764082Y-126785560D01*
X124760323Y-126814174D01*
X124703750Y-126814174D01*
X124705290Y-126790225D01*
X124708733Y-126771563D01*
X124714029Y-126753739D01*
X124721247Y-126736469D01*
X124730179Y-126720238D01*
X124740915Y-126704872D01*
X124753194Y-126690755D01*
X124767029Y-126677866D01*
X124782195Y-126666428D01*
X124815986Y-126648283D01*
X124853220Y-126637080D01*
X124892611Y-126633282D01*
X124920812Y-126635164D01*
G37*
G36*
X125017663Y-126405098D02*
G01*
X125017745Y-126422705D01*
X125015411Y-126439151D01*
X125011582Y-126451037D01*
X125005780Y-126461683D01*
X124999031Y-126469700D01*
X124990529Y-126476480D01*
X124980758Y-126481623D01*
X124969190Y-126485408D01*
X124941612Y-126488415D01*
X124770245Y-126488415D01*
X124770245Y-126406502D01*
X124711566Y-126406502D01*
X124711566Y-126488415D01*
X124634569Y-126488415D01*
X124634569Y-126549171D01*
X124711566Y-126549171D01*
X124711566Y-126598172D01*
X124770245Y-126598172D01*
X124770245Y-126549171D01*
X124941612Y-126549171D01*
X124961511Y-126548207D01*
X124979968Y-126545369D01*
X124996505Y-126540884D01*
X125011592Y-126534773D01*
X125024899Y-126527298D01*
X125036743Y-126518409D01*
X125046973Y-126508301D01*
X125055698Y-126496945D01*
X125068520Y-126470642D01*
X125074875Y-126439502D01*
X125074206Y-126405098D01*
X125017663Y-126405098D01*
G37*
G36*
X124895023Y-125977124D02*
G01*
X124869211Y-125932236D01*
X124844195Y-125894215D01*
X124817879Y-125863761D01*
X124803581Y-125851592D01*
X124788172Y-125841578D01*
X124773790Y-125834739D01*
X124758221Y-125829626D01*
X124723901Y-125824831D01*
X124717123Y-125824716D01*
X124700033Y-125825685D01*
X124683539Y-125828563D01*
X124667850Y-125833269D01*
X124652987Y-125839771D01*
X124639181Y-125847945D01*
X124626417Y-125857796D01*
X124614910Y-125869167D01*
X124604651Y-125882097D01*
X124595812Y-125896431D01*
X124588420Y-125912218D01*
X124582608Y-125929338D01*
X124578446Y-125947815D01*
X124575462Y-125983901D01*
X124576421Y-126004137D01*
X124579231Y-126023132D01*
X124583779Y-126040852D01*
X124589964Y-126057308D01*
X124607012Y-126086619D01*
X124629975Y-126111065D01*
X124658564Y-126130346D01*
X124692375Y-126143852D01*
X124730632Y-126150757D01*
X124746798Y-126151482D01*
X124746798Y-126088651D01*
X124727697Y-126087227D01*
X124709579Y-126083802D01*
X124694008Y-126078830D01*
X124679706Y-126072061D01*
X124667905Y-126064251D01*
X124657501Y-126054858D01*
X124649196Y-126044634D01*
X124642375Y-126032970D01*
X124637321Y-126020312D01*
X124633890Y-126006257D01*
X124632035Y-125983901D01*
X124632980Y-125966238D01*
X124635690Y-125950631D01*
X124639928Y-125937099D01*
X124645528Y-125925394D01*
X124660376Y-125906810D01*
X124679701Y-125894072D01*
X124703101Y-125887201D01*
X124717123Y-125886174D01*
X124733585Y-125887233D01*
X124748482Y-125890740D01*
X124759519Y-125895578D01*
X124770173Y-125902505D01*
X124791535Y-125923786D01*
X124818162Y-125962328D01*
X124843640Y-126006769D01*
X124871015Y-126054117D01*
X124886018Y-126076107D01*
X124902348Y-126096430D01*
X124917777Y-126112328D01*
X124934663Y-126126417D01*
X124950456Y-126136851D01*
X124967615Y-126145599D01*
X124984762Y-126152027D01*
X125003293Y-126156753D01*
X125022638Y-126159582D01*
X125043475Y-126160580D01*
X125043950Y-126160580D01*
X125075000Y-126160580D01*
X125075000Y-125827525D01*
X125015648Y-125827525D01*
X125015648Y-126095551D01*
X124991675Y-126089424D01*
X124968642Y-126075632D01*
X124944797Y-126052369D01*
X124917993Y-126015616D01*
X124895023Y-125977124D01*
G37*
G36*
X124842980Y-125404532D02*
G01*
X124900991Y-125409739D01*
X124950071Y-125421286D01*
X124990758Y-125438205D01*
X125023611Y-125459717D01*
X125037256Y-125472013D01*
X125049116Y-125485278D01*
X125059237Y-125499513D01*
X125067555Y-125514581D01*
X125074162Y-125530673D01*
X125078906Y-125547473D01*
X125081838Y-125565347D01*
X125082815Y-125583801D01*
X125082692Y-125590364D01*
X125077640Y-125625140D01*
X125065401Y-125656932D01*
X125056609Y-125671664D01*
X125046025Y-125685560D01*
X125033556Y-125698634D01*
X125019269Y-125710711D01*
X125002912Y-125721869D01*
X124984682Y-125731847D01*
X124964181Y-125740716D01*
X124941734Y-125748196D01*
X124916837Y-125754308D01*
X124889915Y-125758802D01*
X124860410Y-125761625D01*
X124828803Y-125762587D01*
X124815590Y-125762424D01*
X124757472Y-125757323D01*
X124708324Y-125745871D01*
X124667595Y-125729037D01*
X124634714Y-125707603D01*
X124621055Y-125695340D01*
X124609188Y-125682112D01*
X124599057Y-125667907D01*
X124590734Y-125652874D01*
X124584121Y-125636812D01*
X124579373Y-125620048D01*
X124576439Y-125602210D01*
X124575462Y-125583801D01*
X124632035Y-125583801D01*
X124634371Y-125605501D01*
X124638235Y-125618320D01*
X124643919Y-125630392D01*
X124651636Y-125641977D01*
X124661227Y-125652681D01*
X124673260Y-125662903D01*
X124687294Y-125672054D01*
X124704229Y-125680487D01*
X124723323Y-125687610D01*
X124745664Y-125693613D01*
X124770310Y-125698031D01*
X124798353Y-125700868D01*
X124828803Y-125701831D01*
X124885258Y-125698346D01*
X124930948Y-125688788D01*
X124966407Y-125674522D01*
X124992794Y-125656597D01*
X125011223Y-125635570D01*
X125017711Y-125623888D01*
X125022396Y-125611443D01*
X125025300Y-125597976D01*
X125026273Y-125583801D01*
X125023938Y-125561949D01*
X125020092Y-125549111D01*
X125014437Y-125537041D01*
X125006762Y-125525479D01*
X124997224Y-125514810D01*
X124985237Y-125504620D01*
X124971252Y-125495507D01*
X124954320Y-125487093D01*
X124935215Y-125479993D01*
X124912761Y-125473992D01*
X124887968Y-125469578D01*
X124859619Y-125466735D01*
X124828803Y-125465771D01*
X124772484Y-125469231D01*
X124726928Y-125478736D01*
X124691635Y-125492925D01*
X124665393Y-125510774D01*
X124647051Y-125531764D01*
X124640583Y-125543463D01*
X124635910Y-125555948D01*
X124633007Y-125569503D01*
X124632035Y-125583801D01*
X124575462Y-125583801D01*
X124575593Y-125576958D01*
X124580673Y-125541933D01*
X124592896Y-125510010D01*
X124601657Y-125495249D01*
X124612199Y-125481334D01*
X124624609Y-125468258D01*
X124638828Y-125456184D01*
X124655105Y-125445033D01*
X124673249Y-125435066D01*
X124693666Y-125426204D01*
X124716028Y-125418731D01*
X124740859Y-125412621D01*
X124767721Y-125408130D01*
X124797203Y-125405305D01*
X124828803Y-125404344D01*
X124842980Y-125404532D01*
G37*
G36*
X124895023Y-125166237D02*
G01*
X124869211Y-125121350D01*
X124844195Y-125083329D01*
X124817879Y-125052875D01*
X124803581Y-125040706D01*
X124788172Y-125030692D01*
X124773790Y-125023853D01*
X124758221Y-125018739D01*
X124723901Y-125013945D01*
X124717123Y-125013830D01*
X124700033Y-125014799D01*
X124683539Y-125017676D01*
X124667850Y-125022383D01*
X124652987Y-125028885D01*
X124639181Y-125037059D01*
X124626417Y-125046910D01*
X124614910Y-125058281D01*
X124604651Y-125071211D01*
X124595812Y-125085545D01*
X124588420Y-125101332D01*
X124582608Y-125118452D01*
X124578446Y-125136929D01*
X124575462Y-125173015D01*
X124576421Y-125193251D01*
X124579231Y-125212246D01*
X124583779Y-125229966D01*
X124589964Y-125246421D01*
X124607012Y-125275733D01*
X124629975Y-125300178D01*
X124658564Y-125319460D01*
X124692375Y-125332965D01*
X124730632Y-125339871D01*
X124746798Y-125340596D01*
X124746798Y-125277765D01*
X124727697Y-125276341D01*
X124709579Y-125272916D01*
X124694008Y-125267944D01*
X124679706Y-125261175D01*
X124667905Y-125253365D01*
X124657501Y-125243972D01*
X124649196Y-125233748D01*
X124642375Y-125222083D01*
X124637321Y-125209426D01*
X124633890Y-125195370D01*
X124632035Y-125173015D01*
X124632980Y-125155352D01*
X124635690Y-125139745D01*
X124639928Y-125126212D01*
X124645528Y-125114507D01*
X124660376Y-125095923D01*
X124679701Y-125083186D01*
X124703101Y-125076315D01*
X124717123Y-125075287D01*
X124733585Y-125076347D01*
X124748482Y-125079853D01*
X124759519Y-125084692D01*
X124770173Y-125091618D01*
X124791535Y-125112900D01*
X124818162Y-125151442D01*
X124843640Y-125195882D01*
X124871015Y-125243231D01*
X124886018Y-125265221D01*
X124902348Y-125285544D01*
X124917777Y-125301442D01*
X124934663Y-125315531D01*
X124950456Y-125325965D01*
X124967615Y-125334712D01*
X124984762Y-125341141D01*
X125003293Y-125345866D01*
X125022638Y-125348696D01*
X125043475Y-125349694D01*
X125043950Y-125349694D01*
X125075000Y-125349694D01*
X125075000Y-125016639D01*
X125015648Y-125016639D01*
X125015648Y-125284665D01*
X124991675Y-125278538D01*
X124968642Y-125264746D01*
X124944797Y-125241483D01*
X124917993Y-125204730D01*
X124895023Y-125166237D01*
G37*
G36*
X124941594Y-124616443D02*
G01*
X124977795Y-124625767D01*
X125009509Y-124641601D01*
X125035646Y-124662883D01*
X125049685Y-124678982D01*
X125059555Y-124693629D01*
X125067764Y-124709334D01*
X125074269Y-124726028D01*
X125078985Y-124743546D01*
X125081848Y-124761711D01*
X125082815Y-124780456D01*
X125079420Y-124816301D01*
X125068921Y-124850202D01*
X125051696Y-124880121D01*
X125040601Y-124893522D01*
X125027891Y-124905783D01*
X125013404Y-124917168D01*
X124997446Y-124927172D01*
X124978972Y-124936260D01*
X124958913Y-124943798D01*
X124936014Y-124950082D01*
X124911420Y-124954631D01*
X124883507Y-124957562D01*
X124853777Y-124958539D01*
X124796652Y-124955993D01*
X124739820Y-124947161D01*
X124692992Y-124932998D01*
X124654932Y-124914270D01*
X124633983Y-124899320D01*
X124608695Y-124873798D01*
X124590523Y-124844780D01*
X124584028Y-124828869D01*
X124579337Y-124812134D01*
X124576435Y-124794241D01*
X124575462Y-124775571D01*
X124578134Y-124743949D01*
X124587733Y-124710758D01*
X124603828Y-124682038D01*
X124614241Y-124669385D01*
X124626203Y-124657937D01*
X124635664Y-124650668D01*
X124650669Y-124641348D01*
X124667062Y-124633566D01*
X124685444Y-124627157D01*
X124705185Y-124622461D01*
X124705185Y-124685323D01*
X124682232Y-124693232D01*
X124661107Y-124706451D01*
X124645618Y-124723980D01*
X124639962Y-124734490D01*
X124635680Y-124746546D01*
X124632979Y-124760189D01*
X124632035Y-124775571D01*
X124632191Y-124781275D01*
X124633930Y-124794981D01*
X124637525Y-124807850D01*
X124643173Y-124820392D01*
X124650661Y-124832008D01*
X124660665Y-124843469D01*
X124672570Y-124853840D01*
X124687586Y-124863905D01*
X124704566Y-124872652D01*
X124725046Y-124880646D01*
X124747457Y-124887062D01*
X124773224Y-124892143D01*
X124800715Y-124895403D01*
X124800096Y-124894954D01*
X124787412Y-124884323D01*
X124776129Y-124872106D01*
X124765777Y-124857758D01*
X124757154Y-124842311D01*
X124745360Y-124809295D01*
X124741632Y-124778349D01*
X124798822Y-124778349D01*
X124802355Y-124806045D01*
X124806994Y-124819857D01*
X124813406Y-124832788D01*
X124831143Y-124855461D01*
X124854383Y-124872705D01*
X124881873Y-124883540D01*
X124912547Y-124887281D01*
X124943765Y-124883794D01*
X124971729Y-124873398D01*
X124994563Y-124856956D01*
X125011684Y-124835233D01*
X125017919Y-124822589D01*
X125022491Y-124808853D01*
X125025312Y-124794068D01*
X125026273Y-124778349D01*
X125023720Y-124753732D01*
X125019824Y-124740301D01*
X125014253Y-124727964D01*
X125007009Y-124716680D01*
X124998219Y-124706633D01*
X124987722Y-124697708D01*
X124975782Y-124690206D01*
X124962104Y-124684052D01*
X124947088Y-124679542D01*
X124930420Y-124676701D01*
X124912547Y-124675737D01*
X124881286Y-124678879D01*
X124852744Y-124688575D01*
X124829994Y-124703799D01*
X124813193Y-124723890D01*
X124807087Y-124735691D01*
X124802586Y-124748680D01*
X124799781Y-124762941D01*
X124798822Y-124778349D01*
X124741632Y-124778349D01*
X124741547Y-124777647D01*
X124743348Y-124752220D01*
X124752183Y-124717532D01*
X124767784Y-124686756D01*
X124789449Y-124660746D01*
X124805792Y-124646873D01*
X124820613Y-124637237D01*
X124836582Y-124629239D01*
X124853970Y-124622800D01*
X124872362Y-124618137D01*
X124892034Y-124615250D01*
X124912547Y-124614279D01*
X124941594Y-124616443D01*
G37*
G36*
X125703651Y-131542447D02*
G01*
X125751622Y-131550507D01*
X125793392Y-131564909D01*
X125829073Y-131585016D01*
X125858778Y-131610397D01*
X125871409Y-131625003D01*
X125882518Y-131640838D01*
X125892129Y-131657986D01*
X125900114Y-131676295D01*
X125906510Y-131696004D01*
X125911151Y-131716818D01*
X125914030Y-131739104D01*
X125915000Y-131762443D01*
X125915000Y-131943305D01*
X125427185Y-131943305D01*
X125427185Y-131762443D01*
X125485834Y-131762443D01*
X125485834Y-131881847D01*
X125855648Y-131881847D01*
X125855648Y-131762443D01*
X125854960Y-131745443D01*
X125848504Y-131710291D01*
X125835785Y-131680166D01*
X125817048Y-131654772D01*
X125805357Y-131643795D01*
X125792018Y-131633976D01*
X125776859Y-131625325D01*
X125759956Y-131618015D01*
X125740833Y-131612014D01*
X125719814Y-131607588D01*
X125696148Y-131604768D01*
X125670390Y-131603807D01*
X125655117Y-131604129D01*
X125609444Y-131609670D01*
X125572251Y-131621259D01*
X125556410Y-131629104D01*
X125542301Y-131638217D01*
X125529650Y-131648731D01*
X125518706Y-131660392D01*
X125509032Y-131673724D01*
X125501119Y-131688118D01*
X125494545Y-131704566D01*
X125489855Y-131721992D01*
X125486825Y-131741793D01*
X125485834Y-131762443D01*
X125427185Y-131762443D01*
X125428449Y-131735688D01*
X125436269Y-131693438D01*
X125450747Y-131656032D01*
X125471529Y-131623406D01*
X125484268Y-131608864D01*
X125498497Y-131595610D01*
X125514386Y-131583547D01*
X125531725Y-131572892D01*
X125550838Y-131563533D01*
X125571374Y-131555729D01*
X125593780Y-131549411D01*
X125617585Y-131544813D01*
X125643303Y-131541944D01*
X125670390Y-131540976D01*
X125703651Y-131542447D01*
G37*
G36*
X125751326Y-131429173D02*
G01*
X125780735Y-131423112D01*
X125796117Y-131417150D01*
X125810149Y-131409597D01*
X125823135Y-131400326D01*
X125834588Y-131389711D01*
X125844653Y-131377659D01*
X125853010Y-131364573D01*
X125859635Y-131350560D01*
X125864421Y-131335877D01*
X125868258Y-131305648D01*
X125867778Y-131293511D01*
X125861674Y-131263325D01*
X125856090Y-131249952D01*
X125848884Y-131237733D01*
X125839844Y-131226391D01*
X125829200Y-131216292D01*
X125816336Y-131207023D01*
X125801823Y-131199158D01*
X125801823Y-131134220D01*
X125802130Y-131134320D01*
X125838253Y-131150098D01*
X125868044Y-131171170D01*
X125880651Y-131183600D01*
X125891717Y-131197243D01*
X125901295Y-131212194D01*
X125909242Y-131228280D01*
X125915634Y-131245795D01*
X125920267Y-131264383D01*
X125923157Y-131284508D01*
X125924128Y-131305648D01*
X125922191Y-131332864D01*
X125918449Y-131351824D01*
X125912851Y-131369996D01*
X125905368Y-131387547D01*
X125896174Y-131404085D01*
X125885283Y-131419624D01*
X125872865Y-131433926D01*
X125843927Y-131458366D01*
X125810541Y-131476481D01*
X125773882Y-131487637D01*
X125734962Y-131491425D01*
X125707733Y-131489555D01*
X125688172Y-131485828D01*
X125669366Y-131480229D01*
X125651153Y-131472734D01*
X125633959Y-131463531D01*
X125617855Y-131452698D01*
X125603019Y-131440373D01*
X125577872Y-131412034D01*
X125559434Y-131379924D01*
X125548204Y-131345310D01*
X125544422Y-131309159D01*
X125600293Y-131309159D01*
X125600618Y-131317347D01*
X125602798Y-131331981D01*
X125606967Y-131346409D01*
X125620916Y-131373617D01*
X125641261Y-131396725D01*
X125666675Y-131414293D01*
X125696158Y-131425510D01*
X125696158Y-131194212D01*
X125688613Y-131196328D01*
X125673146Y-131202206D01*
X125658864Y-131209748D01*
X125645699Y-131218930D01*
X125633978Y-131229484D01*
X125615408Y-131253882D01*
X125604075Y-131281007D01*
X125600293Y-131309159D01*
X125544422Y-131309159D01*
X125547675Y-131276050D01*
X125552204Y-131258206D01*
X125558622Y-131240868D01*
X125576775Y-131208555D01*
X125601394Y-131180414D01*
X125631713Y-131157426D01*
X125667088Y-131140321D01*
X125686448Y-131134185D01*
X125707057Y-131129707D01*
X125728615Y-131127025D01*
X125751326Y-131126190D01*
X125751326Y-131429173D01*
G37*
G36*
X125805609Y-130774236D02*
G01*
X125789250Y-130775195D01*
X125774725Y-130777998D01*
X125762382Y-130782324D01*
X125751492Y-130788153D01*
X125733413Y-130804164D01*
X125718887Y-130827099D01*
X125707021Y-130859807D01*
X125696792Y-130908667D01*
X125694845Y-130920660D01*
X125686950Y-130963169D01*
X125678302Y-130990605D01*
X125673020Y-130999740D01*
X125666901Y-131005908D01*
X125654026Y-131010601D01*
X125649691Y-131010816D01*
X125634249Y-131007060D01*
X125620230Y-130995692D01*
X125608565Y-130975947D01*
X125601426Y-130947836D01*
X125600323Y-130929911D01*
X125601301Y-130913336D01*
X125604237Y-130897995D01*
X125608721Y-130885030D01*
X125614900Y-130873459D01*
X125622151Y-130864112D01*
X125630866Y-130856228D01*
X125640534Y-130850195D01*
X125651536Y-130845714D01*
X125658361Y-130843907D01*
X125658361Y-130781808D01*
X125641740Y-130784595D01*
X125626281Y-130789160D01*
X125612249Y-130795320D01*
X125599414Y-130803075D01*
X125577525Y-130823068D01*
X125560638Y-130849081D01*
X125549176Y-130881301D01*
X125543958Y-130919902D01*
X125543750Y-130929911D01*
X125544701Y-130951221D01*
X125547446Y-130970743D01*
X125551843Y-130988548D01*
X125557726Y-131004586D01*
X125565020Y-131019024D01*
X125573502Y-131031692D01*
X125593802Y-131052123D01*
X125617605Y-131065670D01*
X125643568Y-131071898D01*
X125651797Y-131072274D01*
X125666926Y-131071306D01*
X125680451Y-131068442D01*
X125691854Y-131064045D01*
X125702015Y-131058053D01*
X125719083Y-131041342D01*
X125733161Y-131016651D01*
X125744941Y-130980271D01*
X125754135Y-130930735D01*
X125759444Y-130898474D01*
X125765503Y-130874197D01*
X125771181Y-130859151D01*
X125777396Y-130848299D01*
X125783332Y-130841674D01*
X125789691Y-130837348D01*
X125804154Y-130833738D01*
X125809120Y-130833587D01*
X125826748Y-130837407D01*
X125842688Y-130848845D01*
X125855863Y-130868249D01*
X125860907Y-130881091D01*
X125864511Y-130895722D01*
X125866853Y-130922889D01*
X125865889Y-130939915D01*
X125863045Y-130955920D01*
X125858515Y-130970411D01*
X125852328Y-130983559D01*
X125844912Y-130994730D01*
X125836101Y-131004346D01*
X125826488Y-131011904D01*
X125815723Y-131017778D01*
X125799045Y-131022875D01*
X125799045Y-131085005D01*
X125816042Y-131081850D01*
X125831965Y-131076935D01*
X125846729Y-131070362D01*
X125860341Y-131062196D01*
X125884097Y-131041219D01*
X125902936Y-131014212D01*
X125916273Y-130981330D01*
X125923284Y-130942868D01*
X125924128Y-130922889D01*
X125923163Y-130901610D01*
X125920313Y-130881496D01*
X125915751Y-130863018D01*
X125909508Y-130845920D01*
X125901916Y-130830793D01*
X125892868Y-130817199D01*
X125882845Y-130805677D01*
X125871582Y-130795786D01*
X125859590Y-130787886D01*
X125846541Y-130781693D01*
X125832812Y-130777382D01*
X125818165Y-130774878D01*
X125805609Y-130774236D01*
G37*
G36*
X125426514Y-130641612D02*
G01*
X125426514Y-130703070D01*
X125499176Y-130703070D01*
X125499176Y-130641612D01*
X125426514Y-130641612D01*
G37*
G36*
X125551933Y-130641612D02*
G01*
X125551933Y-130703070D01*
X125915000Y-130703070D01*
X125915000Y-130641612D01*
X125551933Y-130641612D01*
G37*
G36*
X125932305Y-130205560D02*
G01*
X125971984Y-130215009D01*
X126006687Y-130230945D01*
X126036056Y-130252749D01*
X126059740Y-130279906D01*
X126069334Y-130295370D01*
X126077338Y-130312004D01*
X126083709Y-130329819D01*
X126088348Y-130348689D01*
X126091201Y-130368681D01*
X126092167Y-130389615D01*
X126091953Y-130399690D01*
X126086472Y-130439939D01*
X126074185Y-130475537D01*
X126055898Y-130505843D01*
X126032319Y-130530423D01*
X126003970Y-130548933D01*
X125988124Y-130555792D01*
X125971175Y-130560982D01*
X125971175Y-130496776D01*
X125991661Y-130484685D01*
X126002731Y-130474650D01*
X126011664Y-130463592D01*
X126020225Y-130448742D01*
X126026177Y-130433553D01*
X126031498Y-130409386D01*
X126032816Y-130389615D01*
X126032592Y-130380790D01*
X126030751Y-130363688D01*
X126027174Y-130348130D01*
X126021828Y-130333674D01*
X126014947Y-130320752D01*
X126006102Y-130308612D01*
X125995880Y-130298094D01*
X125983282Y-130288331D01*
X125969502Y-130280369D01*
X125953085Y-130273527D01*
X125935859Y-130268697D01*
X125916598Y-130265594D01*
X125897231Y-130264593D01*
X125862426Y-130264593D01*
X125867960Y-130268923D01*
X125891546Y-130293426D01*
X125909495Y-130322661D01*
X125920460Y-130354051D01*
X125924128Y-130386134D01*
X125922492Y-130410805D01*
X125918974Y-130429461D01*
X125913603Y-130447288D01*
X125906312Y-130464558D01*
X125897305Y-130480796D01*
X125886503Y-130496157D01*
X125874158Y-130510274D01*
X125860270Y-130523153D01*
X125845050Y-130534585D01*
X125811168Y-130552710D01*
X125773832Y-130563902D01*
X125734290Y-130567698D01*
X125705925Y-130565764D01*
X125686190Y-130562043D01*
X125667234Y-130556476D01*
X125649087Y-130549111D01*
X125631968Y-130540064D01*
X125601459Y-130517440D01*
X125576778Y-130489715D01*
X125558652Y-130458001D01*
X125547532Y-130423240D01*
X125543750Y-130386134D01*
X125601025Y-130386134D01*
X125601393Y-130395282D01*
X125603620Y-130410184D01*
X125607760Y-130424398D01*
X125613902Y-130438225D01*
X125621816Y-130451097D01*
X125631591Y-130463144D01*
X125642934Y-130473958D01*
X125655773Y-130483464D01*
X125669910Y-130491481D01*
X125701134Y-130502480D01*
X125734993Y-130506241D01*
X125747046Y-130505759D01*
X125764078Y-130503386D01*
X125780326Y-130499141D01*
X125795745Y-130493096D01*
X125810071Y-130485400D01*
X125834596Y-130465799D01*
X125852709Y-130441868D01*
X125863796Y-130414987D01*
X125867555Y-130386134D01*
X125867163Y-130376859D01*
X125864859Y-130361963D01*
X125860607Y-130347655D01*
X125854301Y-130333618D01*
X125846196Y-130320482D01*
X125836268Y-130308208D01*
X125824780Y-130297153D01*
X125797917Y-130279384D01*
X125767449Y-130268339D01*
X125734993Y-130264593D01*
X125722394Y-130265127D01*
X125705378Y-130267596D01*
X125689163Y-130271949D01*
X125673640Y-130278165D01*
X125659230Y-130286044D01*
X125634377Y-130306153D01*
X125615989Y-130330579D01*
X125604789Y-130357657D01*
X125601025Y-130386134D01*
X125543750Y-130386134D01*
X125543834Y-130381263D01*
X125545539Y-130363624D01*
X125549267Y-130346689D01*
X125555271Y-130329417D01*
X125563064Y-130313292D01*
X125572787Y-130297884D01*
X125583820Y-130284109D01*
X125608108Y-130262517D01*
X125552879Y-130262517D01*
X125552879Y-130203135D01*
X125897231Y-130203135D01*
X125932305Y-130205560D01*
G37*
G36*
X125697257Y-129805844D02*
G01*
X125676223Y-129806814D01*
X125656309Y-129809698D01*
X125638174Y-129814284D01*
X125621306Y-129820595D01*
X125606327Y-129828286D01*
X125592719Y-129837516D01*
X125580948Y-129847878D01*
X125570634Y-129859620D01*
X125562042Y-129872401D01*
X125555003Y-129886443D01*
X125549634Y-129901592D01*
X125545949Y-129917928D01*
X125543750Y-129945429D01*
X125547495Y-129978764D01*
X125558401Y-130009205D01*
X125566338Y-130022903D01*
X125575713Y-130035246D01*
X125590309Y-130049446D01*
X125552879Y-130049446D01*
X125552879Y-130108797D01*
X125915000Y-130108797D01*
X125915000Y-130047339D01*
X125693746Y-130047339D01*
X125679513Y-130046380D01*
X125666068Y-130043579D01*
X125653408Y-130038989D01*
X125641798Y-130032745D01*
X125622119Y-130015627D01*
X125614384Y-130005030D01*
X125608213Y-129993223D01*
X125603760Y-129980428D01*
X125601094Y-129966671D01*
X125600323Y-129953825D01*
X125601282Y-129939060D01*
X125604084Y-129925614D01*
X125608512Y-129913732D01*
X125614500Y-129903147D01*
X125630801Y-129885881D01*
X125652867Y-129873738D01*
X125680822Y-129867322D01*
X125695150Y-129866599D01*
X125915000Y-129866599D01*
X125915000Y-129805844D01*
X125697257Y-129805844D01*
G37*
G36*
X125751326Y-129671602D02*
G01*
X125780735Y-129665541D01*
X125796117Y-129659579D01*
X125810149Y-129652025D01*
X125823135Y-129642754D01*
X125834588Y-129632139D01*
X125844653Y-129620088D01*
X125853010Y-129607001D01*
X125859635Y-129592988D01*
X125864421Y-129578305D01*
X125868258Y-129548076D01*
X125867778Y-129535939D01*
X125861674Y-129505753D01*
X125856090Y-129492380D01*
X125848884Y-129480162D01*
X125839844Y-129468819D01*
X125829200Y-129458720D01*
X125816336Y-129449452D01*
X125801823Y-129441586D01*
X125801823Y-129376648D01*
X125802130Y-129376749D01*
X125838253Y-129392526D01*
X125868044Y-129413598D01*
X125880651Y-129426029D01*
X125891717Y-129439671D01*
X125901295Y-129454623D01*
X125909242Y-129470708D01*
X125915634Y-129488223D01*
X125920267Y-129506812D01*
X125923157Y-129526936D01*
X125924128Y-129548076D01*
X125922191Y-129575293D01*
X125918449Y-129594252D01*
X125912851Y-129612424D01*
X125905368Y-129629976D01*
X125896174Y-129646513D01*
X125885283Y-129662052D01*
X125872865Y-129676354D01*
X125843927Y-129700795D01*
X125810541Y-129718910D01*
X125773882Y-129730065D01*
X125734962Y-129733853D01*
X125707733Y-129731984D01*
X125688172Y-129728257D01*
X125669366Y-129722657D01*
X125651153Y-129715163D01*
X125633959Y-129705960D01*
X125617855Y-129695126D01*
X125603019Y-129682802D01*
X125577872Y-129654463D01*
X125559434Y-129622353D01*
X125548204Y-129587738D01*
X125544422Y-129551587D01*
X125600293Y-129551587D01*
X125600618Y-129559775D01*
X125602798Y-129574409D01*
X125606967Y-129588837D01*
X125620916Y-129616045D01*
X125641261Y-129639153D01*
X125666675Y-129656722D01*
X125696158Y-129667938D01*
X125696158Y-129436640D01*
X125688613Y-129438756D01*
X125673146Y-129444635D01*
X125658864Y-129452177D01*
X125645699Y-129461358D01*
X125633978Y-129471913D01*
X125615408Y-129496310D01*
X125604075Y-129523435D01*
X125600293Y-129551587D01*
X125544422Y-129551587D01*
X125547675Y-129518478D01*
X125552204Y-129500634D01*
X125558622Y-129483296D01*
X125576775Y-129450984D01*
X125601394Y-129422842D01*
X125631713Y-129399855D01*
X125667088Y-129382750D01*
X125686448Y-129376613D01*
X125707057Y-129372135D01*
X125728615Y-129369454D01*
X125751326Y-129368619D01*
X125751326Y-129671602D01*
G37*
G36*
X125915030Y-129019321D02*
G01*
X125859129Y-129019321D01*
X125868025Y-129025948D01*
X125891528Y-129050130D01*
X125909468Y-129079261D01*
X125920452Y-129110725D01*
X125924128Y-129142938D01*
X125922492Y-129167609D01*
X125918974Y-129186265D01*
X125913603Y-129204092D01*
X125906312Y-129221362D01*
X125897305Y-129237600D01*
X125886503Y-129252961D01*
X125874158Y-129267078D01*
X125860270Y-129279957D01*
X125845050Y-129291389D01*
X125811168Y-129309514D01*
X125773832Y-129320706D01*
X125734290Y-129324502D01*
X125705925Y-129322568D01*
X125686190Y-129318847D01*
X125667234Y-129313279D01*
X125649087Y-129305915D01*
X125631968Y-129296868D01*
X125601459Y-129274244D01*
X125576778Y-129246519D01*
X125558652Y-129214805D01*
X125547532Y-129180044D01*
X125543750Y-129142938D01*
X125601025Y-129142938D01*
X125601393Y-129152086D01*
X125603620Y-129166988D01*
X125607760Y-129181202D01*
X125613902Y-129195029D01*
X125621816Y-129207901D01*
X125631591Y-129219948D01*
X125642934Y-129230762D01*
X125655773Y-129240268D01*
X125669910Y-129248285D01*
X125701134Y-129259284D01*
X125734993Y-129263045D01*
X125747046Y-129262563D01*
X125764078Y-129260190D01*
X125780326Y-129255945D01*
X125795745Y-129249900D01*
X125810071Y-129242204D01*
X125834596Y-129222603D01*
X125852709Y-129198672D01*
X125863796Y-129171790D01*
X125867555Y-129142938D01*
X125867163Y-129133663D01*
X125864859Y-129118767D01*
X125860607Y-129104458D01*
X125854301Y-129090421D01*
X125846196Y-129077286D01*
X125836268Y-129065012D01*
X125824780Y-129053957D01*
X125797917Y-129036188D01*
X125767449Y-129025143D01*
X125734993Y-129021397D01*
X125722394Y-129021931D01*
X125705378Y-129024400D01*
X125689163Y-129028753D01*
X125673640Y-129034969D01*
X125659230Y-129042848D01*
X125634377Y-129062957D01*
X125615989Y-129087383D01*
X125604789Y-129114461D01*
X125601025Y-129142938D01*
X125543750Y-129142938D01*
X125543751Y-129142724D01*
X125544874Y-129125168D01*
X125548039Y-129108279D01*
X125553502Y-129090902D01*
X125560806Y-129074612D01*
X125570210Y-129058752D01*
X125581015Y-129044472D01*
X125605483Y-129021397D01*
X125392564Y-129021397D01*
X125392564Y-128959939D01*
X125915030Y-128959939D01*
X125915030Y-129019321D01*
G37*
G36*
X125762242Y-128291600D02*
G01*
X125781993Y-128295259D01*
X125800952Y-128300760D01*
X125819069Y-128308045D01*
X125836151Y-128317007D01*
X125866562Y-128339447D01*
X125891159Y-128367008D01*
X125909238Y-128398623D01*
X125920345Y-128433390D01*
X125924128Y-128470629D01*
X125924007Y-128476482D01*
X125922186Y-128494058D01*
X125918352Y-128510927D01*
X125912265Y-128528059D01*
X125904398Y-128544049D01*
X125894637Y-128559270D01*
X125883561Y-128572886D01*
X125859129Y-128594247D01*
X125915030Y-128594247D01*
X125915030Y-128653598D01*
X125392564Y-128653598D01*
X125392564Y-128592140D01*
X125605483Y-128592140D01*
X125599926Y-128587796D01*
X125576340Y-128563302D01*
X125558385Y-128534065D01*
X125547418Y-128502684D01*
X125543750Y-128470629D01*
X125601025Y-128470629D01*
X125601462Y-128480411D01*
X125603829Y-128495259D01*
X125608140Y-128509517D01*
X125614491Y-128523476D01*
X125622641Y-128536536D01*
X125632609Y-128548730D01*
X125644145Y-128559712D01*
X125671174Y-128577382D01*
X125701976Y-128588394D01*
X125734993Y-128592140D01*
X125746773Y-128591656D01*
X125763586Y-128589246D01*
X125779644Y-128584938D01*
X125795073Y-128578743D01*
X125809422Y-128570867D01*
X125834227Y-128550713D01*
X125852604Y-128526223D01*
X125863796Y-128499105D01*
X125867555Y-128470629D01*
X125867250Y-128462375D01*
X125865120Y-128447526D01*
X125861064Y-128433342D01*
X125854981Y-128419489D01*
X125847114Y-128406578D01*
X125837371Y-128394470D01*
X125826057Y-128383594D01*
X125813269Y-128374041D01*
X125799200Y-128365981D01*
X125768278Y-128354952D01*
X125734993Y-128351195D01*
X125722476Y-128351696D01*
X125705203Y-128354089D01*
X125688760Y-128358345D01*
X125673193Y-128364384D01*
X125658755Y-128372060D01*
X125634086Y-128391575D01*
X125615902Y-128415362D01*
X125604789Y-128442043D01*
X125601025Y-128470629D01*
X125543750Y-128470629D01*
X125545362Y-128446243D01*
X125548863Y-128427668D01*
X125554217Y-128409926D01*
X125561501Y-128392722D01*
X125570503Y-128376553D01*
X125581323Y-128361230D01*
X125593692Y-128347152D01*
X125607637Y-128334286D01*
X125622919Y-128322866D01*
X125639408Y-128312989D01*
X125656991Y-128304736D01*
X125694551Y-128293535D01*
X125734290Y-128289737D01*
X125762242Y-128291600D01*
G37*
G36*
X125552574Y-127928471D02*
G01*
X125552574Y-127994264D01*
X125837666Y-128096480D01*
X125552574Y-128200802D01*
X125552574Y-128267297D01*
X125911946Y-128128995D01*
X125962016Y-128147801D01*
X125979808Y-128155451D01*
X125993705Y-128164260D01*
X126001536Y-128171776D01*
X126007493Y-128180458D01*
X126013914Y-128200624D01*
X126014498Y-128229745D01*
X126071010Y-128229745D01*
X126072295Y-128208485D01*
X126071373Y-128189134D01*
X126068638Y-128173278D01*
X126064079Y-128158796D01*
X126058080Y-128146305D01*
X126050419Y-128134900D01*
X126030016Y-128115049D01*
X126000901Y-128097859D01*
X125983662Y-128090648D01*
X125552574Y-127928471D01*
G37*
G36*
X125748945Y-127380696D02*
G01*
X125426697Y-127380696D01*
X125426697Y-127441451D01*
X125748945Y-127441451D01*
X125768549Y-127442429D01*
X125786674Y-127445367D01*
X125802053Y-127449850D01*
X125815953Y-127456029D01*
X125827498Y-127463327D01*
X125837587Y-127472110D01*
X125845793Y-127481894D01*
X125852526Y-127493042D01*
X125861229Y-127519140D01*
X125863464Y-127544064D01*
X125862509Y-127559686D01*
X125859728Y-127574128D01*
X125855245Y-127587373D01*
X125849190Y-127599371D01*
X125832585Y-127619778D01*
X125810413Y-127634999D01*
X125783277Y-127644263D01*
X125758470Y-127646707D01*
X125758470Y-127707462D01*
X125795222Y-127703668D01*
X125829269Y-127692560D01*
X125859556Y-127674655D01*
X125872938Y-127663369D01*
X125884968Y-127650667D01*
X125895498Y-127636700D01*
X125904474Y-127621510D01*
X125911722Y-127605362D01*
X125917241Y-127588194D01*
X125920890Y-127570349D01*
X125922657Y-127551682D01*
X125922815Y-127544064D01*
X125921851Y-127523685D01*
X125919010Y-127504547D01*
X125914454Y-127486942D01*
X125908227Y-127470590D01*
X125900460Y-127455616D01*
X125891190Y-127441927D01*
X125868295Y-127418403D01*
X125839663Y-127400113D01*
X125805294Y-127387478D01*
X125765280Y-127381219D01*
X125748945Y-127380696D01*
G37*
G36*
X125551994Y-126988197D02*
G01*
X125551994Y-127049655D01*
X125774163Y-127049655D01*
X125788278Y-127050612D01*
X125801591Y-127053403D01*
X125825672Y-127064206D01*
X125845274Y-127081305D01*
X125853007Y-127091913D01*
X125859163Y-127103694D01*
X125863603Y-127116453D01*
X125866241Y-127130114D01*
X125866975Y-127142467D01*
X125866012Y-127157767D01*
X125863181Y-127171678D01*
X125858760Y-127183756D01*
X125852757Y-127194497D01*
X125836569Y-127211683D01*
X125814675Y-127223569D01*
X125786622Y-127229749D01*
X125772759Y-127230395D01*
X125551994Y-127230395D01*
X125551994Y-127291150D01*
X125769950Y-127291150D01*
X125790848Y-127290180D01*
X125810647Y-127287296D01*
X125828700Y-127282706D01*
X125845501Y-127276389D01*
X125860434Y-127268686D01*
X125874005Y-127259440D01*
X125885751Y-127249056D01*
X125896043Y-127237290D01*
X125904617Y-127224480D01*
X125911638Y-127210405D01*
X125916989Y-127195224D01*
X125920653Y-127178855D01*
X125922815Y-127151565D01*
X125919082Y-127117870D01*
X125908276Y-127087502D01*
X125891116Y-127061543D01*
X125876928Y-127047548D01*
X125914419Y-127047548D01*
X125914419Y-126988197D01*
X125551994Y-126988197D01*
G37*
G36*
X125805609Y-126606965D02*
G01*
X125789250Y-126607924D01*
X125774725Y-126610727D01*
X125762382Y-126615053D01*
X125751492Y-126620882D01*
X125733413Y-126636892D01*
X125718887Y-126659827D01*
X125707021Y-126692536D01*
X125696792Y-126741396D01*
X125694845Y-126753388D01*
X125686950Y-126795898D01*
X125678302Y-126823333D01*
X125673020Y-126832468D01*
X125666901Y-126838636D01*
X125654026Y-126843329D01*
X125649691Y-126843545D01*
X125634249Y-126839789D01*
X125620230Y-126828421D01*
X125608565Y-126808675D01*
X125601426Y-126780565D01*
X125600323Y-126762639D01*
X125601301Y-126746064D01*
X125604237Y-126730724D01*
X125608721Y-126717758D01*
X125614900Y-126706187D01*
X125622151Y-126696841D01*
X125630866Y-126688957D01*
X125640534Y-126682923D01*
X125651536Y-126678443D01*
X125658361Y-126676635D01*
X125658361Y-126614536D01*
X125641740Y-126617324D01*
X125626281Y-126621889D01*
X125612249Y-126628049D01*
X125599414Y-126635803D01*
X125577525Y-126655797D01*
X125560638Y-126681810D01*
X125549176Y-126714030D01*
X125543958Y-126752630D01*
X125543750Y-126762639D01*
X125544701Y-126783950D01*
X125547446Y-126803471D01*
X125551843Y-126821276D01*
X125557726Y-126837314D01*
X125565020Y-126851753D01*
X125573502Y-126864420D01*
X125593802Y-126884852D01*
X125617605Y-126898398D01*
X125643568Y-126904626D01*
X125651797Y-126905002D01*
X125666926Y-126904035D01*
X125680451Y-126901170D01*
X125691854Y-126896773D01*
X125702015Y-126890782D01*
X125719083Y-126874070D01*
X125733161Y-126849380D01*
X125744941Y-126813000D01*
X125754135Y-126763463D01*
X125759444Y-126731202D01*
X125765503Y-126706925D01*
X125771181Y-126691880D01*
X125777396Y-126681027D01*
X125783332Y-126674402D01*
X125789691Y-126670076D01*
X125804154Y-126666467D01*
X125809120Y-126666316D01*
X125826748Y-126670135D01*
X125842688Y-126681574D01*
X125855863Y-126700978D01*
X125860907Y-126713820D01*
X125864511Y-126728451D01*
X125866853Y-126755617D01*
X125865889Y-126772644D01*
X125863045Y-126788649D01*
X125858515Y-126803139D01*
X125852328Y-126816288D01*
X125844912Y-126827458D01*
X125836101Y-126837074D01*
X125826488Y-126844632D01*
X125815723Y-126850507D01*
X125799045Y-126855604D01*
X125799045Y-126917733D01*
X125816042Y-126914578D01*
X125831965Y-126909664D01*
X125846729Y-126903091D01*
X125860341Y-126894925D01*
X125884097Y-126873947D01*
X125902936Y-126846941D01*
X125916273Y-126814058D01*
X125923284Y-126775597D01*
X125924128Y-126755617D01*
X125923163Y-126734339D01*
X125920313Y-126714225D01*
X125915751Y-126695746D01*
X125909508Y-126678648D01*
X125901916Y-126663521D01*
X125892868Y-126649927D01*
X125882845Y-126638406D01*
X125871582Y-126628515D01*
X125859590Y-126620614D01*
X125846541Y-126614422D01*
X125832812Y-126610110D01*
X125818165Y-126607607D01*
X125805609Y-126606965D01*
G37*
G36*
X125857663Y-126382628D02*
G01*
X125857745Y-126400235D01*
X125855411Y-126416680D01*
X125851582Y-126428566D01*
X125845780Y-126439213D01*
X125839031Y-126447229D01*
X125830529Y-126454009D01*
X125820758Y-126459153D01*
X125809190Y-126462938D01*
X125781612Y-126465945D01*
X125610245Y-126465945D01*
X125610245Y-126384032D01*
X125551566Y-126384032D01*
X125551566Y-126465945D01*
X125474569Y-126465945D01*
X125474569Y-126526700D01*
X125551566Y-126526700D01*
X125551566Y-126575702D01*
X125610245Y-126575702D01*
X125610245Y-126526700D01*
X125781612Y-126526700D01*
X125801511Y-126525737D01*
X125819968Y-126522899D01*
X125836505Y-126518414D01*
X125851592Y-126512302D01*
X125864899Y-126504828D01*
X125876743Y-126495939D01*
X125886973Y-126485831D01*
X125895698Y-126474474D01*
X125908520Y-126448172D01*
X125914875Y-126417032D01*
X125914206Y-126382628D01*
X125857663Y-126382628D01*
G37*
G36*
X125426514Y-126255499D02*
G01*
X125426514Y-126316957D01*
X125499176Y-126316957D01*
X125499176Y-126255499D01*
X125426514Y-126255499D01*
G37*
G36*
X125551933Y-126255499D02*
G01*
X125551933Y-126316957D01*
X125915000Y-126316957D01*
X125915000Y-126255499D01*
X125551933Y-126255499D01*
G37*
G36*
X125697257Y-125852041D02*
G01*
X125676223Y-125853011D01*
X125656309Y-125855895D01*
X125638174Y-125860481D01*
X125621306Y-125866792D01*
X125606327Y-125874483D01*
X125592719Y-125883713D01*
X125580948Y-125894075D01*
X125570634Y-125905816D01*
X125562042Y-125918598D01*
X125555003Y-125932640D01*
X125549634Y-125947789D01*
X125545949Y-125964124D01*
X125543750Y-125991625D01*
X125547495Y-126024961D01*
X125558401Y-126055402D01*
X125566338Y-126069100D01*
X125575713Y-126081443D01*
X125590309Y-126095642D01*
X125552879Y-126095642D01*
X125552879Y-126154993D01*
X125915000Y-126154993D01*
X125915000Y-126093536D01*
X125693746Y-126093536D01*
X125679513Y-126092577D01*
X125666068Y-126089775D01*
X125653408Y-126085186D01*
X125641798Y-126078942D01*
X125622119Y-126061824D01*
X125614384Y-126051226D01*
X125608213Y-126039420D01*
X125603760Y-126026625D01*
X125601094Y-126012867D01*
X125600323Y-126000021D01*
X125601282Y-125985257D01*
X125604084Y-125971811D01*
X125608512Y-125959929D01*
X125614500Y-125949344D01*
X125630801Y-125932078D01*
X125652867Y-125919935D01*
X125680822Y-125913519D01*
X125695150Y-125912796D01*
X125915000Y-125912796D01*
X125915000Y-125852041D01*
X125697257Y-125852041D01*
G37*
G36*
X125485834Y-125219849D02*
G01*
X125427185Y-125219849D01*
X125427185Y-125586518D01*
X125485834Y-125586518D01*
X125485834Y-125433897D01*
X125915000Y-125433897D01*
X125915000Y-125372470D01*
X125485834Y-125372470D01*
X125485834Y-125219849D01*
G37*
G36*
X125551994Y-124913599D02*
G01*
X125551994Y-124975056D01*
X125774163Y-124975056D01*
X125788278Y-124976013D01*
X125801591Y-124978804D01*
X125825672Y-124989607D01*
X125845274Y-125006707D01*
X125853007Y-125017315D01*
X125859163Y-125029096D01*
X125863603Y-125041855D01*
X125866241Y-125055515D01*
X125866975Y-125067868D01*
X125866012Y-125083168D01*
X125863181Y-125097079D01*
X125858760Y-125109157D01*
X125852757Y-125119898D01*
X125836569Y-125137084D01*
X125814675Y-125148970D01*
X125786622Y-125155150D01*
X125772759Y-125155796D01*
X125551994Y-125155796D01*
X125551994Y-125216551D01*
X125769950Y-125216551D01*
X125790848Y-125215581D01*
X125810647Y-125212697D01*
X125828700Y-125208107D01*
X125845501Y-125201790D01*
X125860434Y-125194087D01*
X125874005Y-125184842D01*
X125885751Y-125174458D01*
X125896043Y-125162691D01*
X125904617Y-125149881D01*
X125911638Y-125135807D01*
X125916989Y-125120626D01*
X125920653Y-125104256D01*
X125922815Y-125076967D01*
X125919082Y-125043272D01*
X125908276Y-125012903D01*
X125891116Y-124986945D01*
X125876928Y-124972950D01*
X125914419Y-124972950D01*
X125914419Y-124913599D01*
X125551994Y-124913599D01*
G37*
G36*
X125544300Y-124636658D02*
G01*
X125544324Y-124668908D01*
X125547242Y-124685436D01*
X125552123Y-124701546D01*
X125558666Y-124716295D01*
X125567023Y-124729987D01*
X125576373Y-124741430D01*
X125587278Y-124751426D01*
X125591072Y-124754261D01*
X125552574Y-124754261D01*
X125552574Y-124813612D01*
X125915000Y-124813612D01*
X125915000Y-124752154D01*
X125705439Y-124752154D01*
X125689254Y-124751198D01*
X125674518Y-124748410D01*
X125661415Y-124743997D01*
X125649698Y-124738046D01*
X125630274Y-124721876D01*
X125615975Y-124700112D01*
X125607179Y-124672704D01*
X125604842Y-124639941D01*
X125604994Y-124636658D01*
X125544300Y-124636658D01*
G37*
G36*
X125697257Y-124269347D02*
G01*
X125676223Y-124270317D01*
X125656309Y-124273201D01*
X125638174Y-124277787D01*
X125621306Y-124284098D01*
X125606327Y-124291789D01*
X125592719Y-124301019D01*
X125580948Y-124311381D01*
X125570634Y-124323123D01*
X125562042Y-124335904D01*
X125555003Y-124349946D01*
X125549634Y-124365095D01*
X125545949Y-124381431D01*
X125543750Y-124408932D01*
X125547495Y-124442267D01*
X125558401Y-124472708D01*
X125566338Y-124486406D01*
X125575713Y-124498749D01*
X125590309Y-124512949D01*
X125552879Y-124512949D01*
X125552879Y-124572300D01*
X125915000Y-124572300D01*
X125915000Y-124510842D01*
X125693746Y-124510842D01*
X125679513Y-124509884D01*
X125666068Y-124507082D01*
X125653408Y-124502492D01*
X125641798Y-124496248D01*
X125622119Y-124479130D01*
X125614384Y-124468533D01*
X125608213Y-124456726D01*
X125603760Y-124443931D01*
X125601094Y-124430174D01*
X125600323Y-124417328D01*
X125601282Y-124402564D01*
X125604084Y-124389117D01*
X125608512Y-124377235D01*
X125614500Y-124366650D01*
X125630801Y-124349385D01*
X125652867Y-124337241D01*
X125680822Y-124330825D01*
X125695150Y-124330102D01*
X125915000Y-124330102D01*
X125915000Y-124269347D01*
X125697257Y-124269347D01*
G37*
G36*
X125751326Y-124135105D02*
G01*
X125780735Y-124129044D01*
X125796117Y-124123082D01*
X125810149Y-124115528D01*
X125823135Y-124106257D01*
X125834588Y-124095642D01*
X125844653Y-124083591D01*
X125853010Y-124070504D01*
X125859635Y-124056491D01*
X125864421Y-124041808D01*
X125868258Y-124011579D01*
X125867778Y-123999442D01*
X125861674Y-123969256D01*
X125856090Y-123955883D01*
X125848884Y-123943665D01*
X125839844Y-123932322D01*
X125829200Y-123922223D01*
X125816336Y-123912955D01*
X125801823Y-123905089D01*
X125801823Y-123840151D01*
X125802130Y-123840252D01*
X125838253Y-123856029D01*
X125868044Y-123877101D01*
X125880651Y-123889532D01*
X125891717Y-123903175D01*
X125901295Y-123918126D01*
X125909242Y-123934211D01*
X125915634Y-123951726D01*
X125920267Y-123970315D01*
X125923157Y-123990439D01*
X125924128Y-124011579D01*
X125922191Y-124038796D01*
X125918449Y-124057755D01*
X125912851Y-124075928D01*
X125905368Y-124093479D01*
X125896174Y-124110017D01*
X125885283Y-124125555D01*
X125872865Y-124139858D01*
X125843927Y-124164298D01*
X125810541Y-124182413D01*
X125773882Y-124193568D01*
X125734962Y-124197356D01*
X125707733Y-124195487D01*
X125688172Y-124191760D01*
X125669366Y-124186160D01*
X125651153Y-124178666D01*
X125633959Y-124169463D01*
X125617855Y-124158629D01*
X125603019Y-124146305D01*
X125577872Y-124117966D01*
X125559434Y-124085856D01*
X125548204Y-124051241D01*
X125544422Y-124015090D01*
X125600293Y-124015090D01*
X125600618Y-124023278D01*
X125602798Y-124037912D01*
X125606967Y-124052341D01*
X125620916Y-124079549D01*
X125641261Y-124102656D01*
X125666675Y-124120225D01*
X125696158Y-124131441D01*
X125696158Y-123900143D01*
X125688613Y-123902259D01*
X125673146Y-123908138D01*
X125658864Y-123915680D01*
X125645699Y-123924861D01*
X125633978Y-123935416D01*
X125615408Y-123959814D01*
X125604075Y-123986938D01*
X125600293Y-124015090D01*
X125544422Y-124015090D01*
X125547675Y-123981981D01*
X125552204Y-123964137D01*
X125558622Y-123946799D01*
X125576775Y-123914487D01*
X125601394Y-123886346D01*
X125631713Y-123863358D01*
X125667088Y-123846253D01*
X125686448Y-123840117D01*
X125707057Y-123835638D01*
X125728615Y-123832957D01*
X125751326Y-123832122D01*
X125751326Y-124135105D01*
G37*
G36*
X125544300Y-123584460D02*
G01*
X125544324Y-123616709D01*
X125547242Y-123633238D01*
X125552123Y-123649348D01*
X125558666Y-123664096D01*
X125567023Y-123677788D01*
X125576373Y-123689231D01*
X125587278Y-123699228D01*
X125591072Y-123702062D01*
X125552574Y-123702062D01*
X125552574Y-123761413D01*
X125915000Y-123761413D01*
X125915000Y-123699956D01*
X125705439Y-123699956D01*
X125689254Y-123698999D01*
X125674518Y-123696212D01*
X125661415Y-123691799D01*
X125649698Y-123685848D01*
X125630274Y-123669678D01*
X125615975Y-123647914D01*
X125607179Y-123620505D01*
X125604842Y-123587742D01*
X125604994Y-123584460D01*
X125544300Y-123584460D01*
G37*
D11*
%TO.P,SW1,*%
%TO.N,*%
X131500000Y-150400000D03*
X131500000Y-153000000D03*
D12*
%TO.P,SW1,1,1_1*%
%TO.N,GND*%
X128900000Y-150850000D03*
%TO.P,SW1,2,2_2*%
%TO.N,Net-(U1-D3)*%
X134100000Y-150850000D03*
%TO.P,SW1,3*%
%TO.N,N/C*%
X128900000Y-152550000D03*
%TO.P,SW1,4*%
X134100000Y-152550000D03*
%TD*%
D13*
%TO.P,U1,1,D0_1*%
%TO.N,unconnected-(U1-D0-Pad1)*%
X132549000Y-126490500D03*
%TO.P,U1,2,D1_2*%
%TO.N,unconnected-(U1-D1-Pad2)*%
X132549000Y-129030500D03*
%TO.P,U1,3,D2_3*%
%TO.N,unconnected-(U1-D2-Pad3)*%
X132549000Y-131570500D03*
%TO.P,U1,4,D3_4*%
%TO.N,Net-(U1-D3)*%
X132549000Y-134110500D03*
%TO.P,U1,5,D4_5*%
%TO.N,Net-(U1-D4)*%
X132549000Y-136650500D03*
%TO.P,U1,6,D5_6*%
%TO.N,Net-(U1-D5)*%
X132549000Y-139190500D03*
%TO.P,U1,7,D6_7*%
%TO.N,unconnected-(U1-D6-Pad7)*%
X132549000Y-141730500D03*
%TO.P,U1,8,D7_8*%
%TO.N,unconnected-(U1-D7-Pad8)*%
X148714000Y-141730500D03*
%TO.P,U1,9,D8_9*%
%TO.N,unconnected-(U1-D8-Pad9)*%
X148714000Y-139190500D03*
%TO.P,U1,10,D9_10*%
%TO.N,unconnected-(U1-D9-Pad10)*%
X148714000Y-136650500D03*
%TO.P,U1,11,D10_11*%
%TO.N,unconnected-(U1-D10-Pad11)*%
X148714000Y-134110500D03*
%TO.P,U1,12,3V3_OUT_12*%
%TO.N,+3V3*%
X148714000Y-131570500D03*
%TO.P,U1,13,GND_13*%
%TO.N,GND*%
X148714000Y-129030500D03*
%TO.P,U1,14,VBUS_14*%
%TO.N,unconnected-(U1-VBUS-Pad14)*%
X148714000Y-126490500D03*
D14*
%TO.P,U1,15,SWDIO_15*%
%TO.N,unconnected-(U1-SWDIO-Pad15)*%
X139334000Y-125542000D03*
%TO.P,U1,16,SWCLK_16*%
%TO.N,unconnected-(U1-SWCLK-Pad16)*%
X141874000Y-125542000D03*
%TO.P,U1,17,EN_17*%
%TO.N,unconnected-(U1-EN-Pad17)*%
X139334000Y-128082000D03*
%TO.P,U1,18,GND_18*%
%TO.N,GND*%
X141874000Y-128082000D03*
D15*
%TO.P,U1,19,VBAT_19*%
%TO.N,Net-(J2-Pin_1)*%
X136159000Y-133797000D03*
%TO.P,U1,20,GND_20*%
%TO.N,GND*%
X136159000Y-131892000D03*
D16*
%TO.P,U1,21,NFC1_21*%
%TO.N,unconnected-(U1-NFC1-Pad21)*%
X144414000Y-143347400D03*
%TO.P,U1,22,NFC2_22*%
%TO.N,unconnected-(U1-NFC2-Pad22)*%
X146319000Y-143347400D03*
%TD*%
D17*
%TO.P,J2,1,Pin_1_1*%
%TO.N,Net-(J2-Pin_1)*%
X143250000Y-150500000D03*
%TO.P,J2,2,Pin_2_2*%
%TO.N,GND*%
X143250000Y-148500000D03*
D18*
%TO.P,J2,P1*%
%TO.N,N/C*%
X149000000Y-152850000D03*
%TO.P,J2,P2*%
X149000000Y-146150000D03*
%TD*%
D19*
%TO.P,U2,2,SCL_2*%
%TO.N,Net-(U1-D5)*%
X127736600Y-139242800D03*
%TO.P,U2,3,SDA_3*%
%TO.N,Net-(U1-D4)*%
X127736600Y-136702800D03*
D20*
%TO.P,U2,11,VDD_11*%
%TO.N,+3V3*%
X127736600Y-134162800D03*
D19*
%TO.P,U2,12,GND_12*%
%TO.N,GND*%
X127736600Y-141782800D03*
%TD*%
D21*
%TO.N,GND*%
X142000000Y-135000000D03*
X146500000Y-129000000D03*
X145500000Y-148500000D03*
X125500000Y-149500000D03*
X142000000Y-129500000D03*
X127000000Y-151500000D03*
%TO.N,+3V3*%
X135000000Y-130500000D03*
%TD*%
%TO.N,Net-(J2-Pin_1)*%
D22*
X139500000Y-150500000D02*
X142125000Y-150500000D01*
X138500000Y-149500000D02*
X139500000Y-150500000D01*
X138500000Y-136138000D02*
X138500000Y-149500000D01*
X136159000Y-133797000D02*
X138500000Y-136138000D01*
%TO.N,Net-(U1-D3)*%
D23*
X134100000Y-149900000D02*
X134100000Y-150850000D01*
X135500000Y-148500000D02*
X134100000Y-149900000D01*
X135500000Y-135686500D02*
X135500000Y-148500000D01*
X133924000Y-134110500D02*
X135500000Y-135686500D01*
X132549000Y-134110500D02*
X133924000Y-134110500D01*
%TO.N,GND*%
D22*
X127150000Y-150850000D02*
X127000000Y-151000000D01*
X136159000Y-131892000D02*
X138892000Y-131892000D01*
X148714000Y-129030500D02*
X146530500Y-129030500D01*
X125500000Y-144019400D02*
X125500000Y-149500000D01*
D24*
X141874000Y-129374000D02*
X142000000Y-129500000D01*
X146530500Y-129030500D02*
X146500000Y-129000000D01*
D22*
X138892000Y-131892000D02*
X142000000Y-135000000D01*
X127736600Y-141782800D02*
X125500000Y-144019400D01*
X142125000Y-148500000D02*
X145500000Y-148500000D01*
X141874000Y-128082000D02*
X141874000Y-129374000D01*
X128900000Y-150850000D02*
X127150000Y-150850000D01*
X127000000Y-151000000D02*
X127000000Y-151500000D01*
%TO.N,Net-(U1-D4)*%
D24*
X132496700Y-136702800D02*
X132549000Y-136650500D01*
X127736600Y-136702800D02*
X132496700Y-136702800D01*
%TO.N,Net-(U1-D5)*%
X132496700Y-139242800D02*
X132549000Y-139190500D01*
X127736600Y-139242800D02*
X132496700Y-139242800D01*
%TO.N,+3V3*%
D25*
X148714000Y-131570500D02*
X141070500Y-131570500D01*
X141070500Y-131570500D02*
X140000000Y-130500000D01*
X140000000Y-130500000D02*
X135000000Y-130500000D01*
%TD*%
M02*
